<svg width="21" height="21" viewBox="0 0 21 21" fill="none" xmlns="http://www.w3.org/2000/svg">
<g clip-path="url(#clip0_1083_9632)">
<path d="M20.5 10.5C20.5 4.97715 16.0228 0.5 10.5 0.5C4.97715 0.5 0.5 4.97715 0.5 10.5C0.5 16.0228 4.97715 20.5 10.5 20.5C16.0228 20.5 20.5 16.0228 20.5 10.5Z" fill="#1778F2"/>
<path d="M11.2974 16.144V10.7912H13.0942L13.3637 8.70507H11.2974V7.37315C11.2974 6.76922 11.4652 6.35761 12.3313 6.35761H13.436V4.49233C12.9013 4.43576 12.3639 4.40835 11.8263 4.41025C10.2335 4.41025 9.14315 5.38238 9.14315 7.16777V8.70507H7.3418V10.7912H9.14315V16.144H11.2974Z" fill="#FDFDFD"/>
</g>
<defs>
<clipPath id="clip0_1083_9632">
<rect width="20" height="20" fill="white" transform="translate(0.5 0.5)"/>
</clipPath>
</defs>
</svg>
