<svg width="20" height="21" viewBox="0 0 20 21" fill="none" xmlns="http://www.w3.org/2000/svg">
<path d="M10.0001 2.37305C8.02133 2.37313 6.10716 3.07731 4.60008 4.35959C3.09299 5.64186 2.09135 7.41856 1.77438 9.37178C1.45741 11.325 1.84579 13.3273 2.87002 15.0203C3.89425 16.7134 5.48751 17.9868 7.3647 18.6126C7.78137 18.6856 7.93762 18.4356 7.93762 18.2168C7.93762 18.0189 7.9272 17.3626 7.9272 16.6647C5.83344 17.0501 5.29177 16.1543 5.1251 15.6856C4.94017 15.2297 4.647 14.8257 4.27094 14.5085C3.97927 14.3522 3.5626 13.9668 4.26051 13.9564C4.527 13.9853 4.78259 14.078 5.00563 14.2267C5.22867 14.3754 5.41257 14.5757 5.54177 14.8105C5.65575 15.0153 5.809 15.1955 5.99276 15.341C6.17652 15.4864 6.38717 15.5941 6.61263 15.658C6.8381 15.7218 7.07395 15.7406 7.30667 15.7131C7.53939 15.6857 7.76441 15.6126 7.96884 15.498C8.00491 15.0744 8.19372 14.6783 8.5001 14.3835C6.64594 14.1752 4.70844 13.4564 4.70844 10.2689C4.69673 9.44069 5.00234 8.63939 5.5626 8.02932C5.30784 7.3095 5.33765 6.51956 5.64594 5.82099C5.64594 5.82099 6.34383 5.60223 7.9376 6.67516C9.30118 6.30013 10.7407 6.30013 12.1043 6.67516C13.698 5.59182 14.3959 5.82099 14.3959 5.82099C14.7043 6.51955 14.7341 7.30951 14.4793 8.02932C15.0412 8.63834 15.3471 9.44035 15.3334 10.2689C15.3334 13.4668 13.3855 14.1752 11.5314 14.3835C11.7302 14.5851 11.8834 14.8271 11.9805 15.0931C12.0775 15.3591 12.1162 15.6429 12.0939 15.9252C12.0939 17.0398 12.0834 17.9356 12.0834 18.2168C12.0834 18.4356 12.2397 18.696 12.6563 18.6127C14.5302 17.9817 16.1189 16.7054 17.1388 15.0114C18.1587 13.3175 18.5433 11.3162 18.2242 9.36491C17.905 7.41358 16.9027 5.63919 15.3963 4.35847C13.8899 3.07776 11.9774 2.37408 10.0001 2.37305Z" fill="black"/>
</svg>
