<svg width="56" height="56" viewBox="0 0 56 56" fill="none" xmlns="http://www.w3.org/2000/svg">
<path d="M0 28C0 12.536 12.536 0 28 0C43.464 0 56 12.536 56 28C56 43.464 43.464 56 28 56C12.536 56 0 43.464 0 28Z" fill="#DBEAFE"/>
<path fill-rule="evenodd" clip-rule="evenodd" d="M14.3335 28.5007C14.3335 20.9528 20.4523 14.834 28 14.834C32.5107 14.834 36.5091 17.0191 38.9974 20.3856L39.0778 19.8477C39.1842 19.1368 39.8467 18.6467 40.5576 18.7531C41.2686 18.8594 41.7587 19.522 41.6523 20.2329L41.034 24.3655C40.9806 24.7227 40.7811 25.0417 40.4832 25.2461C40.1854 25.4505 39.8159 25.5219 39.4634 25.4432L35.526 24.5647C34.8244 24.4081 34.3827 23.7124 34.5392 23.0108C34.6958 22.3092 35.3914 21.8674 36.093 22.024L37.1346 22.2564C35.1404 19.345 31.792 17.4372 28 17.4372C21.89 17.4372 16.9367 22.3905 16.9367 28.5007C16.9367 34.6108 21.89 39.5641 28 39.5641C34.1103 39.5641 39.0635 34.6108 39.0635 28.5007C39.0635 27.7819 39.6463 27.1991 40.3651 27.1991C41.0839 27.1991 41.6667 27.7819 41.6667 28.5007C41.6667 36.0485 35.5479 42.1673 28 42.1673C20.4523 42.1673 14.3335 36.0485 14.3335 28.5007Z" fill="#2563EB"/>
<path d="M29.0544 26.166C29.7899 26.166 30.424 26.166 30.9387 26.224C31.4862 26.2857 32.0207 26.4235 32.4931 26.786C32.7011 26.9456 32.8872 27.1317 33.0468 27.3397C33.4094 27.8121 33.5471 28.3467 33.6088 28.8941C33.667 29.4088 33.6668 30.1513 33.6668 30.8869C33.6668 31.6224 33.667 32.2565 33.6088 32.7712C33.5471 33.3187 33.4094 33.8532 33.0468 34.3256C32.8872 34.5336 32.7011 34.7197 32.4931 34.8793C32.0207 35.2419 31.4862 35.3796 30.9387 35.4413C30.424 35.4995 29.7899 35.4993 29.0544 35.4993H26.9459C26.2104 35.4993 25.5763 35.4995 25.0616 35.4413C24.5142 35.3796 23.9796 35.2419 23.5072 34.8793C23.2992 34.7197 23.113 34.5336 22.9534 34.3256C22.591 33.8532 22.4532 33.3187 22.3915 32.7712C22.3334 32.2565 22.3335 31.6224 22.3335 30.8869C22.3335 30.1513 22.3334 29.4088 22.3915 28.8941C22.4532 28.3467 22.591 27.8121 22.9534 27.3397C23.113 27.1317 23.2992 26.9456 23.5072 26.786C23.9796 26.4235 24.5142 26.2857 25.0616 26.224C25.5763 26.166 26.2104 26.166 26.9459 26.166H29.0544Z" fill="#2563EB"/>
<path fill-rule="evenodd" clip-rule="evenodd" d="M28.0002 23.5C27.0796 23.5 26.3335 24.2462 26.3335 25.1667V27.1667H24.3335V25.1667C24.3335 23.1416 25.9751 21.5 28.0002 21.5C30.0252 21.5 31.6668 23.1416 31.6668 25.1667V27.1667H29.6668V25.1667C29.6668 24.2462 28.9207 23.5 28.0002 23.5Z" fill="#2563EB"/>
</svg>
