<svg width="16" height="16" viewBox="0 0 16 16" fill="none" xmlns="http://www.w3.org/2000/svg">
<g id="search-01">
<path id="Vector" fill-rule="evenodd" clip-rule="evenodd" d="M11.1953 11.1953C11.4556 10.9349 11.8777 10.9349 12.138 11.1953L15.1381 14.1953C15.3984 14.4556 15.3984 14.8777 15.1381 15.1381C14.8777 15.3984 14.4556 15.3984 14.1953 15.1381L11.1953 12.138C10.9349 11.8777 10.9349 11.4556 11.1953 11.1953Z" fill="#141B34"/>
<path id="Vector_2" fill-rule="evenodd" clip-rule="evenodd" d="M0.666992 7.33329C0.666992 3.65139 3.65176 0.666626 7.33366 0.666626C11.0155 0.666626 14.0003 3.65139 14.0003 7.33329C14.0003 11.0152 11.0155 14 7.33366 14C3.65176 14 0.666992 11.0152 0.666992 7.33329ZM7.33366 1.99996C4.38814 1.99996 2.00033 4.38777 2.00033 7.33329C2.00033 10.2788 4.38814 12.6666 7.33366 12.6666C10.2792 12.6666 12.667 10.2788 12.667 7.33329C12.667 4.38777 10.2792 1.99996 7.33366 1.99996Z" fill="#141B34"/>
</g>
</svg>
