<svg xmlns="http://www.w3.org/2000/svg" width="25" height="24" viewBox="0 0 25 24" fill="none">
  <path d="M5 21.75H6V20.25H5V21.75ZM6 21.75C6.96648 21.75 7.75 20.9665 7.75 20H6.25C6.25 20.1381 6.13808 20.25 6 20.25V21.75ZM7.75 20V12H6.25V20H7.75ZM7.75 12C7.75 11.0335 6.96648 10.25 6 10.25V11.75C6.13808 11.75 6.25 11.8619 6.25 12H7.75ZM6 10.25H5V11.75H6V10.25ZM5 10.25C4.03352 10.25 3.25 11.0335 3.25 12H4.75C4.75 11.8619 4.86192 11.75 5 11.75V10.25ZM3.25 12V20H4.75V12H3.25ZM3.25 20C3.25 20.9665 4.03352 21.75 5 21.75V20.25C4.86192 20.25 4.75 20.1381 4.75 20H3.25ZM12 21.7495H13V20.2495H12V21.7495ZM13 21.7495C13.9665 21.7495 14.75 20.966 14.75 19.9995H13.25C13.25 20.1376 13.1381 20.2495 13 20.2495V21.7495ZM14.75 19.9995V14H13.25V19.9995H14.75ZM14.75 14C14.75 13.0335 13.9665 12.25 13 12.25V13.75C13.1381 13.75 13.25 13.8619 13.25 14H14.75ZM13 12.25H12V13.75H13V12.25ZM12 12.25C11.0335 12.25 10.25 13.0335 10.25 14H11.75C11.75 13.8619 11.8619 13.75 12 13.75V12.25ZM10.25 14V19.9995H11.75V14H10.25ZM10.25 19.9995C10.25 20.966 11.0335 21.7495 12 21.7495V20.2495C11.8619 20.2495 11.75 20.1376 11.75 19.9995H10.25ZM19 21.75H20V20.25H19V21.75ZM20 21.75C20.9665 21.75 21.75 20.9665 21.75 20H20.25C20.25 20.1381 20.1381 20.25 20 20.25V21.75ZM21.75 20V10H20.25V20H21.75ZM21.75 10C21.75 9.03352 20.9665 8.25 20 8.25V9.75C20.1381 9.75 20.25 9.86192 20.25 10H21.75ZM20 8.25H19V9.75H20V8.25ZM19 8.25C18.0335 8.25 17.25 9.03352 17.25 10H18.75C18.75 9.86192 18.8619 9.75 19 9.75V8.25ZM17.25 10V20H18.75V10H17.25ZM17.25 20C17.25 20.9665 18.0335 21.75 19 21.75V20.25C18.8619 20.25 18.75 20.1381 18.75 20H17.25ZM6.25 6.5C6.25 6.91422 5.91422 7.25 5.5 7.25V8.75C6.74264 8.75 7.75 7.74264 7.75 6.5H6.25ZM5.5 7.25C5.08578 7.25 4.75 6.91422 4.75 6.5H3.25C3.25 7.74264 4.25736 8.75 5.5 8.75V7.25ZM4.75 6.5C4.75 6.08578 5.08578 5.75 5.5 5.75V4.25C4.25736 4.25 3.25 5.25736 3.25 6.5H4.75ZM5.5 5.75C5.91422 5.75 6.25 6.08578 6.25 6.5H7.75C7.75 5.25736 6.74264 4.25 5.5 4.25V5.75ZM20.25 4.5C20.25 4.91421 19.9142 5.25 19.5 5.25V6.75C20.7426 6.75 21.75 5.74265 21.75 4.5H20.25ZM19.5 5.25C19.0858 5.25 18.75 4.91421 18.75 4.5H17.25C17.25 5.74265 18.2574 6.75 19.5 6.75V5.25ZM18.75 4.5C18.75 4.08579 19.0858 3.75 19.5 3.75V2.25C18.2574 2.25 17.25 3.25735 17.25 4.5H18.75ZM19.5 3.75C19.9142 3.75 20.25 4.08579 20.25 4.5H21.75C21.75 3.25735 20.7426 2.25 19.5 2.25V3.75ZM13.25 8.5C13.25 8.91421 12.9142 9.25 12.5 9.25V10.75C13.7426 10.75 14.75 9.74265 14.75 8.5H13.25ZM12.5 9.25C12.0858 9.25 11.75 8.91421 11.75 8.5H10.25C10.25 9.74265 11.2574 10.75 12.5 10.75V9.25ZM11.75 8.5C11.75 8.08579 12.0858 7.75 12.5 7.75V6.25C11.2574 6.25 10.25 7.25735 10.25 8.5H11.75ZM12.5 7.75C12.9142 7.75 13.25 8.08579 13.25 8.5H14.75C14.75 7.25735 13.7426 6.25 12.5 6.25V7.75ZM6.73732 7.63313L10.852 8.80876L11.264 7.36648L7.1494 6.19085L6.73732 7.63313ZM14.1754 8.40665L18.5702 5.89532L17.826 4.59296L13.4312 7.10429L14.1754 8.40665Z" fill="#8F4BDD"/>
</svg>