<svg xmlns="http://www.w3.org/2000/svg" width="25" height="24" viewBox="0 0 25 24" fill="none">
  <path d="M12.75 2.25C7.22715 2.25 2.75 6.72715 2.75 12.25C2.75 17.7728 7.22715 22.25 12.75 22.25C18.2728 22.25 22.75 17.7728 22.75 12.25C22.75 11.5651 22.6811 10.8962 22.55 10.25M8.5 15C9.41212 16.2144 10.8643 17 12.5 17C14.1357 17 15.5879 16.2144 16.5 15M10.5 9.5H9.20711C8.75435 9.5 8.32014 9.67986 8 10M14.5 9.5H15.7929C16.2456 9.5 16.6799 9.67986 17 10M21.4002 2.26225C20.0032 1.55036 19 2.51339 19 2.51339C19 2.51339 17.9968 1.55036 16.5997 2.26224C14.9076 3.12448 14.7861 6.50102 19 8C23.214 6.50102 23.0924 3.12448 21.4002 2.26225Z" stroke="#2A2A33" stroke-width="1.5" stroke-linecap="round" stroke-linejoin="round"/>
</svg>