<svg xmlns="http://www.w3.org/2000/svg" width="20" height="21" viewBox="0 0 20 21" fill="none">
  <path d="M13.334 5.5C14.2545 5.5 15.0007 6.24619 15.0007 7.16667V17.1667C15.0007 18.0872 14.2545 18.8333 13.334 18.8333H3.33397C2.41351 18.8333 1.66733 18.0872 1.6673 17.1667L1.66699 7.16672C1.66697 6.24623 2.41317 5.5 3.33366 5.5H13.334Z" stroke="#5C5C66" stroke-width="1.25" stroke-linecap="round" stroke-linejoin="round"/>
  <path d="M7.97797 9.03501C8.1258 8.76567 8.54026 8.76567 8.68801 9.03501L9.55967 10.6231C9.61759 10.7285 9.72626 10.8019 9.85209 10.8205L11.7468 11.1007C12.0679 11.1482 12.1959 11.5135 11.9663 11.7273L10.6098 12.9901C10.52 13.0738 10.4786 13.1923 10.4983 13.3089L10.7973 15.0713C10.8479 15.3698 10.5128 15.5958 10.2228 15.4586L8.51392 14.6503C8.40026 14.5965 8.26576 14.5965 8.15213 14.6503L6.44318 15.4586C6.15322 15.5958 5.81805 15.3698 5.86868 15.0713L6.16766 13.3089C6.18745 13.1923 6.14603 13.0738 6.05617 12.9901L4.69976 11.7273C4.47012 11.5135 4.59809 11.1482 4.91922 11.1007L6.81394 10.8205C6.93977 10.8019 7.04844 10.7285 7.1063 10.6231L7.97797 9.03501Z" stroke="#5C5C66" stroke-width="1.25" stroke-linejoin="round"/>
  <path d="M5 5.49984V3.83317C5 2.9127 5.74619 2.1665 6.66667 2.1665H16.6671C17.5876 2.1665 18.3337 2.9127 18.3337 3.83317V13.8332C18.3337 14.7537 17.5876 15.4998 16.6671 15.4998H15" stroke="#5C5C66" stroke-width="1.25" stroke-linecap="round" stroke-linejoin="round"/>
</svg>