<svg xmlns="http://www.w3.org/2000/svg" width="20" height="21" viewBox="0 0 20 21" fill="none">
  <path d="M14.1663 10.4997C14.1663 12.8008 12.3008 14.6663 9.99967 14.6663C7.69849 14.6663 5.83301 12.8008 5.83301 10.4997C5.83301 8.19849 7.69849 6.33301 9.99967 6.33301" stroke="#5C5C66" stroke-width="1.25" stroke-linecap="round" stroke-linejoin="round"/>
  <path d="M11.667 2.33369C11.1285 2.22438 10.5711 2.16699 10.0003 2.16699C5.39795 2.16699 1.66699 5.89795 1.66699 10.5003C1.66699 15.1027 5.39795 18.8337 10.0003 18.8337C14.6027 18.8337 18.3337 15.1027 18.3337 10.5003C18.3337 9.92958 18.2762 9.37216 18.167 8.83366" stroke="#5C5C66" stroke-width="1.25" stroke-linecap="round" stroke-linejoin="round"/>
  <path d="M13.3333 7.16624V4.66624L15.8223 2.17725C15.827 2.17254 15.8351 2.17499 15.8364 2.18151L16.2489 4.24413C16.2496 4.24743 16.2522 4.25001 16.2554 4.25067L18.3181 4.66319C18.3246 4.66449 18.327 4.67254 18.3223 4.67725L15.8357 7.1638C15.8342 7.16537 15.8321 7.16624 15.8299 7.16624H13.3333ZM13.3333 7.16624L10 10.4996" stroke="#5C5C66" stroke-width="1.25" stroke-linecap="round" stroke-linejoin="round"/>
</svg>