<svg width="20" height="20" viewBox="0 0 20 20" fill="none" xmlns="http://www.w3.org/2000/svg">
<g clip-path="url(#clip0_2361_37580)">
<path d="M1.36853 12.7974L1.36649 12.79C0.880412 11.0504 1.87711 9.25597 3.5726 8.74218L3.57882 8.74029L3.57884 8.74033L5.53536 8.17512L6.01845 8.03556L6.15526 8.51943L7.04657 11.6716L7.04692 11.6728L7.65561 13.8467L7.78932 14.3243L7.3129 14.4619L5.35701 15.027C5.35687 15.027 5.35673 15.027 5.35659 15.0271L5.35638 15.0271L1.36853 12.7974ZM1.36853 12.7974L1.3708 12.8046C1.62167 13.6074 2.15443 14.3293 2.93568 14.7471L1.36853 12.7974ZM18.4837 6.42345L18.4837 6.42347L18.4874 6.42544C18.9363 6.65819 19.249 7.05985 19.4119 7.60129C19.5682 8.14118 19.4995 8.62888 19.2438 9.07481C18.8966 9.64391 18.2683 9.98322 17.7338 10.1888L17.306 10.3533L17.4328 10.7938L18.7151 15.2494C18.7151 15.2494 18.7151 15.2494 18.7151 15.2495C18.7521 15.3791 18.714 15.5172 18.6249 15.6063L18.6131 15.618L18.6022 15.6306C18.5619 15.6766 18.4709 15.7207 18.3698 15.7207L18.3679 15.7206C18.3674 15.7205 18.3667 15.7204 18.3657 15.7203C18.3636 15.7199 18.3602 15.7193 18.355 15.7182C18.3513 15.7174 18.3472 15.7165 18.3422 15.7153C18.3357 15.7137 18.3278 15.7117 18.3177 15.7091C18.3046 15.7057 18.2821 15.6998 18.2604 15.6943C16.0474 15.0622 14.4991 14.7255 13.0385 14.6214C11.5727 14.5169 10.2197 14.6485 8.40401 14.9219L8.37043 14.927L8.33784 14.9365L7.07697 15.3061L6.60443 15.4446L6.7357 15.9192L7.01783 16.9392C7.01793 16.9396 7.01802 16.9399 7.01812 16.9403C7.10758 17.2675 7.2845 17.5599 7.51623 17.7916L7.51612 17.7917L7.52495 17.8001L7.98147 18.2349L7.98362 18.237C8.14558 18.3894 8.14694 18.6129 8.01036 18.7642C7.93334 18.8386 7.84561 18.8729 7.73935 18.8729C7.65664 18.8729 7.55671 18.8395 7.4666 18.7632L7.02353 18.3412C6.68615 18.0026 6.43333 17.599 6.30798 17.1518C6.30791 17.1516 6.30785 17.1513 6.30778 17.1511L6.0256 16.1309L5.89558 15.6608L5.42243 15.7791C5.11547 15.8558 4.78669 15.8946 4.47848 15.8946C3.82802 15.8946 3.17134 15.7224 2.56729 15.3913C1.62178 14.8702 0.945676 14.0021 0.655232 12.9758L0.655057 12.9752C0.0549487 10.8652 1.27823 8.62436 3.37612 8.02771L3.37613 8.02771L3.37875 8.02695L6.0744 7.24434L6.10546 7.23533L6.1351 7.22238C7.86089 6.46872 9.08143 5.86411 10.2658 4.9963C11.4471 4.13083 12.5723 3.01835 14.1322 1.2732C14.2183 1.17943 14.357 1.13458 14.5041 1.16611C14.6121 1.18924 14.7176 1.28042 14.7584 1.42276C14.7585 1.42293 14.7585 1.4231 14.7586 1.42327L16.0191 5.87855L16.1424 6.31424L16.5881 6.23464C17.159 6.13269 17.8927 6.11059 18.4837 6.42345ZM8.43214 13.7264L8.5499 14.1426L8.97873 14.086C10.1194 13.9353 11.0739 13.8511 12.022 13.8511C13.4885 13.8511 14.9224 14.0594 16.9599 14.5955L17.8081 14.8187L17.5681 13.9751L14.4811 3.12732L14.2423 2.28818L13.639 2.91842C11.249 5.41512 9.82281 6.35717 7.13897 7.59259L6.75157 7.77092L6.86656 8.18159L7.17091 9.26855L7.17127 9.26985L8.43214 13.7264ZM18.6348 8.65577L18.6491 8.62966L18.6601 8.60205C18.6616 8.59838 18.6635 8.59373 18.6658 8.58816C18.6847 8.54263 18.7291 8.4358 18.7511 8.30836C18.7776 8.15459 18.7722 7.98633 18.7244 7.79508L18.7181 7.76988L18.7092 7.74547C18.6492 7.58042 18.5724 7.44295 18.4737 7.32866C18.374 7.21315 18.2704 7.14316 18.1922 7.09629L18.1834 7.09101L18.1744 7.08609C17.9663 6.97256 17.7336 6.93079 17.5335 6.91745C17.3278 6.90374 17.1191 6.9178 16.9341 6.94247L16.3605 7.01896L16.5195 7.57544L16.9542 9.09718L17.1102 9.64301L17.632 9.41939C17.7953 9.3494 17.984 9.25969 18.1561 9.14615C18.323 9.03598 18.5136 8.87803 18.6348 8.65577ZM12.217 7.63476L12.2169 7.63474L12.2127 7.63768C11.825 7.91017 11.4076 8.16925 11.0793 8.36409C10.9157 8.46116 10.7756 8.54148 10.6742 8.59861C10.5863 8.64817 10.5344 8.67636 10.5199 8.68425C10.5167 8.68599 10.5153 8.68674 10.5157 8.68652L10.4986 8.69511L10.4821 8.70499C10.4822 8.70494 10.4801 8.70617 10.4753 8.70802C10.4705 8.70988 10.4636 8.71206 10.4546 8.7141C10.4359 8.71835 10.4138 8.72069 10.3915 8.72069C10.2906 8.72069 10.2072 8.66874 10.1648 8.58404L10.1649 8.58398L10.1595 8.5737C10.0994 8.4601 10.14 8.30065 10.2776 8.2278L10.2795 8.22683L10.2878 8.22244L10.3184 8.2061C10.3449 8.19195 10.383 8.17141 10.4306 8.14528C10.526 8.09306 10.6601 8.01833 10.8164 7.9276C11.1271 7.74727 11.5341 7.49892 11.9007 7.23539L11.9127 7.22677L11.9242 7.21744C12.0374 7.12545 12.1824 7.1489 12.2621 7.26482C12.3607 7.40828 12.3147 7.56754 12.217 7.63476Z" fill="#374151" stroke="white"/>
</g>
<defs>
<clipPath id="clip0_2361_37580">
<rect width="20" height="20" fill="white"/>
</clipPath>
</defs>
</svg>
