<svg width="24" height="24" viewBox="0 0 24 24" fill="none" xmlns="http://www.w3.org/2000/svg">
<g clip-path="url(#clip0_1543_44384)">
<path d="M23.8693 8.94554C23.6346 8.16293 23.165 7.53684 22.4606 7.17162C21.5737 6.70206 20.5302 6.75423 19.7998 6.88467L18.2867 1.53684C18.1824 1.17162 17.8954 0.884666 17.5302 0.806405C17.165 0.728144 16.7737 0.832492 16.5128 1.11945C12.7824 5.29336 11.2432 6.31075 7.12151 8.11075L3.88673 9.04988C1.04325 9.85858 -0.600229 12.8847 0.208466 15.7281C0.599771 17.1108 1.51281 18.2847 2.79107 18.989C3.59977 19.4325 4.48673 19.6673 5.37368 19.6673C5.79107 19.6673 6.23455 19.6151 6.65194 19.5108L6.99107 20.7368C7.17368 21.389 7.5389 21.9629 8.00847 22.4325L8.55629 22.9542C8.76499 23.1368 9.02586 23.2412 9.28673 23.2412C9.57368 23.2412 9.83455 23.1368 10.0432 22.9281C10.4346 22.5108 10.4346 21.8586 9.99107 21.4412L9.44325 20.9194C9.23455 20.7108 9.07803 20.4499 8.99977 20.1629L8.66064 18.9368L10.1737 18.4934C14.5041 17.8412 16.4606 17.8934 21.7563 19.4064C21.8606 19.4325 21.9389 19.4586 22.0432 19.4586C22.3041 19.4586 22.5911 19.3542 22.7737 19.1455C23.0346 18.8847 23.1389 18.4934 23.0346 18.1281L21.4954 12.7803C22.1737 12.5194 23.0867 12.0499 23.6085 11.189C23.9998 10.5108 24.1041 9.75423 23.8693 8.94554ZM3.80847 17.1629C3.02586 16.7455 2.47803 16.0151 2.21716 15.1803C1.72151 13.4064 2.7389 11.5803 4.46064 11.0586L6.80847 10.3803L7.87803 14.1629L8.60847 16.7716L6.26064 17.4499C5.45194 17.6847 4.56499 17.5803 3.80847 17.1629ZM14.4259 16.0151C13.2519 16.0151 12.078 16.1194 10.6954 16.3021L9.18238 10.9542L8.81716 9.64988C12.1041 8.13684 13.878 6.96293 16.7998 3.91075L20.5041 16.9281C18.0259 16.276 16.2519 16.0151 14.4259 16.0151ZM21.8346 10.0934C21.678 10.3803 21.2867 10.589 20.9215 10.7455L20.3998 8.91945C20.7911 8.86728 21.2346 8.86727 21.5215 9.0238C21.6519 9.10206 21.7824 9.20641 21.8867 9.49336C21.965 9.80641 21.8867 9.96293 21.8346 10.0934ZM15.2085 8.37162C15.4954 8.78901 15.4172 9.36293 14.9998 9.64988C14.0346 10.3281 12.9389 10.9281 12.8867 10.9542C12.7563 11.0325 12.5998 11.0586 12.4693 11.0586C12.1302 11.0586 11.8172 10.876 11.6606 10.5629C11.4259 10.1194 11.6085 9.57162 12.0519 9.33684C12.0519 9.33684 13.0954 8.78901 13.9302 8.18901C14.3476 7.84988 14.9215 7.95423 15.2085 8.37162Z" fill="#374151"/>
</g>
<defs>
<clipPath id="clip0_1543_44384">
<rect width="24" height="24" fill="white"/>
</clipPath>
</defs>
</svg>
