<svg width="20" height="20" viewBox="0 0 20 20" fill="none" xmlns="http://www.w3.org/2000/svg">
<path d="M17.5 10.8333V9.16667C17.5 8.94565 17.4122 8.73369 17.2559 8.57741C17.0996 8.42113 16.8877 8.33333 16.6667 8.33333H16.0358L15.4467 6.91083L15.8925 6.46417C16.0487 6.30789 16.1365 6.09597 16.1365 5.875C16.1365 5.65403 16.0487 5.44211 15.8925 5.28583L14.7142 4.1075C14.5579 3.95127 14.346 3.86351 14.125 3.86351C13.904 3.86351 13.6921 3.95127 13.5358 4.1075L13.0892 4.55333L11.6667 3.96417V3.33333C11.6667 3.11232 11.5789 2.90036 11.4226 2.74408C11.2663 2.5878 11.0543 2.5 10.8333 2.5H9.16667C8.94565 2.5 8.73369 2.5878 8.57741 2.74408C8.42113 2.90036 8.33333 3.11232 8.33333 3.33333V3.96417L6.91083 4.55333L6.46417 4.1075C6.30789 3.95127 6.09597 3.86351 5.875 3.86351C5.65403 3.86351 5.44211 3.95127 5.28583 4.1075L4.1075 5.28583C3.95127 5.44211 3.86351 5.65403 3.86351 5.875C3.86351 6.09597 3.95127 6.30789 4.1075 6.46417L4.55417 6.91083L3.96417 8.33333H3.33333C3.11232 8.33333 2.90036 8.42113 2.74408 8.57741C2.5878 8.73369 2.5 8.94565 2.5 9.16667V10.8333C2.5 11.0543 2.5878 11.2663 2.74408 11.4226C2.90036 11.5789 3.11232 11.6667 3.33333 11.6667H3.96417L4.55333 13.0892L4.1075 13.5358C3.95127 13.6921 3.86351 13.904 3.86351 14.125C3.86351 14.346 3.95127 14.5579 4.1075 14.7142L5.28583 15.8925C5.44211 16.0487 5.65403 16.1365 5.875 16.1365C6.09597 16.1365 6.30789 16.0487 6.46417 15.8925L6.91083 15.4467L8.33333 16.0358V16.6667C8.33333 16.8877 8.42113 17.0996 8.57741 17.2559C8.73369 17.4122 8.94565 17.5 9.16667 17.5H10.8333C11.0543 17.5 11.2663 17.4122 11.4226 17.2559C11.5789 17.0996 11.6667 16.8877 11.6667 16.6667V16.0358L13.0892 15.4458L13.5358 15.8925C13.6921 16.0487 13.904 16.1365 14.125 16.1365C14.346 16.1365 14.5579 16.0487 14.7142 15.8925L15.8925 14.7142C16.0487 14.5579 16.1365 14.346 16.1365 14.125C16.1365 13.904 16.0487 13.6921 15.8925 13.5358L15.4467 13.0892L16.0358 11.6667H16.6667C16.8877 11.6667 17.0996 11.5789 17.2559 11.4226C17.4122 11.2663 17.5 11.0543 17.5 10.8333Z" stroke="#2F2F38" stroke-width="1.2" stroke-linecap="round" stroke-linejoin="round"/>
<path d="M10 12.5C11.3807 12.5 12.5 11.3807 12.5 10C12.5 8.61929 11.3807 7.5 10 7.5C8.61929 7.5 7.5 8.61929 7.5 10C7.5 11.3807 8.61929 12.5 10 12.5Z" stroke="#2F2F38" stroke-width="1.2" stroke-linecap="round" stroke-linejoin="round"/>
</svg>
