<svg width="20" height="21" viewBox="0 0 20 21" fill="none" xmlns="http://www.w3.org/2000/svg">
<path d="M7.5 13C7.5 10.643 7.5 9.4645 8.23223 8.73223C8.9645 8 10.143 8 12.5 8H13.3333C15.6903 8 16.8688 8 17.6011 8.73223C18.3333 9.4645 18.3333 10.643 18.3333 13V13.8333C18.3333 16.1903 18.3333 17.3688 17.6011 18.1011C16.8688 18.8333 15.6903 18.8333 13.3333 18.8333H12.5C10.143 18.8333 8.9645 18.8333 8.23223 18.1011C7.5 17.3688 7.5 16.1903 7.5 13.8333V13Z" stroke="#1F2937" stroke-width="1.5" stroke-linecap="round" stroke-linejoin="round"/>
<path d="M14.1669 7.9974C14.1649 5.53315 14.1277 4.25674 13.4103 3.38275C13.2718 3.21397 13.1171 3.05921 12.9483 2.9207C12.0263 2.16406 10.6566 2.16406 7.91699 2.16406C5.17743 2.16406 3.80764 2.16406 2.88568 2.9207C2.7169 3.0592 2.56214 3.21397 2.42363 3.38275C1.66699 4.30471 1.66699 5.6745 1.66699 8.41406C1.66699 11.1536 1.66699 12.5234 2.42363 13.4454C2.56213 13.6141 2.7169 13.7689 2.88568 13.9074C3.75967 14.6247 5.03608 14.662 7.50033 14.664" stroke="#1F2937" stroke-width="1.5" stroke-linecap="round" stroke-linejoin="round"/>
</svg>
