<svg width="24" height="24" viewBox="0 0 24 24" fill="none" xmlns="http://www.w3.org/2000/svg">
<path d="M4 8V19C4 19.2652 4.10536 19.5196 4.29289 19.7071C4.48043 19.8946 4.73478 20 5 20H19C19.2652 20 19.5196 19.8946 19.7071 19.7071C19.8946 19.5196 20 19.2652 20 19V9C20 8.73478 19.8946 8.48043 19.7071 8.29289C19.5196 8.10536 19.2652 8 19 8H4ZM4 8V5C4 4.73478 4.10536 4.48043 4.29289 4.29289C4.48043 4.10536 4.73478 4 5 4H10.443C10.5982 4 10.7514 4.03614 10.8902 4.10557C11.0291 4.175 11.1499 4.2758 11.243 4.4L13.943 8H4Z" stroke="#8E3FDE" stroke-width="1.2" stroke-linecap="round" stroke-linejoin="round"/>
</svg>
