<svg width="20" height="20" viewBox="0 0 20 20" fill="none" xmlns="http://www.w3.org/2000/svg">
<path d="M5.07465 12.5026C4.7593 11.7938 4.5835 11.0052 4.5835 10.1742C4.5835 7.08788 7.00862 4.58594 10.0002 4.58594C12.9917 4.58594 15.4168 7.08788 15.4168 10.1742C15.4168 11.0052 15.241 11.7938 14.9257 12.5026" stroke="#374151" stroke-width="1.2" stroke-linecap="round"/>
<path d="M10 1.66406V2.4974" stroke="#374151" stroke-width="1.2" stroke-linecap="round" stroke-linejoin="round"/>
<path d="M18.3333 10H17.5" stroke="#374151" stroke-width="1.5" stroke-linecap="round" stroke-linejoin="round"/>
<path d="M2.49984 10H1.6665" stroke="#374151" stroke-width="1.5" stroke-linecap="round" stroke-linejoin="round"/>
<path d="M15.892 4.10156L15.3027 4.69082" stroke="#374151" stroke-width="1.5" stroke-linecap="round" stroke-linejoin="round"/>
<path d="M4.69717 4.69863L4.10791 4.10938" stroke="#374151" stroke-width="1.5" stroke-linecap="round" stroke-linejoin="round"/>
<path d="M12.0969 16.0857C12.9389 15.8132 13.2766 15.0426 13.3716 14.2674C13.3999 14.0359 13.2094 13.8438 12.9761 13.8438L7.06348 13.8439C6.82214 13.844 6.62833 14.0487 6.65714 14.2884C6.75019 15.062 6.98502 15.6272 7.87731 16.0857M12.0969 16.0857C12.0969 16.0857 8.02419 16.0857 7.87731 16.0857M12.0969 16.0857C11.9957 17.7065 11.5276 18.3483 10.0051 18.3303C8.3766 18.3604 8.00196 17.567 7.87731 16.0857" stroke="#374151" stroke-width="1.5" stroke-linecap="round" stroke-linejoin="round"/>
</svg>
