<svg width="20" height="20" viewBox="0 0 20 20" fill="none" xmlns="http://www.w3.org/2000/svg">
<path d="M13.3333 5.0026C13.7214 5.00284 14.104 5.09339 14.451 5.2671C14.7979 5.4408 15.0997 5.69288 15.3324 6.00339C15.5651 6.3139 15.7223 6.67431 15.7916 7.0561C15.8609 7.43788 15.8404 7.83055 15.7317 8.20304C15.623 8.57552 15.429 8.91758 15.1653 9.20215C14.9015 9.48672 14.5751 9.70598 14.2119 9.84257C13.8487 9.97917 13.4587 10.0294 13.0728 9.98915C12.6868 9.94894 12.3156 9.81946 11.9883 9.61094M14.1667 12.5026C15.0507 12.5026 15.8986 12.8538 16.5237 13.4789C17.1488 14.104 17.5 14.9519 17.5 15.8359V16.6693H14.71M10 6.2526C10 7.86343 8.69416 9.16927 7.08333 9.16927C5.4725 9.16927 4.16667 7.86343 4.16667 6.2526C4.16667 4.64177 5.4725 3.33594 7.08333 3.33594C8.69416 3.33594 10 4.64177 10 6.2526ZM5.83333 11.6693H8.33333C9.21739 11.6693 10.0652 12.0205 10.6904 12.6456C11.3155 13.2707 11.6667 14.1185 11.6667 15.0026V16.6693H2.5V15.0026C2.5 14.1185 2.85119 13.2707 3.47631 12.6456C4.10143 12.0205 4.94928 11.6693 5.83333 11.6693Z" stroke="#2F2F38" stroke-width="1.2" stroke-linecap="round" stroke-linejoin="round"/>
</svg>
