<svg width="16" height="17" viewBox="0 0 16 17" fill="none" xmlns="http://www.w3.org/2000/svg">
<path d="M14.6673 8.50065C14.6673 4.81875 11.6825 1.83398 8.00065 1.83398C4.31875 1.83398 1.33398 4.81875 1.33398 8.50065C1.33398 12.1825 4.31875 15.1673 8.00065 15.1673C11.6825 15.1673 14.6673 12.1825 14.6673 8.50065Z" stroke="white"/>
<path d="M7.99841 8.5L7.99414 8.5001" stroke="white" stroke-linecap="round" stroke-linejoin="round"/>
<path d="M6.11922 7.46943L5.08798 10.569C4.91462 11.09 5.41022 11.5855 5.9312 11.412L9.03842 10.3772C9.43702 10.2444 9.74969 9.93163 9.88229 9.53297L10.914 6.43095C11.0874 5.90974 10.5914 5.41427 10.0704 5.58819L6.96222 6.62563C6.56406 6.75853 6.25173 7.07116 6.11922 7.46943Z" stroke="white" stroke-linejoin="round"/>
</svg>
