<svg width="20" height="21" viewBox="0 0 20 21" fill="none" xmlns="http://www.w3.org/2000/svg">
<path d="M8.33398 12.1673H11.6673M10.0007 13.834V10.5007M4.16732 7.16732H15.834C16.2942 7.16732 16.6673 7.54041 16.6673 8.00065V16.334C16.6673 16.7942 16.2942 17.1673 15.834 17.1673H4.16732C3.70708 17.1673 3.33398 16.7942 3.33398 16.334V8.00065C3.33398 7.54041 3.70708 7.16732 4.16732 7.16732ZM8.70315 3.83398H4.16732C3.9463 3.83398 3.73434 3.92178 3.57806 4.07806C3.42178 4.23434 3.33398 4.4463 3.33398 4.66732V7.16732H11.6198L9.36982 4.16732C9.2922 4.06382 9.19154 3.97982 9.07583 3.92196C8.96012 3.86411 8.83252 3.83398 8.70315 3.83398Z" stroke="#2F2F38" stroke-width="1.5" stroke-linecap="round" stroke-linejoin="round"/>
</svg>
