<svg width="20" height="20" viewBox="0 0 20 20" fill="none" xmlns="http://www.w3.org/2000/svg">
<path d="M3.33325 6.66927V15.8359C3.33325 16.057 3.42105 16.2689 3.57733 16.4252C3.73361 16.5815 3.94557 16.6693 4.16659 16.6693H15.8333C16.0543 16.6693 16.2662 16.5815 16.4225 16.4252C16.5788 16.2689 16.6666 16.057 16.6666 15.8359V7.5026C16.6666 7.28159 16.5788 7.06963 16.4225 6.91335C16.2662 6.75707 16.0543 6.66927 15.8333 6.66927H3.33325ZM3.33325 6.66927V4.16927C3.33325 3.94826 3.42105 3.7363 3.57733 3.58002C3.73361 3.42374 3.94557 3.33594 4.16659 3.33594H8.70242C8.83179 3.33594 8.95938 3.36606 9.0751 3.42391C9.19081 3.48177 9.29146 3.56577 9.36909 3.66927L11.6191 6.66927H3.33325Z" stroke="white" stroke-width="1.2" stroke-linecap="round" stroke-linejoin="round"/>
</svg>
