<svg width="80" height="80" viewBox="0 0 80 80" fill="none" xmlns="http://www.w3.org/2000/svg">
<rect x="0.5" y="0.5" width="79" height="79" rx="39.5" fill="#3B82F6"/>
<rect x="0.5" y="0.5" width="79" height="79" rx="39.5" stroke="#D1D5DB"/>
<path d="M40.928 51.384C38.6667 51.384 36.6507 50.8933 34.88 49.912C33.1307 48.9093 31.7547 47.544 30.752 45.816C29.7493 44.0667 29.248 42.072 29.248 39.832C29.248 37.5493 29.7493 35.544 30.752 33.816C31.7547 32.0667 33.1307 30.7013 34.88 29.72C36.6507 28.7173 38.6667 28.216 40.928 28.216C42.2293 28.216 43.4453 28.4187 44.576 28.824C45.728 29.2293 46.7627 29.784 47.68 30.488C48.5973 31.1707 49.344 31.9707 49.92 32.888L46.912 34.808C46.5067 34.1893 45.984 33.6347 45.344 33.144C44.704 32.6533 44 32.28 43.232 32.024C42.4853 31.7467 41.7173 31.608 40.928 31.608C39.392 31.608 38.0267 31.96 36.832 32.664C35.6587 33.368 34.7307 34.3387 34.048 35.576C33.3653 36.792 33.024 38.2107 33.024 39.832C33.024 41.4107 33.3547 42.8187 34.016 44.056C34.6987 45.2933 35.6373 46.264 36.832 46.968C38.048 47.672 39.4453 48.024 41.024 48.024C42.2613 48.024 43.3707 47.768 44.352 47.256C45.3333 46.744 46.1013 46.0293 46.656 45.112C47.232 44.1947 47.52 43.1387 47.52 41.944L51.072 41.496C51.072 43.5227 50.6347 45.2827 49.76 46.776C48.9067 48.248 47.712 49.3893 46.176 50.2C44.6613 50.9893 42.912 51.384 40.928 51.384ZM42.144 42.232V39.224H51.072V41.72L49.088 42.232H42.144Z" fill="#F9FAFB"/>
</svg>
