<svg width="20" height="20" viewBox="0 0 20 20" fill="none" xmlns="http://www.w3.org/2000/svg">
<path fill-rule="evenodd" clip-rule="evenodd" d="M9.59442 7.8651C9.16917 7.65434 8.66984 7.65434 8.24453 7.8651C8.01732 7.97769 7.77435 8.22166 7.58242 8.41445C7.38963 8.60637 7.14566 8.84937 7.03307 9.07653C6.82231 9.50187 6.82231 10.0012 7.03307 10.4265C7.14566 10.6537 7.3401 10.8473 7.53289 11.0392L7.58242 11.0886L14.7928 18.2991C14.9848 18.492 15.1783 18.6864 15.4056 18.799C15.8308 19.0097 16.3302 19.0097 16.7555 18.799C16.9827 18.6864 17.2257 18.4425 17.4176 18.2496C17.6104 18.0577 17.8543 17.8147 17.9669 17.5875C18.1777 17.1622 18.1777 16.6629 17.9669 16.2376C17.8543 16.0104 17.6599 15.8168 17.4671 15.6249L10.2566 8.41445L10.2072 8.36495C10.0153 8.17213 9.82167 7.97769 9.59442 7.8651ZM8.46659 9.29862C8.59359 9.17162 8.67075 9.09487 8.73192 9.0402C8.79317 8.9762 8.95409 8.88662 9.10767 9.0402C9.16892 9.09487 9.246 9.17162 9.373 9.29862L10.7213 10.6469L9.81492 11.5534L8.46659 10.205C8.33959 10.078 8.26284 10.001 8.20819 9.9397C8.05605 9.78753 8.1448 9.62578 8.20819 9.56395C8.26284 9.50278 8.33959 9.42562 8.46659 9.29862Z" fill="#6B7280"/>
<path d="M14.1673 1.04297C14.4288 1.04297 14.6627 1.2058 14.7535 1.45107L14.9992 2.11491C15.3411 3.039 15.4574 3.31492 15.6556 3.51307C15.8537 3.71121 16.1297 3.82756 17.0537 4.1695L17.7176 4.41514C17.9628 4.5059 18.1257 4.73978 18.1257 5.0013C18.1257 5.26283 17.9628 5.4967 17.7176 5.58746L17.0537 5.8331C16.1297 6.17505 15.8537 6.29139 15.6556 6.48954C15.4574 6.68769 15.3411 6.9636 14.9992 7.8877L14.7535 8.55155C14.6627 8.7968 14.4288 8.95964 14.1673 8.95964C13.9058 8.95964 13.6719 8.7968 13.5812 8.55155L13.3355 7.8877C12.9936 6.9636 12.8772 6.68769 12.6791 6.48954C12.4809 6.29139 12.205 6.17505 11.2809 5.8331L10.6171 5.58746C10.3718 5.4967 10.209 5.26283 10.209 5.0013C10.209 4.73978 10.3718 4.5059 10.6171 4.41514L11.2809 4.1695C12.205 3.82756 12.4809 3.71121 12.6791 3.51307C12.8772 3.31492 12.9936 3.039 13.3355 2.11491L13.5812 1.45107C13.6719 1.2058 13.9058 1.04297 14.1673 1.04297Z" fill="#6B7280"/>
<path d="M5 2.70703C5.26152 2.70703 5.4954 2.86986 5.58616 3.11513L5.77039 3.61301C6.03181 4.31949 6.10789 4.4866 6.22667 4.60537C6.34543 4.72414 6.51254 4.80022 7.21903 5.06164L7.7169 5.24587C7.96217 5.33663 8.125 5.57051 8.125 5.83203C8.125 6.09356 7.96217 6.32743 7.7169 6.41819L7.21902 6.60242C6.51254 6.86384 6.34543 6.93992 6.22666 7.0587C6.10789 7.17746 6.03181 7.34457 5.77039 8.05106L5.58616 8.54895C5.4954 8.7942 5.26152 8.95703 5 8.95703C4.73847 8.95703 4.5046 8.7942 4.41384 8.54895L4.22961 8.05106C3.96819 7.34457 3.89211 7.17746 3.77333 7.0587C3.65457 6.93992 3.48746 6.86384 2.78097 6.60242L2.2831 6.41819C2.03783 6.32743 1.875 6.09356 1.875 5.83203C1.875 5.57051 2.03783 5.33663 2.2831 5.24587L2.78097 5.06164C3.48746 4.80022 3.65457 4.72414 3.77333 4.60536C3.89211 4.4866 3.96819 4.31949 4.22961 3.61301L4.41384 3.11513C4.5046 2.86986 4.73847 2.70703 5 2.70703Z" fill="#6B7280"/>
</svg>
