<svg width="96" height="96" viewBox="0 0 96 96" fill="none" xmlns="http://www.w3.org/2000/svg">
<path d="M96 48C96 74.5097 74.5097 96 48 96C21.4903 96 0 74.5097 0 48C0 21.4903 21.4903 0 48 0C74.5097 0 96 21.4903 96 48ZM4.98273 48C4.98273 71.7578 24.2422 91.0173 48 91.0173C71.7578 91.0173 91.0173 71.7578 91.0173 48C91.0173 24.2422 71.7578 4.98273 48 4.98273C24.2422 4.98273 4.98273 24.2422 4.98273 48Z" fill="#E5E7EB"/>
<rect x="8.5" y="8.5" width="79" height="79" rx="39.5" fill="#3B82F6"/>
<rect x="8.5" y="8.5" width="79" height="79" rx="39.5" stroke="#D1D5DB"/>
<path d="M48.928 59.384C46.6667 59.384 44.6507 58.8933 42.88 57.912C41.1307 56.9093 39.7547 55.544 38.752 53.816C37.7493 52.0667 37.248 50.072 37.248 47.832C37.248 45.5493 37.7493 43.544 38.752 41.816C39.7547 40.0667 41.1307 38.7013 42.88 37.72C44.6507 36.7173 46.6667 36.216 48.928 36.216C50.2293 36.216 51.4453 36.4187 52.576 36.824C53.728 37.2293 54.7627 37.784 55.68 38.488C56.5973 39.1707 57.344 39.9707 57.92 40.888L54.912 42.808C54.5067 42.1893 53.984 41.6347 53.344 41.144C52.704 40.6533 52 40.28 51.232 40.024C50.4853 39.7467 49.7173 39.608 48.928 39.608C47.392 39.608 46.0267 39.96 44.832 40.664C43.6587 41.368 42.7307 42.3387 42.048 43.576C41.3653 44.792 41.024 46.2107 41.024 47.832C41.024 49.4107 41.3547 50.8187 42.016 52.056C42.6987 53.2933 43.6373 54.264 44.832 54.968C46.048 55.672 47.4453 56.024 49.024 56.024C50.2613 56.024 51.3707 55.768 52.352 55.256C53.3333 54.744 54.1013 54.0293 54.656 53.112C55.232 52.1947 55.52 51.1387 55.52 49.944L59.072 49.496C59.072 51.5227 58.6347 53.2827 57.76 54.776C56.9067 56.248 55.712 57.3893 54.176 58.2C52.6613 58.9893 50.912 59.384 48.928 59.384ZM50.144 50.232V47.224H59.072V49.72L57.088 50.232H50.144Z" fill="#F9FAFB"/>
<path d="M48 2.49136C48 1.11543 49.1163 -0.00674438 50.4904 0.0645905C62.3137 0.678391 73.5281 5.64587 81.9411 14.0589C90.3541 22.4719 95.3216 33.6863 95.9354 45.5096C96.0067 46.8837 94.8846 48 93.5086 48C92.1327 48 91.0248 46.8833 90.9452 45.5097C90.3367 35.0089 85.8962 25.0605 78.4178 17.5822C70.9394 10.1038 60.9911 5.6633 50.4903 5.0548C49.1166 4.9752 48 3.8673 48 2.49136Z" fill="#9CA3AF"/>
</svg>
