<svg width="16" height="14" viewBox="0 0 16 14" fill="none" xmlns="http://www.w3.org/2000/svg">
<path d="M14.8002 2.20312V5.80312H11.2002" stroke="#8333D0" stroke-width="1.5" stroke-linecap="round" stroke-linejoin="round"/>
<path d="M1.6001 11.8031V8.20312H5.2001" stroke="#8333D0" stroke-width="1.5" stroke-linecap="round" stroke-linejoin="round"/>
<path d="M3.1061 5.20014C3.4104 4.34021 3.92758 3.57138 4.60938 2.96539C5.29118 2.3594 6.11538 1.936 7.00507 1.7347C7.89476 1.53339 8.82095 1.56075 9.69721 1.81421C10.5735 2.06767 11.3712 2.53897 12.0161 3.18414L14.8001 5.80014M1.6001 8.20014L4.3841 10.8161C5.02895 11.4613 5.82672 11.9326 6.70298 12.1861C7.57924 12.4395 8.50543 12.4669 9.39513 12.2656C10.2848 12.0643 11.109 11.6409 11.7908 11.0349C12.4726 10.4289 12.9898 9.66007 13.2941 8.80014" stroke="#8333D0" stroke-width="1.5" stroke-linecap="round" stroke-linejoin="round"/>
</svg>
