<svg width="16" height="14" viewBox="0 0 16 14" fill="none" xmlns="http://www.w3.org/2000/svg">
<path d="M14.7992 2.20007V5.80007H11.1992" stroke="#374151" stroke-width="1.5" stroke-linecap="round" stroke-linejoin="round"/>
<path d="M1.59961 11.8001V8.20007H5.19961" stroke="#374151" stroke-width="1.5" stroke-linecap="round" stroke-linejoin="round"/>
<path d="M3.10561 5.20002C3.40991 4.34009 3.92709 3.57126 4.60889 2.96527C5.29069 2.35928 6.11489 1.93588 7.00458 1.73458C7.89427 1.53327 8.82046 1.56063 9.69672 1.81409C10.573 2.06754 11.3708 2.53885 12.0156 3.18402L14.7996 5.80002M1.59961 8.20002L4.38361 10.816C5.02846 11.4612 5.82623 11.9325 6.70249 12.186C7.57876 12.4394 8.50494 12.4668 9.39464 12.2655C10.2843 12.0642 11.1085 11.6408 11.7903 11.0348C12.4721 10.4288 12.9893 9.65995 13.2936 8.80002" stroke="#374151" stroke-width="1.5" stroke-linecap="round" stroke-linejoin="round"/>
</svg>
