<svg width="20" height="20" viewBox="0 0 20 20" fill="none" xmlns="http://www.w3.org/2000/svg">
<path d="M16.9939 6.69437L15.5381 5.43014C14.4893 4.51924 14.0781 4.02924 13.5101 4.20246C12.8018 4.41846 13.035 5.78138 13.035 6.2415C11.9338 6.2415 10.789 6.15681 9.70358 6.33327C6.12044 6.91582 5 9.46514 5 12.2117C6.01414 11.5901 7.02728 10.8968 8.24617 10.6087C9.76767 10.2491 11.4669 10.4206 13.035 10.4206C13.035 10.8808 12.8018 12.2437 13.5101 12.4597C14.1537 12.656 14.4893 12.1429 15.5381 11.2321L16.9939 9.9678C17.8868 9.19239 18.3333 8.80464 18.3333 8.33109C18.3333 7.85755 17.8868 7.46983 16.9939 6.69437Z" stroke="#141B34" stroke-width="1.5" stroke-linecap="round" stroke-linejoin="round"/>
<path d="M8.80568 2.5C5.58881 2.50578 3.9043 2.5846 2.82777 3.65894C1.66602 4.81835 1.66602 6.68438 1.66602 10.4164C1.66602 14.1485 1.66602 16.0145 2.82777 17.1739C3.98952 18.3333 5.85933 18.3333 9.59893 18.3333C13.3386 18.3333 15.2084 18.3333 16.3702 17.1739C17.179 16.3667 17.4247 15.2169 17.4993 13.3333" stroke="#141B34" stroke-width="1.5" stroke-linecap="round" stroke-linejoin="round"/>
</svg>
