<svg width="21" height="20" viewBox="0 0 21 20" fill="none" xmlns="http://www.w3.org/2000/svg">
<path d="M7.99996 1.66699H2.99996C2.53973 1.66699 2.16663 2.04009 2.16663 2.50033V7.50033C2.16663 7.96057 2.53973 8.33366 2.99996 8.33366H7.99996C8.4602 8.33366 8.83329 7.96057 8.83329 7.50033V2.50033C8.83329 2.04009 8.4602 1.66699 7.99996 1.66699Z" stroke="#2A2A33" stroke-width="1.5" stroke-linejoin="round"/>
<path d="M18 1.66699H13C12.5397 1.66699 12.1666 2.04009 12.1666 2.50033V7.50033C12.1666 7.96057 12.5397 8.33366 13 8.33366H18C18.4602 8.33366 18.8333 7.96057 18.8333 7.50033V2.50033C18.8333 2.04009 18.4602 1.66699 18 1.66699Z" stroke="#2A2A33" stroke-width="1.5" stroke-linejoin="round"/>
<path d="M7.99996 11.667H2.99996C2.53973 11.667 2.16663 12.0401 2.16663 12.5003V17.5003C2.16663 17.9606 2.53973 18.3337 2.99996 18.3337H7.99996C8.4602 18.3337 8.83329 17.9606 8.83329 17.5003V12.5003C8.83329 12.0401 8.4602 11.667 7.99996 11.667Z" stroke="#2A2A33" stroke-width="1.5" stroke-linejoin="round"/>
<path d="M18 11.667H13C12.5397 11.667 12.1666 12.0401 12.1666 12.5003V17.5003C12.1666 17.9606 12.5397 18.3337 13 18.3337H18C18.4602 18.3337 18.8333 17.9606 18.8333 17.5003V12.5003C18.8333 12.0401 18.4602 11.667 18 11.667Z" stroke="#2A2A33" stroke-width="1.5" stroke-linejoin="round"/>
</svg>
