<svg width="125" height="124" viewBox="0 0 125 124" fill="none" xmlns="http://www.w3.org/2000/svg">
<rect x="0.5" width="124" height="124" rx="62" fill="#F5F5FA"/>
<path d="M82.25 49.75H63.7241L57.75 43.776C57.4262 43.4495 57.0407 43.1907 56.616 43.0146C56.1912 42.8385 55.7357 42.7485 55.2759 42.75H43.75C42.8217 42.75 41.9315 43.1188 41.2751 43.7751C40.6187 44.4315 40.25 45.3218 40.25 46.25V77.8856C40.2512 78.7776 40.606 79.6326 41.2367 80.2633C41.8674 80.894 42.7224 81.2489 43.6144 81.25H82.4447C83.321 81.2489 84.161 80.9002 84.7806 80.2806C85.4002 79.661 85.7488 78.821 85.75 77.9447V53.25C85.75 52.3218 85.3812 51.4315 84.7249 50.7751C84.0685 50.1188 83.1783 49.75 82.25 49.75ZM55.2759 46.25L58.7759 49.75H43.75V46.25H55.2759ZM82.25 77.75H43.75V53.25H82.25V77.75ZM63 58.5C63.4641 58.5 63.9093 58.6844 64.2374 59.0126C64.5656 59.3408 64.75 59.7859 64.75 60.25V63.75H68.25C68.7141 63.75 69.1593 63.9344 69.4874 64.2626C69.8156 64.5908 70 65.0359 70 65.5C70 65.9641 69.8156 66.4093 69.4874 66.7375C69.1593 67.0656 68.7141 67.25 68.25 67.25H64.75V70.75C64.75 71.2141 64.5656 71.6593 64.2374 71.9875C63.9093 72.3156 63.4641 72.5 63 72.5C62.5359 72.5 62.0908 72.3156 61.7626 71.9875C61.4344 71.6593 61.25 71.2141 61.25 70.75V67.25H57.75C57.2859 67.25 56.8408 67.0656 56.5126 66.7375C56.1844 66.4093 56 65.9641 56 65.5C56 65.0359 56.1844 64.5908 56.5126 64.2626C56.8408 63.9344 57.2859 63.75 57.75 63.75H61.25V60.25C61.25 59.7859 61.4344 59.3408 61.7626 59.0126C62.0908 58.6844 62.5359 58.5 63 58.5Z" fill="#73737F"/>
<path d="M25.6803 25.364C25.7901 25.0672 26.2099 25.0672 26.3197 25.364L27.9713 29.8273C28.0058 29.9206 28.0794 29.9942 28.1727 30.0287L32.636 31.6803C32.9328 31.7901 32.9328 32.2099 32.636 32.3197L28.1727 33.9713C28.0794 34.0058 28.0058 34.0794 27.9713 34.1727L26.3197 38.636C26.2099 38.9328 25.7901 38.9328 25.6803 38.636L24.0287 34.1727C23.9942 34.0794 23.9206 34.0058 23.8273 33.9713L19.364 32.3197C19.0672 32.2099 19.0672 31.7901 19.364 31.6803L23.8273 30.0287C23.9206 29.9942 23.9942 29.9206 24.0287 29.8273L25.6803 25.364Z" fill="#A6A6B5"/>
<path d="M101.68 64.864C101.79 64.5672 102.21 64.5672 102.32 64.864L103.971 69.3273C104.006 69.4206 104.079 69.4942 104.173 69.5287L108.636 71.1803C108.933 71.2901 108.933 71.7099 108.636 71.8197L104.173 73.4713C104.079 73.5058 104.006 73.5794 103.971 73.6727L102.32 78.136C102.21 78.4328 101.79 78.4328 101.68 78.136L100.029 73.6727C99.9942 73.5794 99.9206 73.5058 99.8273 73.4713L95.364 71.8197C95.0672 71.7099 95.0672 71.2901 95.364 71.1803L99.8273 69.5287C99.9206 69.4942 99.9942 69.4206 100.029 69.3273L101.68 64.864Z" fill="#A6A6B5"/>
<path d="M82.3721 21.8456C82.416 21.7269 82.584 21.7269 82.6279 21.8456L83.2885 23.6309C83.3023 23.6682 83.3318 23.6977 83.3691 23.7115L85.1544 24.3721C85.2731 24.416 85.2731 24.584 85.1544 24.6279L83.3691 25.2885C83.3318 25.3023 83.3023 25.3318 83.2885 25.3691L82.6279 27.1544C82.584 27.2731 82.416 27.2731 82.3721 27.1544L81.7115 25.3691C81.6977 25.3318 81.6682 25.3023 81.6309 25.2885L79.8456 24.6279C79.7269 24.584 79.7269 24.416 79.8456 24.3721L81.6309 23.7115C81.6682 23.6977 81.6977 23.6682 81.7115 23.6309L82.3721 21.8456Z" fill="#A6A6B5"/>
<path d="M56.3721 91.3456C56.416 91.2269 56.584 91.2269 56.6279 91.3456L57.2885 93.1309C57.3023 93.1682 57.3318 93.1977 57.3691 93.2115L59.1544 93.8721C59.2731 93.916 59.2731 94.084 59.1544 94.1279L57.3691 94.7885C57.3318 94.8023 57.3023 94.8318 57.2885 94.8691L56.6279 96.6544C56.584 96.7731 56.416 96.7731 56.3721 96.6544L55.7115 94.8691C55.6977 94.8318 55.6682 94.8023 55.6309 94.7885L53.8456 94.1279C53.7269 94.084 53.7269 93.916 53.8456 93.8721L55.6309 93.2115C55.6682 93.1977 55.6977 93.1682 55.7115 93.1309L56.3721 91.3456Z" fill="#A6A6B5"/>
<path d="M73.7655 28.6336C73.8461 28.416 74.1539 28.416 74.2345 28.6336L75.4456 31.9067C75.4709 31.9751 75.5249 32.0291 75.5933 32.0544L78.8664 33.2655C79.084 33.3461 79.084 33.6539 78.8664 33.7345L75.5933 34.9456C75.5249 34.9709 75.4709 35.0249 75.4456 35.0933L74.2345 38.3664C74.1539 38.584 73.8461 38.584 73.7655 38.3664L72.5544 35.0933C72.5291 35.0249 72.4751 34.9709 72.4067 34.9456L69.1336 33.7345C68.916 33.6539 68.916 33.3461 69.1336 33.2655L72.4067 32.0544C72.4751 32.0291 72.5291 31.9751 72.5544 31.9067L73.7655 28.6336Z" fill="#A6A6B5"/>
</svg>
