<svg width="28" height="28" viewBox="0 0 28 28" fill="none" xmlns="http://www.w3.org/2000/svg">
<rect width="28" height="28" rx="7" fill="#8333D0"/>
<path d="M18.5629 16.3788C18.5629 15.3908 18.4065 14.527 18.0939 13.7875C17.7765 13.0479 17.3099 12.4741 16.6941 12.0658C16.0782 11.6635 15.325 11.4624 14.4344 11.4624L8.07483 11.4624C8.07483 12.8543 9.19974 13.9827 10.5874 13.9827L14.2852 13.9827C14.7258 13.9827 15.1047 14.036 15.4221 14.1425C15.7348 14.249 15.9906 14.4057 16.1895 14.6128C16.3885 14.8258 16.5354 15.0802 16.6301 15.376C16.7201 15.6718 16.7651 16.0091 16.7651 16.3877C16.7651 16.7486 16.7201 17.071 16.6301 17.355C16.5354 17.6449 16.3885 17.8905 16.1895 18.0916C15.9906 18.2928 15.7348 18.4466 15.4221 18.5531C15.1047 18.6655 14.7258 18.7217 14.2852 18.7217H10.6016C9.21395 18.7217 8.08904 19.8501 8.08904 21.2421L14.4344 21.2421C15.3155 21.2421 16.064 21.038 16.6798 20.6297C17.2957 20.2215 17.7646 19.6506 18.0868 18.9169C18.4042 18.1892 18.5629 17.3432 18.5629 16.3788Z" fill="#BC78FF"/>
<path d="M9.66669 11.5776C9.66669 10.5925 9.8196 9.73132 10.1254 8.99398C10.4359 8.25664 10.8923 7.68446 11.4946 7.27745C12.097 6.87634 12.8337 6.67578 13.7048 6.67578L19.9254 6.67578C19.9254 8.06359 18.8251 9.18864 17.4678 9.18864L13.8508 9.18864C13.4199 9.18864 13.0492 9.24172 12.7387 9.3479C12.4329 9.45408 12.1827 9.61039 11.9881 9.81685C11.7935 10.0292 11.6499 10.2828 11.5572 10.5778C11.4691 10.8727 11.4251 11.2089 11.4251 11.5865C11.4251 11.9463 11.4691 12.2678 11.5572 12.5509C11.6499 12.8399 11.7935 13.0847 11.9881 13.2853C12.1827 13.4859 12.4329 13.6392 12.7387 13.7454C13.0492 13.8575 13.4199 13.9135 13.8508 13.9135L16.4763 14.1217C17.8336 14.1217 18.5104 15.0386 18.5104 16.4264H13.7048C12.843 16.4264 12.1109 16.2229 11.5085 15.8159C10.9062 15.4088 10.4474 14.8396 10.1324 14.1082C9.82192 13.3826 9.66669 12.5391 9.66669 11.5776Z" fill="url(#paint0_linear_438_6143)"/>
<defs>
<linearGradient id="paint0_linear_438_6143" x1="23.3341" y1="6.35127" x2="15.3937" y2="13.6051" gradientUnits="userSpaceOnUse">
<stop stop-color="white"/>
<stop offset="0.286429" stop-color="white"/>
</linearGradient>
</defs>
</svg>
