<svg width="102" height="28" viewBox="0 0 102 28" fill="none" xmlns="http://www.w3.org/2000/svg">
<rect width="28" height="28" rx="7" fill="#8333D0"/>
<path d="M18.5629 16.3788C18.5629 15.3908 18.4065 14.527 18.0939 13.7875C17.7765 13.0479 17.3099 12.4741 16.6941 12.0658C16.0782 11.6635 15.325 11.4624 14.4344 11.4624L8.07483 11.4624C8.07483 12.8543 9.19974 13.9827 10.5874 13.9827L14.2852 13.9827C14.7258 13.9827 15.1047 14.036 15.4221 14.1425C15.7348 14.249 15.9906 14.4057 16.1895 14.6128C16.3885 14.8258 16.5354 15.0802 16.6301 15.376C16.7201 15.6718 16.7651 16.0091 16.7651 16.3877C16.7651 16.7486 16.7201 17.071 16.6301 17.355C16.5354 17.6449 16.3885 17.8905 16.1895 18.0916C15.9906 18.2928 15.7348 18.4466 15.4221 18.5531C15.1047 18.6655 14.7258 18.7217 14.2852 18.7217H10.6016C9.21395 18.7217 8.08904 19.8501 8.08904 21.2421L14.4344 21.2421C15.3155 21.2421 16.064 21.038 16.6798 20.6297C17.2957 20.2215 17.7646 19.6506 18.0868 18.9169C18.4042 18.1892 18.5629 17.3432 18.5629 16.3788Z" fill="#BC78FF"/>
<path d="M9.66669 11.5776C9.66669 10.5925 9.8196 9.73132 10.1254 8.99398C10.4359 8.25664 10.8923 7.68446 11.4946 7.27745C12.097 6.87634 12.8337 6.67578 13.7048 6.67578L19.9254 6.67578C19.9254 8.06359 18.8251 9.18864 17.4678 9.18864L13.8508 9.18864C13.4199 9.18864 13.0492 9.24172 12.7387 9.3479C12.4329 9.45408 12.1827 9.61039 11.9881 9.81685C11.7935 10.0292 11.6499 10.2828 11.5572 10.5778C11.4691 10.8727 11.4251 11.2089 11.4251 11.5865C11.4251 11.9463 11.4691 12.2678 11.5572 12.5509C11.6499 12.8399 11.7935 13.0847 11.9881 13.2853C12.1827 13.4859 12.4329 13.6392 12.7387 13.7454C13.0492 13.8575 13.4199 13.9135 13.8508 13.9135L16.4763 14.1217C17.8336 14.1217 18.5104 15.0386 18.5104 16.4264H13.7048C12.843 16.4264 12.1109 16.2229 11.5085 15.8159C10.9062 15.4088 10.4474 14.8396 10.1324 14.1082C9.82192 13.3826 9.66669 12.5391 9.66669 11.5776Z" fill="url(#paint0_linear_438_6142)"/>
<path d="M48.1142 13.6018L45.1313 13.7854C45.0803 13.5304 44.9706 13.301 44.8024 13.097C44.6341 12.888 44.4123 12.7222 44.1369 12.5999C43.8667 12.4724 43.5429 12.4087 43.1656 12.4087C42.6608 12.4087 42.235 12.5157 41.8882 12.7299C41.5415 12.939 41.3681 13.2194 41.3681 13.5712C41.3681 13.8517 41.4803 14.0888 41.7047 14.2826C41.929 14.4763 42.314 14.6318 42.8596 14.7491L44.9859 15.1774C46.1281 15.412 46.9797 15.7893 47.5406 16.3094C48.1015 16.8295 48.3819 17.5128 48.3819 18.3593C48.3819 19.1292 48.155 19.8049 47.7012 20.3861C47.2525 20.9674 46.6355 21.4213 45.8502 21.7476C45.0701 22.0688 44.1701 22.2295 43.1503 22.2295C41.595 22.2295 40.356 21.9057 39.433 21.2581C38.5152 20.6054 37.9773 19.7182 37.8192 18.5964L41.024 18.4281C41.1208 18.9023 41.3554 19.2643 41.7276 19.5142C42.0999 19.759 42.5766 19.8813 43.1579 19.8813C43.729 19.8813 44.1879 19.7717 44.5347 19.5524C44.8865 19.3281 45.065 19.04 45.0701 18.6882C45.065 18.3924 44.94 18.1502 44.6953 17.9615C44.4505 17.7678 44.0732 17.6199 43.5633 17.5179L41.5288 17.1125C40.3815 16.8831 39.5274 16.4854 38.9665 15.9194C38.4107 15.3534 38.1328 14.6318 38.1328 13.7548C38.1328 13.0001 38.3367 12.35 38.7447 11.8044C39.1577 11.2588 39.7364 10.8381 40.4809 10.5424C41.2305 10.2466 42.1075 10.0988 43.112 10.0988C44.5959 10.0988 45.7635 10.4124 46.6151 11.0396C47.4717 11.6667 47.9714 12.5208 48.1142 13.6018ZM52.4452 26.4056C52.0322 26.4056 51.6447 26.3725 51.2826 26.3062C50.9257 26.245 50.63 26.1659 50.3954 26.0691L51.1297 23.6368C51.5121 23.7541 51.8563 23.8178 52.1622 23.828C52.4733 23.8382 52.741 23.7668 52.9653 23.6139C53.1948 23.4609 53.3809 23.2008 53.5237 22.8337L53.7149 22.3365L49.5005 10.2517H52.9271L55.3593 18.8794H55.4817L57.9369 10.2517H61.3864L56.8202 23.2697C56.601 23.902 56.3027 24.4527 55.9253 24.9218C55.5531 25.396 55.0814 25.7606 54.5104 26.0155C53.9393 26.2756 53.2509 26.4056 52.4452 26.4056ZM66.3121 15.208V22H63.0538V10.2517H66.1592V12.3245H66.2968C66.5569 11.6412 66.9929 11.1007 67.6048 10.703C68.2166 10.3002 68.9586 10.0988 69.8305 10.0988C70.6464 10.0988 71.3577 10.2772 71.9645 10.6342C72.5713 10.9911 73.0429 11.501 73.3795 12.1639C73.716 12.8217 73.8843 13.6069 73.8843 14.5197V22H70.626V15.101C70.6311 14.382 70.4475 13.8211 70.0753 13.4183C69.703 13.0103 69.1906 12.8064 68.5379 12.8064C68.0994 12.8064 67.7118 12.9007 67.3753 13.0894C67.0439 13.278 66.7838 13.5534 66.5951 13.9154C66.4116 14.2724 66.3172 14.7032 66.3121 15.208ZM81.7604 22.2295C80.557 22.2295 79.5219 21.9745 78.6551 21.4646C77.7933 20.9496 77.1305 20.2357 76.6664 19.323C76.2075 18.4103 75.9781 17.3598 75.9781 16.1718C75.9781 14.9684 76.2101 13.9129 76.6741 13.0052C77.1432 12.0925 77.8086 11.3812 78.6704 10.8713C79.5321 10.3563 80.557 10.0988 81.7451 10.0988C82.77 10.0988 83.6675 10.2849 84.4374 10.6571C85.2074 11.0294 85.8167 11.552 86.2654 12.2251C86.7142 12.8982 86.9615 13.6885 87.0073 14.5962H83.9326C83.8459 14.0098 83.6165 13.5381 83.2442 13.1812C82.8771 12.8191 82.3952 12.6381 81.7987 12.6381C81.2938 12.6381 80.8528 12.7758 80.4754 13.0511C80.1032 13.3214 79.8126 13.7166 79.6035 14.2367C79.3944 14.7568 79.2899 15.3865 79.2899 16.1259C79.2899 16.8754 79.3919 17.5128 79.5959 18.038C79.8049 18.5632 80.0981 18.9635 80.4754 19.2389C80.8528 19.5142 81.2938 19.6519 81.7987 19.6519C82.1709 19.6519 82.5049 19.5754 82.8006 19.4224C83.1015 19.2694 83.3488 19.0476 83.5425 18.757C83.7414 18.4612 83.8714 18.1069 83.9326 17.6938H87.0073C86.9564 18.5913 86.7116 19.3816 86.2731 20.0649C85.8397 20.7431 85.2405 21.2734 84.4757 21.6558C83.7108 22.0382 82.8057 22.2295 81.7604 22.2295ZM96.6274 16.9978V10.2517H99.8857V22H96.7574V19.866H96.635C96.3699 20.5544 95.9288 21.1077 95.3118 21.5258C94.6999 21.9439 93.9529 22.153 93.0708 22.153C92.2855 22.153 91.5946 21.9745 90.998 21.6176C90.4014 21.2606 89.9349 20.7533 89.5983 20.0955C89.2669 19.4377 89.0986 18.6499 89.0935 17.7321V10.2517H92.3518V17.1508C92.3569 17.8443 92.543 18.3924 92.9102 18.7952C93.2773 19.1981 93.7694 19.3995 94.3863 19.3995C94.779 19.3995 95.1461 19.3102 95.4877 19.1318C95.8294 18.9482 96.1047 18.678 96.3138 18.321C96.5279 17.9641 96.6325 17.523 96.6274 16.9978Z" fill="#2A2A33"/>
<defs>
<linearGradient id="paint0_linear_438_6142" x1="23.3341" y1="6.35127" x2="15.3937" y2="13.6051" gradientUnits="userSpaceOnUse">
<stop stop-color="white"/>
<stop offset="0.286429" stop-color="white"/>
</linearGradient>
</defs>
</svg>
