<svg width="21" height="20" viewBox="0 0 21 20" fill="none" xmlns="http://www.w3.org/2000/svg">
<path d="M4.24996 18.25H5.08329V16.75H4.24996V18.25ZM5.08329 18.25C5.95773 18.25 6.66663 17.5411 6.66663 16.6667H5.16663C5.16663 16.7127 5.12932 16.75 5.08329 16.75V18.25ZM6.66663 16.6667V10H5.16663V16.6667H6.66663ZM6.66663 10C6.66663 9.12553 5.95773 8.41667 5.08329 8.41667V9.91667C5.12932 9.91667 5.16663 9.95397 5.16663 10H6.66663ZM5.08329 8.41667H4.24996V9.91667H5.08329V8.41667ZM4.24996 8.41667C3.37552 8.41667 2.66663 9.12553 2.66663 10H4.16663C4.16663 9.95397 4.20393 9.91667 4.24996 9.91667V8.41667ZM2.66663 10V16.6667H4.16663V10H2.66663ZM2.66663 16.6667C2.66663 17.5411 3.37552 18.25 4.24996 18.25V16.75C4.20393 16.75 4.16663 16.7127 4.16663 16.6667H2.66663ZM10.0833 18.2496H10.9166V16.7496H10.0833V18.2496ZM10.9166 18.2496C11.7911 18.2496 12.5 17.5407 12.5 16.6663H11C11 16.7123 10.9627 16.7496 10.9166 16.7496V18.2496ZM12.5 16.6663V11.6667H11V16.6663H12.5ZM12.5 11.6667C12.5 10.7922 11.7911 10.0833 10.9166 10.0833V11.5833C10.9627 11.5833 11 11.6206 11 11.6667H12.5ZM10.9166 10.0833H10.0833V11.5833H10.9166V10.0833ZM10.0833 10.0833C9.20883 10.0833 8.49996 10.7922 8.49996 11.6667H9.99996C9.99996 11.6206 10.0373 11.5833 10.0833 11.5833V10.0833ZM8.49996 11.6667V16.6663H9.99996V11.6667H8.49996ZM8.49996 16.6663C8.49996 17.5407 9.20883 18.2496 10.0833 18.2496V16.7496C10.0373 16.7496 9.99996 16.7123 9.99996 16.6663H8.49996ZM15.9166 18.25H16.75V16.75H15.9166V18.25ZM16.75 18.25C17.6244 18.25 18.3333 17.5411 18.3333 16.6667H16.8333C16.8333 16.7127 16.796 16.75 16.75 16.75V18.25ZM18.3333 16.6667V8.33333H16.8333V16.6667H18.3333ZM18.3333 8.33333C18.3333 7.4589 17.6244 6.75 16.75 6.75V8.25C16.796 8.25 16.8333 8.2873 16.8333 8.33333H18.3333ZM16.75 6.75H15.9166V8.25H16.75V6.75ZM15.9166 6.75C15.0422 6.75 14.3333 7.4589 14.3333 8.33333H15.8333C15.8333 8.2873 15.8706 8.25 15.9166 8.25V6.75ZM14.3333 8.33333V16.6667H15.8333V8.33333H14.3333ZM14.3333 16.6667C14.3333 17.5411 15.0422 18.25 15.9166 18.25V16.75C15.8706 16.75 15.8333 16.7127 15.8333 16.6667H14.3333ZM5.16663 5.41667C5.16663 5.69281 4.94277 5.91667 4.66663 5.91667V7.41667C5.7712 7.41667 6.66663 6.52124 6.66663 5.41667H5.16663ZM4.66663 5.91667C4.39048 5.91667 4.16663 5.69281 4.16663 5.41667H2.66663C2.66663 6.52124 3.56205 7.41667 4.66663 7.41667V5.91667ZM4.16663 5.41667C4.16663 5.14052 4.39048 4.91667 4.66663 4.91667V3.41667C3.56205 3.41667 2.66663 4.31209 2.66663 5.41667H4.16663ZM4.66663 4.91667C4.94277 4.91667 5.16663 5.14052 5.16663 5.41667H6.66663C6.66663 4.31209 5.7712 3.41667 4.66663 3.41667V4.91667ZM16.8333 3.75C16.8333 4.02614 16.6094 4.25 16.3333 4.25V5.75C17.4378 5.75 18.3333 4.85458 18.3333 3.75H16.8333ZM16.3333 4.25C16.0572 4.25 15.8333 4.02614 15.8333 3.75H14.3333C14.3333 4.85458 15.2288 5.75 16.3333 5.75V4.25ZM15.8333 3.75C15.8333 3.47386 16.0572 3.25 16.3333 3.25V1.75C15.2288 1.75 14.3333 2.64542 14.3333 3.75H15.8333ZM16.3333 3.25C16.6094 3.25 16.8333 3.47386 16.8333 3.75H18.3333C18.3333 2.64542 17.4378 1.75 16.3333 1.75V3.25ZM11 7.08333C11 7.35947 10.7761 7.58333 10.5 7.58333V9.08333C11.6045 9.08333 12.5 8.18791 12.5 7.08333H11ZM10.5 7.58333C10.2238 7.58333 9.99996 7.35947 9.99996 7.08333H8.49996C8.49996 8.18791 9.39542 9.08333 10.5 9.08333V7.58333ZM9.99996 7.08333C9.99996 6.8072 10.2238 6.58333 10.5 6.58333V5.08333C9.39542 5.08333 8.49996 5.97875 8.49996 7.08333H9.99996ZM10.5 6.58333C10.7761 6.58333 11 6.8072 11 7.08333H12.5C12.5 5.97875 11.6045 5.08333 10.5 5.08333V6.58333ZM5.66338 6.48113L9.09225 7.46083L9.50434 6.01854L6.07547 5.03885L5.66338 6.48113ZM11.9581 7.11407L15.6205 5.0213L14.8763 3.71894L11.2139 5.81171L11.9581 7.11407Z" fill="#73737F"/>
</svg>
