<svg width="21" height="20" viewBox="0 0 21 20" fill="none" xmlns="http://www.w3.org/2000/svg">
<path d="M10.7083 1.87533C6.10596 1.87533 2.375 5.60629 2.375 10.2087C2.375 14.811 6.10596 18.542 10.7083 18.542C15.3107 18.542 19.0417 14.811 19.0417 10.2087C19.0417 9.63791 18.9842 9.08049 18.875 8.54199M7.16667 12.5003C7.92677 13.5123 9.13692 14.167 10.5 14.167C11.8631 14.167 13.0732 13.5123 13.8333 12.5003M8.83333 7.91699H7.75593C7.37863 7.91699 7.01678 8.06688 6.75 8.33366M12.1667 7.91699H13.2441C13.6213 7.91699 13.9832 8.06688 14.25 8.33366M17.9168 1.88554C16.7527 1.29229 15.9167 2.09482 15.9167 2.09482C15.9167 2.09482 15.0807 1.29229 13.9164 1.88553C12.5063 2.60406 12.4051 5.41784 15.9167 6.66699C19.4283 5.41784 19.327 2.60406 17.9168 1.88554Z" stroke="#73737F" stroke-width="1.5" stroke-linecap="round" stroke-linejoin="round"/>
</svg>
