<svg width="33" height="34" viewBox="0 0 33 34" fill="none" xmlns="http://www.w3.org/2000/svg">
<path d="M30.5 17C30.5 18.8385 30.1379 20.659 29.4343 22.3576C28.7307 24.0561 27.6995 25.5995 26.3995 26.8995C25.0995 28.1995 23.5561 29.2307 21.8576 29.9343C20.159 30.6379 18.3385 31 16.5 31C14.6615 31 12.841 30.6379 11.1424 29.9343C9.44387 29.2307 7.90052 28.1995 6.6005 26.8995C5.30048 25.5995 4.26925 24.0561 3.56569 22.3576C2.86212 20.659 2.5 18.8385 2.5 17C2.5 15.1615 2.86212 13.341 3.56569 11.6424C4.26925 9.94387 5.30049 8.40052 6.60051 7.1005C7.90053 5.80048 9.44387 4.76925 11.1424 4.06569C12.841 3.36212 14.6615 3 16.5 3C18.3385 3 20.159 3.36212 21.8576 4.06569C23.5561 4.76925 25.0995 5.80049 26.3995 7.10051C27.6995 8.40053 28.7307 9.94388 29.4343 11.6424C30.1379 13.341 30.5 15.1615 30.5 17L30.5 17Z" stroke="#D9D9D9" stroke-width="4.66667"/>
<path d="M30.5 17C30.5 18.8385 30.1379 20.659 29.4343 22.3576C28.7307 24.0561 27.6995 25.5995 26.3995 26.8995C25.0995 28.1995 23.5561 29.2307 21.8576 29.9343C20.159 30.6379 18.3385 31 16.5 31C14.6615 31 12.841 30.6379 11.1424 29.9343C9.44387 29.2307 7.90052 28.1995 6.6005 26.8995C5.30048 25.5995 4.26925 24.0561 3.56569 22.3576C2.86212 20.659 2.5 18.8385 2.5 17C2.5 15.1615 2.86212 13.341 3.56569 11.6424C4.26925 9.94387 5.30049 8.40052 6.60051 7.1005C7.90053 5.80048 9.44387 4.76925 11.1424 4.06569C12.841 3.36212 14.6615 3 16.5 3C18.3385 3 20.159 3.36212 21.8576 4.06569C23.5561 4.76925 25.0995 5.80049 26.3995 7.10051C27.6995 8.40053 28.7307 9.94388 29.4343 11.6424C30.1379 13.341 30.5 15.1615 30.5 17L30.5 17Z" stroke="url(#paint0_angular_557_7681)" stroke-width="4.66667" stroke-linecap="round"/>
<defs>
<radialGradient id="paint0_angular_557_7681" cx="0" cy="0" r="1" gradientUnits="userSpaceOnUse" gradientTransform="translate(16.5 17) rotate(90) scale(14)">
<stop stop-color="white"/>
<stop offset="1" stop-color="#5F5C5C"/>
</radialGradient>
</defs>
</svg>
