<svg width="358" height="46" viewBox="0 0 358 46" fill="none" xmlns="http://www.w3.org/2000/svg">
<mask id="path-1-inside-1_492_8042" fill="white">
<path fill-rule="evenodd" clip-rule="evenodd" d="M4 0C1.79086 0 0 1.79086 0 4V17.4054V46H358V29.4054C358 22.778 352.627 17.4054 346 17.4054H132.742L110.339 0.787367C109.649 0.276049 108.814 0 107.956 0H4Z"/>
</mask>
<path fill-rule="evenodd" clip-rule="evenodd" d="M4 0C1.79086 0 0 1.79086 0 4V17.4054V46H358V29.4054C358 22.778 352.627 17.4054 346 17.4054H132.742L110.339 0.787367C109.649 0.276049 108.814 0 107.956 0H4Z" fill="url(#paint0_linear_492_8042)"/>
<path d="M0 46H-1V47H0V46ZM358 46V47H359V46H358ZM132.742 17.4054L132.146 18.2086L132.411 18.4054H132.742V17.4054ZM110.339 0.787367L110.934 -0.0157915V-0.0157925L110.339 0.787367ZM1 4C1 2.34315 2.34315 1 4 1V-1C1.23858 -1 -1 1.23858 -1 4H1ZM1 17.4054V4H-1V17.4054H1ZM1 46V17.4054H-1V46H1ZM358 45H0V47H358V45ZM357 29.4054V46H359V29.4054H357ZM346 18.4054C352.075 18.4054 357 23.3303 357 29.4054H359C359 22.2257 353.18 16.4054 346 16.4054V18.4054ZM132.742 18.4054H346V16.4054H132.742V18.4054ZM109.743 1.59053L132.146 18.2086L133.337 16.6022L110.934 -0.0157915L109.743 1.59053ZM107.956 1C108.599 1 109.226 1.20704 109.743 1.59053L110.934 -0.0157925C110.073 -0.654938 109.028 -1 107.956 -1V1ZM4 1H107.956V-1H4V1Z" fill="#E6E6F0" mask="url(#path-1-inside-1_492_8042)"/>
<defs>
<linearGradient id="paint0_linear_492_8042" x1="179" y1="0" x2="179" y2="46" gradientUnits="userSpaceOnUse">
<stop stop-color="#F5F5FA"/>
<stop offset="1" stop-color="#F8F8F9"/>
</linearGradient>
</defs>
</svg>
