<svg width="40" height="40" viewBox="0 0 40 40" fill="none" xmlns="http://www.w3.org/2000/svg">
<rect width="40" height="40" rx="20" transform="matrix(-1 0 0 1 40 0)" fill="white"/>
<path d="M27.8834 26.1161C28.3715 26.6042 28.3715 27.3957 27.8834 27.8839C27.3952 28.372 26.6038 28.372 26.1156 27.8839L12.1156 13.8839C11.6274 13.3957 11.6274 12.6043 12.1156 12.1161C12.6037 11.628 13.3952 11.628 13.8834 12.1161L27.8834 26.1161Z" fill="#73737F"/>
<path d="M26.1156 12.1161C26.6038 11.628 27.3952 11.628 27.8834 12.1161C28.3715 12.6043 28.3715 13.3957 27.8834 13.8839L13.8834 27.8839C13.3953 28.372 12.6038 28.372 12.1157 27.8839C11.6275 27.3957 11.6275 26.6042 12.1157 26.1161L26.1156 12.1161Z" fill="#73737F"/>
</svg>
