<svg width="20" height="21" viewBox="0 0 20 21" fill="none" xmlns="http://www.w3.org/2000/svg">
<g clip-path="url(#clip0_1821_29629)">
<path d="M20 10.5C20 4.97715 15.5228 0.5 10 0.5C4.47715 0.5 0 4.97715 0 10.5C0 16.0228 4.47715 20.5 10 20.5C15.5228 20.5 20 16.0228 20 10.5Z" fill="#FF0000"/>
<path fill-rule="evenodd" clip-rule="evenodd" d="M14.8908 6.39271C15.4262 6.53683 15.8484 6.959 15.9925 7.49442C16.2603 8.47258 16.25 10.5113 16.25 10.5113C16.25 10.5113 16.25 12.5397 15.9925 13.5179C15.8484 14.0533 15.4262 14.4755 14.8908 14.6196C13.9126 14.877 9.99996 14.877 9.99996 14.877C9.99996 14.877 6.09758 14.877 5.10913 14.6093C4.57371 14.4651 4.15156 14.043 4.00741 13.5076C3.75 12.5397 3.75 10.501 3.75 10.501C3.75 10.501 3.75 8.47258 4.00741 7.49442C4.15156 6.959 4.584 6.52654 5.10913 6.38238C6.08729 6.125 9.99996 6.125 9.99996 6.125C9.99996 6.125 13.9126 6.125 14.8908 6.39271ZM12.0078 10.501L8.75408 12.375V8.62704L12.0078 10.501Z" fill="white"/>
</g>
<defs>
<clipPath id="clip0_1821_29629">
<rect width="20" height="20" fill="white" transform="translate(0 0.5)"/>
</clipPath>
</defs>
</svg>
