<svg xmlns="http://www.w3.org/2000/svg" width="21" height="20" viewBox="0 0 21 20" fill="none">
  <path d="M15.625 11.875L12.5 15L7.5 13.75L3.125 10.625" stroke="#40404D" stroke-width="1.5" stroke-linecap="round" stroke-linejoin="round"/>
  <path d="M5.67822 5.51797L10.0001 4.375L14.322 5.51797" stroke="#40404D" stroke-width="1.5" stroke-linecap="round" stroke-linejoin="round"/>
  <path d="M2.68524 4.72022L0.691495 8.70929C0.617399 8.85745 0.605154 9.02897 0.657451 9.18615C0.709749 9.34334 0.82231 9.47333 0.970401 9.54757L3.12509 10.6249L5.67821 5.51788L3.52431 4.44132C3.45091 4.40451 3.37097 4.38252 3.28907 4.37662C3.20717 4.37071 3.12491 4.38101 3.04698 4.40691C2.96906 4.43281 2.89701 4.47381 2.83494 4.52757C2.77287 4.58133 2.722 4.6468 2.68524 4.72022Z" stroke="#40404D" stroke-width="1.5" stroke-linecap="round" stroke-linejoin="round"/>
  <path d="M16.8749 10.6249L19.0296 9.54757C19.1777 9.47333 19.2902 9.34334 19.3425 9.18615C19.3948 9.02897 19.3826 8.85745 19.3085 8.70929L17.3147 4.72022C17.278 4.6468 17.2271 4.58133 17.1651 4.52757C17.103 4.47381 17.0309 4.43281 16.953 4.40691C16.8751 4.38101 16.7928 4.37071 16.7109 4.37662C16.629 4.38252 16.5491 4.40451 16.4757 4.44132L14.3218 5.51788L16.8749 10.6249Z" stroke="#40404D" stroke-width="1.5" stroke-linecap="round" stroke-linejoin="round"/>
  <path d="M14.3751 5.625H11.2501L7.68293 9.08516C7.61661 9.15144 7.56606 9.23179 7.53501 9.32026C7.50397 9.40872 7.49322 9.50305 7.50358 9.59623C7.51393 9.68941 7.54512 9.77908 7.59483 9.85857C7.64454 9.93807 7.71149 10.0054 7.79074 10.0555C9.15871 10.9297 11.0157 10.8695 12.5001 9.375L15.6251 11.875L16.8751 10.625" stroke="#40404D" stroke-width="1.5" stroke-linecap="round" stroke-linejoin="round"/>
  <path d="M9.69219 16.875L6.43281 16.0602L4.375 14.5898" stroke="#40404D" stroke-width="1.5" stroke-linecap="round" stroke-linejoin="round"/>
</svg>