<svg width="20" height="21" viewBox="0 0 20 21" fill="none" xmlns="http://www.w3.org/2000/svg">
<g clip-path="url(#clip0_1821_29591)">
<path d="M10 20.5C15.5228 20.5 20 16.0228 20 10.5C20 4.97715 15.5228 0.5 10 0.5C4.47715 0.5 0 4.97715 0 10.5C0 16.0228 4.47715 20.5 10 20.5Z" fill="#1E6DFF"/>
<path d="M8.90625 10.3438C8.90625 10.3438 9.84375 9.99531 9.84375 8.78125C9.84375 7.56719 9.04063 7.0625 7.96875 7.0625H4.375V13.9375H7.96875C7.96875 13.9375 10 13.9375 10 11.9062C10 11.9062 10 10.3438 8.90625 10.3438ZM5.9375 8.3125H7.96875C7.96875 8.3125 8.4375 8.3125 8.4375 8.9375C8.4375 9.64375 8.125 9.71875 7.8125 9.71875H5.9375V8.3125ZM7.8125 12.6875H5.9375V10.9688L7.90469 10.9578C7.90469 10.9578 8.59375 10.9688 8.59375 11.9062C8.59375 12.6875 8.09531 12.6797 7.8125 12.6875ZM13.2453 8.7625C10.6375 8.7625 10.6391 11.3687 10.6391 11.3687C10.6391 11.3687 10.4953 13.9375 13.2813 13.9375C13.2813 13.9375 15.625 14.1547 15.625 12.2188H14.375C14.375 12.2188 14.4125 12.8875 13.2813 12.8875C13.2813 12.8875 12.0313 13.0109 12.0313 11.75H15.625C15.625 11.75 15.9906 8.7625 13.2453 8.7625ZM14.375 10.8125H12.0313C12.0313 10.8125 12.225 9.75625 13.2719 9.75625C14.3188 9.75625 14.375 10.8125 14.375 10.8125ZM11.7188 7.375H14.6875V8.3125H11.7188V7.375Z" fill="white"/>
</g>
<defs>
<clipPath id="clip0_1821_29591">
<rect width="20" height="20" fill="white" transform="translate(0 0.5)"/>
</clipPath>
</defs>
</svg>
