<svg width="20" height="21" viewBox="0 0 20 21" fill="none" xmlns="http://www.w3.org/2000/svg">
<g clip-path="url(#clip0_1821_29609)">
<path d="M19.8047 10.5352C19.8047 15.9284 15.4323 20.3008 10.0391 20.3008C4.64582 20.3008 0.273438 15.9284 0.273438 10.5352C0.273438 5.14191 4.64582 0.769531 10.0391 0.769531C15.4323 0.769531 19.8047 5.14191 19.8047 10.5352Z" fill="#F06898"/>
<path d="M10.0392 4.33203C6.61453 4.33203 3.8291 7.1141 3.8291 10.5336C3.8291 13.9532 6.61453 16.7352 10.0392 16.7352C13.463 16.7352 16.2484 13.9532 16.2484 10.5336C16.2484 7.1141 13.463 4.33203 10.0392 4.33203ZM14.1251 7.25848C14.8332 8.13652 15.2641 9.24586 15.2837 10.4537C15.0482 10.4053 14.0495 10.2191 12.8569 10.2191C12.4719 10.2191 12.0673 10.2387 11.661 10.2888C11.6268 10.205 11.5919 10.1214 11.5564 10.0382C11.4511 9.7907 11.3371 9.54504 11.2198 9.30281C13.0558 8.54621 13.9415 7.4966 14.1251 7.25848ZM10.0392 5.30273C11.3618 5.30273 12.5713 5.79402 13.4953 6.60418C13.3491 6.80309 12.5561 7.79492 10.7855 8.46375C9.96609 6.96543 9.06934 5.72508 8.85598 5.43789C9.24393 5.34787 9.64092 5.30252 10.0392 5.30273ZM7.78582 5.81102C7.96602 6.06016 8.86445 7.31383 9.70512 8.79949C7.44922 9.39203 5.44664 9.43125 4.96301 9.43125H4.91199C5.25879 7.83063 6.34 6.50039 7.78582 5.81102ZM4.79309 10.5421C4.79309 10.4988 4.79309 10.4555 4.79457 10.4128H4.93238C5.58348 10.4128 7.84363 10.3593 10.1726 9.66844C10.3135 9.94388 10.447 10.223 10.573 10.5056C10.5141 10.5225 10.4566 10.5395 10.3987 10.5582C7.77649 11.4049 6.33574 13.6472 6.11391 14.0135C5.29195 13.0879 4.79309 11.8723 4.79309 10.5421ZM10.0392 15.7807C8.83559 15.7807 7.72551 15.3735 6.83895 14.6901C6.98941 14.396 8.07656 12.4376 10.9504 11.4372C10.9524 11.437 10.9544 11.4364 10.9563 11.4355C11.6763 13.3114 11.9814 14.8856 12.0655 15.3735C11.4417 15.6362 10.7574 15.7807 10.0392 15.7807ZM13.0107 14.8575C12.9402 14.4538 12.6571 12.9782 12.0052 11.1788C12.3707 11.1218 12.7269 11.0989 13.0609 11.0989C14.1574 11.0989 15.015 11.3394 15.2139 11.3998C14.9777 12.8295 14.1589 14.0654 13.0107 14.8575Z" fill="#F2F2F2"/>
</g>
<defs>
<clipPath id="clip0_1821_29609">
<rect width="20" height="20" fill="white" transform="translate(0 0.5)"/>
</clipPath>
</defs>
</svg>
