<svg width="14" height="14" viewBox="0 0 14 14" fill="none" xmlns="http://www.w3.org/2000/svg">
<path d="M7.00006 0.497803C5.41704 0.497868 3.8857 1.06121 2.68004 2.08703C1.47437 3.11286 0.67306 4.53422 0.419481 6.09679C0.165902 7.65936 0.476604 9.26118 1.29599 10.6156C2.11538 11.9701 3.38998 12.9888 4.89174 13.4895C5.22507 13.5478 5.35007 13.3478 5.35007 13.1728C5.35007 13.0145 5.34173 12.4895 5.34173 11.9311C3.66673 12.2395 3.23339 11.5228 3.10006 11.1478C2.95211 10.7831 2.71758 10.4599 2.41673 10.2061C2.18339 10.0811 1.85006 9.7728 2.40839 9.76448C2.62158 9.78762 2.82605 9.8618 3.00448 9.98075C3.18291 10.0997 3.33004 10.2599 3.43339 10.4478C3.52457 10.6116 3.64718 10.7558 3.79419 10.8721C3.94119 10.9885 4.10971 11.0746 4.29008 11.1257C4.47045 11.1768 4.65913 11.1918 4.84531 11.1699C5.03149 11.1479 5.21151 11.0894 5.37505 10.9978C5.40391 10.6589 5.55495 10.342 5.80006 10.1062C4.31673 9.93949 2.76673 9.36446 2.76673 6.81449C2.75736 6.15192 3.00185 5.51087 3.45006 5.02282C3.24625 4.44697 3.27009 3.81501 3.51673 3.25616C3.51673 3.25616 4.07504 3.08115 5.35006 3.93949C6.44092 3.63947 7.59253 3.63947 8.68339 3.93949C9.95838 3.07282 10.5167 3.25616 10.5167 3.25616C10.7634 3.815 10.7872 4.44697 10.5834 5.02282C11.033 5.51004 11.2777 6.15164 11.2667 6.81449C11.2667 9.3728 9.70838 9.93949 8.22506 10.1062C8.38416 10.2674 8.50669 10.461 8.58434 10.6738C8.66199 10.8866 8.69293 11.1137 8.67506 11.3395C8.67506 12.2312 8.66672 12.9478 8.66672 13.1728C8.66672 13.3478 8.79172 13.5562 9.12505 13.4895C10.6242 12.9847 11.8951 11.9636 12.711 10.6085C13.5269 9.25336 13.8346 7.65235 13.5793 6.09129C13.324 4.53023 12.5222 3.11072 11.317 2.08614C10.1119 1.06157 8.58187 0.498626 7.00006 0.497803Z" fill="black"/>
</svg>
