<svg width="17" height="16" viewBox="0 0 17 16" fill="none" xmlns="http://www.w3.org/2000/svg">
<g clip-path="url(#clip0_108_2344)">
<path d="M16.3093 8.1497C16.3093 7.49419 16.2561 7.01584 16.141 6.51978H8.65564V9.47843H13.0493C12.9608 10.2137 12.4824 11.321 11.4194 12.0651L11.4045 12.1641L13.7712 13.9976L13.9352 14.0139C15.4411 12.6232 16.3093 10.5769 16.3093 8.1497Z" fill="#4285F4"/>
<path d="M8.65571 15.945C10.8083 15.945 12.6153 15.2363 13.9353 14.0139L11.4195 12.065C10.7463 12.5345 9.8427 12.8623 8.65571 12.8623C6.54743 12.8623 4.75806 11.4716 4.1202 9.54932L4.0267 9.55726L1.56575 11.4618L1.53357 11.5513C2.84459 14.1556 5.53754 15.945 8.65571 15.945Z" fill="#34A853"/>
<path d="M4.12023 9.54936C3.95193 9.0533 3.85452 8.52176 3.85452 7.97257C3.85452 7.42332 3.95193 6.89184 4.11138 6.39577L4.10692 6.29013L1.61514 4.35498L1.53361 4.39376C0.993273 5.47449 0.683228 6.68811 0.683228 7.97257C0.683228 9.25703 0.993273 10.4706 1.53361 11.5513L4.12023 9.54936Z" fill="#FBBC05"/>
<path d="M8.65571 3.08269C10.1527 3.08269 11.1626 3.72934 11.7384 4.26974L13.9884 2.07285C12.6065 0.788397 10.8083 0 8.65571 0C5.53754 0 2.84459 1.78937 1.53357 4.39371L4.11134 6.39573C4.75806 4.47347 6.54743 3.08269 8.65571 3.08269Z" fill="#EB4335"/>
</g>
<defs>
<clipPath id="clip0_108_2344">
<rect width="15.6352" height="16" fill="white" transform="translate(0.682373)"/>
</clipPath>
</defs>
</svg>
