<svg width="20" height="21" viewBox="0 0 20 21" fill="none" xmlns="http://www.w3.org/2000/svg">
<g clip-path="url(#clip0_1821_29536)">
<path d="M5.07157 20.4292C4.29798 20.4206 3.53167 20.2787 2.80627 20.0098C2.27656 19.814 1.7973 19.5023 1.40353 19.0975C0.997602 18.7045 0.685428 18.2251 0.490196 17.6949C0.22152 16.9695 0.0798397 16.2033 0.0713725 15.4298C0.0119608 14.1439 0 13.7582 0 10.5C0 7.24176 0.0131373 6.85745 0.0707843 5.57059C0.0802789 4.79741 0.222134 4.03156 0.490196 3.30627C0.686378 2.77647 0.99811 2.29702 1.40275 1.90275C1.79602 1.49718 2.27551 1.1853 2.80569 0.990196C3.53108 0.721297 4.2974 0.579417 5.07098 0.570784C6.35725 0.511961 6.74353 0.5 10 0.5C13.2565 0.5 13.6425 0.513137 14.9294 0.570784C15.7028 0.580212 16.4688 0.722068 17.1943 0.990196C17.7243 1.18556 18.2036 1.49733 18.5971 1.90255C19.0024 2.29613 19.3143 2.77561 19.5098 3.30569C19.7788 4.03107 19.9207 4.79738 19.9294 5.57098C19.9882 6.85784 20.0002 7.24314 20.0002 10.5004C20.0002 13.7576 19.9882 14.1429 19.9294 15.4298C19.9201 16.2033 19.7781 16.9694 19.5098 17.6949C19.3068 18.221 18.9959 18.6988 18.5971 19.0975C18.1983 19.4962 17.7205 19.807 17.1943 20.0098C16.4689 20.2788 15.7026 20.4207 14.929 20.4294C13.6433 20.4882 13.2569 20.5002 9.99961 20.5002C6.74235 20.5002 6.35706 20.4888 5.07137 20.4294" fill="url(#paint0_radial_1821_29536)"/>
<path d="M5.07157 20.4292C4.29798 20.4206 3.53167 20.2787 2.80627 20.0098C2.27656 19.814 1.7973 19.5023 1.40353 19.0975C0.997602 18.7045 0.685428 18.2251 0.490196 17.6949C0.22152 16.9695 0.0798397 16.2033 0.0713725 15.4298C0.0119608 14.1439 0 13.7582 0 10.5C0 7.24176 0.0131373 6.85745 0.0707843 5.57059C0.0802789 4.79741 0.222134 4.03156 0.490196 3.30627C0.686378 2.77647 0.99811 2.29702 1.40275 1.90275C1.79602 1.49718 2.27551 1.1853 2.80569 0.990196C3.53108 0.721297 4.2974 0.579417 5.07098 0.570784C6.35725 0.511961 6.74353 0.5 10 0.5C13.2565 0.5 13.6425 0.513137 14.9294 0.570784C15.7028 0.580212 16.4688 0.722068 17.1943 0.990196C17.7243 1.18556 18.2036 1.49733 18.5971 1.90255C19.0024 2.29613 19.3143 2.77561 19.5098 3.30569C19.7788 4.03107 19.9207 4.79738 19.9294 5.57098C19.9882 6.85784 20.0002 7.24314 20.0002 10.5004C20.0002 13.7576 19.9882 14.1429 19.9294 15.4298C19.9201 16.2033 19.7781 16.9694 19.5098 17.6949C19.3068 18.221 18.9959 18.6988 18.5971 19.0975C18.1983 19.4962 17.7205 19.807 17.1943 20.0098C16.4689 20.2788 15.7026 20.4207 14.929 20.4294C13.6433 20.4882 13.2569 20.5002 9.99961 20.5002C6.74235 20.5002 6.35706 20.4888 5.07137 20.4294" fill="url(#paint1_radial_1821_29536)"/>
<path d="M7.54455 10.5429C7.54459 10.053 7.68988 9.57421 7.96206 9.16694C8.23424 8.75967 8.62108 8.44226 9.07366 8.25485C9.52624 8.06744 10.0242 8.01844 10.5047 8.11406C10.9851 8.20968 11.4264 8.44561 11.7727 8.79202C12.119 9.13844 12.3548 9.57978 12.4503 10.0602C12.5459 10.5407 12.4967 11.0386 12.3092 11.4912C12.1217 11.9437 11.8042 12.3305 11.3969 12.6026C10.9895 12.8746 10.5107 13.0198 10.0208 13.0198C9.364 13.0197 8.73412 12.7586 8.26973 12.2941C7.80535 11.8296 7.5445 11.1997 7.54455 10.5429ZM6.20553 10.5429C6.20553 11.2975 6.42929 12.0351 6.84852 12.6626C7.26775 13.29 7.86362 13.779 8.56077 14.0678C9.25792 14.3565 10.0251 14.4321 10.7651 14.2849C11.5052 14.1377 12.1851 13.7743 12.7186 13.2407C13.2522 12.7071 13.6156 12.0273 13.7628 11.2872C13.91 10.5471 13.8345 9.77999 13.5457 9.08284C13.2569 8.38568 12.7679 7.78981 12.1405 7.37058C11.5131 6.95136 10.7754 6.72759 10.0208 6.72759C9.51978 6.72757 9.02364 6.82624 8.56074 7.01796C8.09784 7.20969 7.67723 7.49072 7.32294 7.84501C6.96865 8.1993 6.68762 8.6199 6.4959 9.08281C6.30417 9.54571 6.2055 10.0418 6.20553 10.5429ZM13.0955 6.57642C13.0954 6.75275 13.1477 6.92515 13.2456 7.07181C13.3435 7.21847 13.4827 7.33281 13.6455 7.40036C13.8084 7.46791 13.9877 7.48565 14.1606 7.45132C14.3336 7.417 14.4925 7.33215 14.6173 7.20752C14.742 7.08289 14.827 6.92406 14.8615 6.75113C14.8959 6.5782 14.8784 6.39893 14.8109 6.23598C14.7435 6.07304 14.6293 5.93375 14.4827 5.83572C14.3362 5.73769 14.1638 5.68532 13.9875 5.68524C13.7511 5.68535 13.5245 5.77926 13.3573 5.94635C13.1901 6.11345 13.0961 6.34006 13.0959 6.57642M7.01945 16.5909C6.54829 16.5857 6.08154 16.4995 5.63964 16.336C5.31917 16.2125 5.02811 16.0232 4.7852 15.7804C4.54229 15.5376 4.35291 15.2466 4.22925 14.9262C4.06568 14.4843 3.97945 14.0176 3.97435 13.5464C3.93827 12.7633 3.93121 12.528 3.93121 10.5439C3.93121 8.55975 3.93906 8.32505 3.97435 7.54112C3.98007 7.07002 4.06627 6.60337 4.22925 6.16132C4.35276 5.84074 4.54209 5.54961 4.78501 5.30669C5.02793 5.06376 5.31907 4.87444 5.63964 4.75093C6.08152 4.58736 6.54829 4.50113 7.01945 4.49603C7.80258 4.45995 8.03788 4.45289 10.0212 4.45289C12.0045 4.45289 12.24 4.46054 13.024 4.49622C13.4951 4.50194 13.9617 4.58815 14.4038 4.75112C14.7243 4.87465 15.0155 5.06397 15.2584 5.3069C15.5013 5.54982 15.6906 5.84095 15.8142 6.16151C15.9777 6.6034 16.0639 7.07016 16.0691 7.54132C16.1051 8.32564 16.1122 8.55975 16.1122 10.5441C16.1122 12.5284 16.1049 12.7629 16.0691 13.5468C16.0636 14.0179 15.9773 14.4846 15.8142 14.9266C15.6905 15.247 15.5011 15.538 15.2582 15.7808C15.0153 16.0236 14.7242 16.2129 14.4038 16.3364C13.9619 16.5 13.4951 16.5862 13.024 16.5913C12.2408 16.6274 12.0055 16.6345 10.0212 16.6345C8.0369 16.6345 7.80239 16.6272 7.01945 16.5913M6.95788 3.15818C6.34138 3.17031 5.7314 3.28699 5.15396 3.50328C4.66033 3.69413 4.21203 3.98604 3.8378 4.36027C3.46358 4.73449 3.17167 5.18279 2.98082 5.67642C2.76456 6.25387 2.64787 6.86384 2.63572 7.48034C2.59906 8.2725 2.59082 8.52583 2.59082 10.5437C2.59082 12.5615 2.59925 12.8147 2.63572 13.607C2.64787 14.2235 2.76456 14.8335 2.98082 15.4109C3.17168 15.9045 3.46359 16.3528 3.83782 16.7271C4.21204 17.1013 4.66034 17.3932 5.15396 17.5841C5.73143 17.8003 6.34139 17.9169 6.95788 17.9292C7.75043 17.9652 8.00337 17.9741 10.0212 17.9741C12.0391 17.9741 12.2922 17.9656 13.0845 17.9292C13.701 17.917 14.311 17.8003 14.8885 17.5841C15.3821 17.3932 15.8304 17.1013 16.2046 16.7271C16.5788 16.3528 16.8707 15.9045 17.0616 15.4109C17.2781 14.8336 17.3948 14.2235 17.4067 13.607C17.4428 12.8143 17.451 12.5615 17.451 10.5437C17.451 8.52583 17.4426 8.27269 17.4067 7.48034C17.3946 6.86384 17.2779 6.25386 17.0616 5.67642C16.8707 5.18288 16.5789 4.73466 16.2048 4.36044C15.8307 3.98622 15.3825 3.69427 14.8891 3.50328C14.3117 3.28685 13.7017 3.17016 13.0851 3.15818C12.2928 3.12191 12.0396 3.11328 10.0222 3.11328C8.00474 3.11328 7.75101 3.12171 6.95827 3.15818" fill="white"/>
</g>
<defs>
<radialGradient id="paint0_radial_1821_29536" cx="0" cy="0" r="1" gradientUnits="userSpaceOnUse" gradientTransform="translate(1.29431 20.062) scale(25.3925)">
<stop offset="0.09" stop-color="#FA8F21"/>
<stop offset="0.78" stop-color="#D82D7E"/>
</radialGradient>
<radialGradient id="paint1_radial_1821_29536" cx="0" cy="0" r="1" gradientUnits="userSpaceOnUse" gradientTransform="translate(13.8533 19.4196) scale(22.3457)">
<stop offset="0.64" stop-color="#8C3AAA" stop-opacity="0"/>
<stop offset="1" stop-color="#8C3AAA"/>
</radialGradient>
<clipPath id="clip0_1821_29536">
<rect y="0.5" width="20" height="20" rx="10" fill="white"/>
</clipPath>
</defs>
</svg>
