<svg width="16" height="16" viewBox="0 0 16 16" fill="none" xmlns="http://www.w3.org/2000/svg">
<path d="M7.3992 2C4.96653 2.00438 3.69265 2.06411 2.87855 2.87835C2 3.75704 2 5.17128 2 7.99972C2 10.8282 2 12.2425 2.87855 13.1211C3.7571 13.9999 5.17112 13.9999 7.99913 13.9999C10.8271 13.9999 12.2411 13.9999 13.1197 13.1211C13.9338 12.3069 13.9935 11.0328 13.9979 8.59979" stroke="#374151" stroke-width="1.2" stroke-linecap="round" stroke-linejoin="round"/>
<path d="M13.7034 2.33132L7.36523 8.70634M13.7034 2.33132C13.3742 2.00158 11.1557 2.03231 10.6867 2.03898M13.7034 2.33132C14.0328 2.66106 14.0021 4.88239 13.9954 5.352" stroke="#374151" stroke-width="1.2" stroke-linecap="round" stroke-linejoin="round"/>
</svg>
