<svg width="652" height="366" viewBox="0 0 652 366" fill="none" xmlns="http://www.w3.org/2000/svg">
<path d="M101 29.7624C101 26.8187 103.386 24.4324 106.33 24.4324H173.434C175.923 24.4324 178.334 25.3034 180.248 26.8944L202.937 45.7524H101V29.7624Z" fill="#8CDEFF"/>
<rect x="101" y="33.7599" width="181.221" height="181.221" rx="10.66" fill="#8CDEFF"/>
<path d="M109 47.643C109 43.3469 112.483 39.8643 116.779 39.8643H269.112C273.408 39.8643 276.891 43.3469 276.891 47.643H109Z" fill="white"/>
<path d="M370.696 24.9369C370.696 21.9933 373.082 19.6069 376.026 19.6069H443.13C445.619 19.6069 448.03 20.478 449.944 22.069L472.632 40.927H370.696V24.9369Z" fill="#F2D197"/>
<rect x="370.696" y="28.9344" width="181.221" height="181.221" rx="10.66" fill="#F2D197"/>
<path d="M377 42.8202C377 38.5213 380.485 35.0364 384.784 35.0364H537.216C541.515 35.0364 545 38.5213 545 42.8202H377Z" fill="white"/>
<path d="M231.292 26.3127C231.292 23.369 233.678 20.9827 236.622 20.9827H303.726C306.215 20.9827 308.626 21.8537 310.54 23.4447L333.229 42.3027H231.292V26.3127Z" fill="#D6D6E0"/>
<rect x="231.292" y="30.3102" width="181.221" height="181.221" rx="10.66" fill="#D6D6E0"/>
<g style="mix-blend-mode:screen">
<path d="M333.104 119.315C333.104 116.941 332.728 114.865 331.977 113.088C331.214 111.311 330.093 109.932 328.613 108.951C327.134 107.985 325.324 107.501 323.184 107.501L307.903 107.501C307.903 110.846 310.606 113.557 313.94 113.557L322.825 113.557C323.884 113.557 324.795 113.685 325.557 113.941C326.308 114.197 326.923 114.574 327.401 115.071C327.879 115.583 328.232 116.194 328.46 116.905C328.676 117.616 328.784 118.426 328.784 119.336C328.784 120.203 328.676 120.978 328.46 121.66C328.232 122.357 327.879 122.947 327.401 123.43C326.923 123.913 326.308 124.283 325.557 124.539C324.795 124.809 323.884 124.944 322.825 124.944H313.974C310.64 124.944 307.937 127.655 307.937 131L323.184 131C325.301 131 327.1 130.51 328.579 129.529C330.059 128.548 331.186 127.176 331.96 125.413C332.722 123.665 333.104 121.632 333.104 119.315Z" fill="#40404D"/>
<path d="M311.728 107.778C311.728 105.411 312.095 103.342 312.83 101.57C313.576 99.7985 314.673 98.4237 316.12 97.4457C317.568 96.4819 319.338 96 321.431 96L336.378 96C336.378 99.3346 333.734 102.038 330.472 102.038L321.782 102.038C320.746 102.038 319.856 102.165 319.11 102.421C318.375 102.676 317.774 103.051 317.306 103.547C316.838 104.058 316.493 104.667 316.271 105.376C316.059 106.084 315.953 106.892 315.953 107.799C315.953 108.664 316.059 109.436 316.271 110.117C316.493 110.811 316.838 111.4 317.306 111.881C317.774 112.363 318.375 112.732 319.11 112.987C319.855 113.256 320.746 113.391 321.782 113.391L328.09 113.891C331.352 113.891 332.978 116.094 332.978 119.429H321.431C319.36 119.429 317.601 118.94 316.154 117.962C314.706 116.984 313.604 115.616 312.847 113.859C312.101 112.115 311.728 110.088 311.728 107.778Z" fill="#F5F5FA"/>
</g>
<g style="mix-blend-mode:screen">
<path d="M474.201 119.315C474.201 116.941 473.825 114.865 473.074 113.088C472.311 111.311 471.19 109.932 469.71 108.951C468.231 107.985 466.421 107.501 464.281 107.501L449 107.501C449 110.846 451.703 113.557 455.037 113.557L463.922 113.557C464.981 113.557 465.892 113.685 466.654 113.941C467.405 114.197 468.02 114.574 468.498 115.071C468.976 115.583 469.329 116.194 469.557 116.905C469.773 117.616 469.881 118.426 469.881 119.336C469.881 120.203 469.773 120.978 469.557 121.66C469.329 122.357 468.976 122.947 468.498 123.43C468.02 123.913 467.405 124.283 466.654 124.539C465.892 124.809 464.981 124.944 463.922 124.944H455.071C451.737 124.944 449.034 127.655 449.034 131L464.281 131C466.398 131 468.196 130.51 469.676 129.529C471.156 128.548 472.283 127.176 473.057 125.413C473.819 123.665 474.201 121.632 474.201 119.315Z" fill="#40404D"/>
<path d="M452.825 107.778C452.825 105.411 453.192 103.342 453.927 101.57C454.673 99.7985 455.77 98.4237 457.217 97.4457C458.664 96.4819 460.435 96 462.528 96L477.475 96C477.475 99.3346 474.831 102.038 471.569 102.038L462.879 102.038C461.843 102.038 460.952 102.165 460.206 102.421C459.472 102.676 458.87 103.051 458.403 103.547C457.935 104.058 457.59 104.667 457.367 105.376C457.156 106.084 457.05 106.892 457.05 107.799C457.05 108.664 457.156 109.436 457.367 110.117C457.59 110.811 457.935 111.4 458.403 111.881C458.87 112.363 459.472 112.732 460.206 112.987C460.952 113.256 461.843 113.391 462.879 113.391L469.187 113.891C472.449 113.891 474.075 116.094 474.075 119.429H462.528C460.457 119.429 458.698 118.94 457.251 117.962C455.803 116.984 454.701 115.616 453.944 113.859C453.198 112.115 452.825 110.088 452.825 107.778Z" fill="#F5F5FA"/>
</g>
<g style="mix-blend-mode:screen">
<path d="M196.818 119.315C196.818 116.941 196.443 114.865 195.691 113.088C194.929 111.311 193.808 109.932 192.328 108.951C190.848 107.985 189.038 107.501 186.898 107.501L171.617 107.501C171.617 110.846 174.32 113.557 177.655 113.557L186.54 113.557C187.598 113.557 188.509 113.685 189.272 113.941C190.023 114.197 190.637 114.574 191.116 115.071C191.594 115.583 191.946 116.194 192.174 116.905C192.39 117.616 192.499 118.426 192.499 119.336C192.499 120.203 192.39 120.978 192.174 121.66C191.946 122.357 191.594 122.947 191.116 123.43C190.637 123.913 190.023 124.283 189.272 124.539C188.509 124.809 187.598 124.944 186.54 124.944H177.689C174.355 124.944 171.652 127.655 171.652 131L186.898 131C189.016 131 190.814 130.51 192.294 129.529C193.773 128.548 194.9 127.176 195.674 125.413C196.437 123.665 196.818 121.632 196.818 119.315Z" fill="#40404D"/>
<path d="M175.442 107.778C175.442 105.411 175.81 103.342 176.545 101.57C177.291 99.7985 178.387 98.4237 179.835 97.4457C181.282 96.4819 183.052 96 185.145 96L200.092 96C200.092 99.3346 197.448 102.038 194.187 102.038L185.496 102.038C184.461 102.038 183.57 102.165 182.824 102.421C182.089 102.676 181.488 103.051 181.02 103.547C180.553 104.058 180.208 104.667 179.985 105.376C179.773 106.084 179.668 106.892 179.668 107.799C179.668 108.664 179.773 109.436 179.985 110.117C180.208 110.811 180.553 111.4 181.02 111.881C181.488 112.363 182.089 112.732 182.824 112.987C183.57 113.256 184.461 113.391 185.496 113.391L191.805 113.891C195.066 113.891 196.692 116.094 196.692 119.429H185.145C183.074 119.429 181.315 118.94 179.868 117.962C178.421 116.984 177.318 115.616 176.561 113.859C175.815 112.115 175.442 110.088 175.442 107.778Z" fill="#F5F5FA"/>
</g>
<path d="M239 44.1265C239 39.9044 242.423 36.4817 246.645 36.4817H396.355C400.577 36.4817 404 39.9044 404 44.1265H239Z" fill="white"/>
<rect width="652" height="366" fill="url(#paint0_linear_191_4626)"/>
<defs>
<linearGradient id="paint0_linear_191_4626" x1="326" y1="0" x2="326" y2="366" gradientUnits="userSpaceOnUse">
<stop stop-color="#F6F2FC" stop-opacity="0"/>
<stop offset="0.5519" stop-color="#F6F2FC"/>
</linearGradient>
</defs>
</svg>
