<svg width="20" height="41" viewBox="0 0 20 41" fill="none" xmlns="http://www.w3.org/2000/svg">
<g filter="url(#filter0_dddd_216_595)">
<rect x="3" width="14" height="29.5" rx="7" fill="white"/>
<rect x="3.25" y="0.25" width="13.5" height="29" rx="6.75" stroke="#E6E6F0" stroke-width="0.5"/>
<path d="M9.03109 3.5C9.41599 2.83333 10.3782 2.83333 10.7631 3.5L12.9282 7.25C13.3131 7.91667 12.832 8.75 12.0622 8.75H7.73205C6.96225 8.75 6.48113 7.91667 6.86603 7.25L9.03109 3.5Z" fill="#A6A6B5"/>
<path d="M9.03109 26C9.41599 26.6667 10.3782 26.6667 10.7631 26L12.9282 22.25C13.3131 21.5833 12.832 20.75 12.0622 20.75H7.73205C6.96225 20.75 6.48113 21.5833 6.86603 22.25L9.03109 26Z" fill="#A6A6B5"/>
</g>
<defs>
<filter id="filter0_dddd_216_595" x="0" y="0" width="20" height="40.5" filterUnits="userSpaceOnUse" color-interpolation-filters="sRGB">
<feFlood flood-opacity="0" result="BackgroundImageFix"/>
<feColorMatrix in="SourceAlpha" type="matrix" values="0 0 0 0 0 0 0 0 0 0 0 0 0 0 0 0 0 0 127 0" result="hardAlpha"/>
<feOffset dy="1"/>
<feGaussianBlur stdDeviation="0.5"/>
<feColorMatrix type="matrix" values="0 0 0 0 0.411765 0 0 0 0 0.411765 0 0 0 0 0.411765 0 0 0 0.1 0"/>
<feBlend mode="normal" in2="BackgroundImageFix" result="effect1_dropShadow_216_595"/>
<feColorMatrix in="SourceAlpha" type="matrix" values="0 0 0 0 0 0 0 0 0 0 0 0 0 0 0 0 0 0 127 0" result="hardAlpha"/>
<feOffset dy="2"/>
<feGaussianBlur stdDeviation="1"/>
<feColorMatrix type="matrix" values="0 0 0 0 0.411765 0 0 0 0 0.411765 0 0 0 0 0.411765 0 0 0 0.09 0"/>
<feBlend mode="normal" in2="effect1_dropShadow_216_595" result="effect2_dropShadow_216_595"/>
<feColorMatrix in="SourceAlpha" type="matrix" values="0 0 0 0 0 0 0 0 0 0 0 0 0 0 0 0 0 0 127 0" result="hardAlpha"/>
<feOffset dy="5"/>
<feGaussianBlur stdDeviation="1.5"/>
<feColorMatrix type="matrix" values="0 0 0 0 0.411765 0 0 0 0 0.411765 0 0 0 0 0.411765 0 0 0 0.05 0"/>
<feBlend mode="normal" in2="effect2_dropShadow_216_595" result="effect3_dropShadow_216_595"/>
<feColorMatrix in="SourceAlpha" type="matrix" values="0 0 0 0 0 0 0 0 0 0 0 0 0 0 0 0 0 0 127 0" result="hardAlpha"/>
<feOffset dy="8"/>
<feGaussianBlur stdDeviation="1.5"/>
<feColorMatrix type="matrix" values="0 0 0 0 0.411765 0 0 0 0 0.411765 0 0 0 0 0.411765 0 0 0 0.01 0"/>
<feBlend mode="normal" in2="effect3_dropShadow_216_595" result="effect4_dropShadow_216_595"/>
<feBlend mode="normal" in="SourceGraphic" in2="effect4_dropShadow_216_595" result="shape"/>
</filter>
</defs>
</svg>
