<svg width="16" height="17" viewBox="0 0 16 17" fill="none" xmlns="http://www.w3.org/2000/svg">
<path fill-rule="evenodd" clip-rule="evenodd" d="M11.1953 11.6953C11.4556 11.4349 11.8777 11.4349 12.138 11.6953L15.1381 14.6953C15.3984 14.9556 15.3984 15.3777 15.1381 15.6381C14.8777 15.8984 14.4556 15.8984 14.1953 15.6381L11.1953 12.638C10.9349 12.3777 10.9349 11.9556 11.1953 11.6953Z" fill="#141B34"/>
<path fill-rule="evenodd" clip-rule="evenodd" d="M0.666016 7.83335C0.666016 4.15145 3.65078 1.16669 7.33268 1.16669C11.0145 1.16669 13.9993 4.15145 13.9993 7.83335C13.9993 11.5152 11.0145 14.5 7.33268 14.5C3.65078 14.5 0.666016 11.5152 0.666016 7.83335ZM7.33268 2.50002C4.38716 2.50002 1.99935 4.88783 1.99935 7.83335C1.99935 10.7789 4.38716 13.1667 7.33268 13.1667C10.2782 13.1667 12.666 10.7789 12.666 7.83335C12.666 4.88783 10.2782 2.50002 7.33268 2.50002Z" fill="#141B34"/>
</svg>
