<svg width="20" height="21" viewBox="0 0 20 21" fill="none" xmlns="http://www.w3.org/2000/svg">
<path d="M13.3337 5.5C14.2542 5.5 15.0003 6.24619 15.0003 7.16667V17.1667C15.0003 18.0872 14.2542 18.8333 13.3337 18.8333H3.3336C2.41314 18.8333 1.66696 18.0872 1.66693 17.1667L1.66663 7.16672C1.6666 6.24623 2.4128 5.5 3.33329 5.5H13.3337Z" stroke="#5C5C66" stroke-width="1.25" stroke-linecap="round" stroke-linejoin="round"/>
<path d="M7.97834 9.0355C8.12616 8.76616 8.54062 8.76616 8.68837 9.0355L9.56004 10.6236C9.61795 10.729 9.72662 10.8024 9.85245 10.821L11.7471 11.1012C12.0683 11.1487 12.1963 11.514 11.9666 11.7278L10.6102 12.9906C10.5204 13.0742 10.479 13.1927 10.4987 13.3094L10.7977 15.0718C10.8483 15.3703 10.5131 15.5962 10.2232 15.4591L8.51429 14.6507C8.40062 14.597 8.26613 14.597 8.1525 14.6507L6.44355 15.4591C6.15359 15.5962 5.81841 15.3703 5.86905 15.0718L6.16802 13.3094C6.18781 13.1927 6.1464 13.0742 6.05654 12.9906L4.70012 11.7278C4.47049 11.514 4.59846 11.1487 4.91959 11.1012L6.81431 10.821C6.94014 10.8024 7.04881 10.729 7.10666 10.6236L7.97834 9.0355Z" stroke="#5C5C66" stroke-width="1.25" stroke-linejoin="round"/>
<path d="M5 5.49984V3.83317C5 2.9127 5.74619 2.1665 6.66667 2.1665H16.6671C17.5876 2.1665 18.3337 2.9127 18.3337 3.83317V13.8332C18.3337 14.7537 17.5876 15.4998 16.6671 15.4998H15" stroke="#5C5C66" stroke-width="1.25" stroke-linecap="round" stroke-linejoin="round"/>
</svg>
