<svg width="63" height="17" viewBox="0 0 63 17" fill="none" xmlns="http://www.w3.org/2000/svg">
<path d="M11.1142 3.60183L8.13125 3.7854C8.08026 3.53045 7.97063 3.30099 7.80236 3.09703C7.63409 2.88797 7.41228 2.72225 7.13694 2.59987C6.86668 2.47239 6.54289 2.40865 6.16556 2.40865C5.66075 2.40865 5.23498 2.51573 4.88825 2.72989C4.54151 2.93896 4.36814 3.2194 4.36814 3.57124C4.36814 3.85169 4.48032 4.0888 4.70468 4.28256C4.92904 4.47633 5.31402 4.63185 5.85962 4.74912L7.98593 5.17745C9.12812 5.412 9.97967 5.78933 10.5406 6.30944C11.1015 6.82954 11.3819 7.51282 11.3819 8.35927C11.3819 9.12922 11.155 9.80485 10.7012 10.3861C10.2525 10.9674 9.63548 11.4213 8.85022 11.7476C8.07006 12.0688 7.17008 12.2295 6.15027 12.2295C4.59505 12.2295 3.35598 11.9057 2.43304 11.2581C1.51521 10.6054 0.977261 9.71817 0.819189 8.59637L4.02395 8.4281C4.12084 8.90232 4.35539 9.26435 4.72763 9.5142C5.09986 9.75896 5.57662 9.88134 6.15791 9.88134C6.72901 9.88134 7.18793 9.77171 7.53466 9.55245C7.8865 9.32809 8.06497 9.03999 8.07006 8.68816C8.06497 8.39241 7.94004 8.1502 7.69528 7.96154C7.45053 7.76777 7.0732 7.6199 6.56329 7.51792L4.52876 7.11254C3.38147 6.88309 2.52738 6.48536 1.96648 5.91936C1.41068 5.35336 1.13278 4.63185 1.13278 3.75481C1.13278 3.00014 1.33674 2.35001 1.74467 1.80441C2.15769 1.25881 2.73644 0.83814 3.4809 0.542394C4.23047 0.246648 5.10751 0.0987752 6.11202 0.0987752C7.59585 0.0987752 8.76354 0.412368 9.61508 1.03955C10.4717 1.66674 10.9714 2.52083 11.1142 3.60183ZM15.4452 16.4056C15.0322 16.4056 14.6447 16.3725 14.2826 16.3062C13.9257 16.245 13.63 16.1659 13.3954 16.0691L14.1297 13.6368C14.5121 13.7541 14.8563 13.8178 15.1622 13.828C15.4733 13.8382 15.741 13.7668 15.9653 13.6139C16.1948 13.4609 16.3809 13.2008 16.5237 12.8337L16.7149 12.3365L12.5005 0.251747H15.9271L18.3593 8.87937H18.4817L20.9369 0.251747H24.3864L19.8202 13.2697C19.601 13.902 19.3027 14.4527 18.9253 14.9218C18.5531 15.396 18.0814 15.7606 17.5104 16.0155C16.9393 16.2756 16.2509 16.4056 15.4452 16.4056ZM29.3121 5.20804V12H26.0538V0.251747H29.1592V2.32452H29.2968C29.5569 1.64124 29.9929 1.10074 30.6048 0.703014C31.2166 0.300188 31.9586 0.0987752 32.8305 0.0987752C33.6464 0.0987752 34.3577 0.277242 34.9645 0.634177C35.5713 0.991112 36.0429 1.50102 36.3795 2.1639C36.716 2.82168 36.8843 3.60693 36.8843 4.51967V12H33.626V5.10096C33.6311 4.38199 33.4475 3.82109 33.0753 3.41827C32.703 3.01034 32.1906 2.80638 31.5379 2.80638C31.0994 2.80638 30.7118 2.90071 30.3753 3.08938C30.0439 3.27804 29.7838 3.55339 29.5951 3.91543C29.4116 4.27236 29.3172 4.70323 29.3121 5.20804ZM44.7604 12.2295C43.557 12.2295 42.5219 11.9745 41.6551 11.4646C40.7933 10.9496 40.1305 10.2357 39.6664 9.32299C39.2075 8.41026 38.9781 7.35985 38.9781 6.17177C38.9781 4.96839 39.2101 3.91288 39.6741 3.00524C40.1432 2.09251 40.8086 1.38119 41.6704 0.871283C42.5321 0.356278 43.557 0.0987752 44.7451 0.0987752C45.77 0.0987752 46.6675 0.284891 47.4374 0.657122C48.2074 1.02935 48.8167 1.55201 49.2654 2.22509C49.7142 2.89816 49.9615 3.68852 50.0073 4.59615H46.9326C46.8459 4.00976 46.6165 3.5381 46.2442 3.18116C45.8771 2.81913 45.3952 2.63811 44.7987 2.63811C44.2938 2.63811 43.8528 2.77579 43.4754 3.05114C43.1032 3.32139 42.8126 3.71656 42.6035 4.23667C42.3944 4.75677 42.2899 5.38651 42.2899 6.12587C42.2899 6.87544 42.3919 7.51282 42.5959 8.03802C42.8049 8.56323 43.0981 8.9635 43.4754 9.23885C43.8528 9.5142 44.2938 9.65188 44.7987 9.65188C45.1709 9.65188 45.5049 9.57539 45.8006 9.42242C46.1015 9.26945 46.3488 9.04764 46.5425 8.75699C46.7414 8.46125 46.8714 8.10686 46.9326 7.69384H50.0073C49.9564 8.59127 49.7116 9.38163 49.2731 10.0649C48.8397 10.7431 48.2405 11.2734 47.4757 11.6558C46.7108 12.0382 45.8057 12.2295 44.7604 12.2295ZM59.6274 6.99781V0.251747H62.8857V12H59.7574V9.86604H59.635C59.3699 10.5544 58.9288 11.1077 58.3118 11.5258C57.6999 11.9439 56.9529 12.153 56.0708 12.153C55.2855 12.153 54.5946 11.9745 53.998 11.6176C53.4014 11.2606 52.9349 10.7533 52.5983 10.0955C52.2669 9.43772 52.0986 8.64991 52.0935 7.73208V0.251747H55.3518V7.15079C55.3569 7.84426 55.543 8.39241 55.9102 8.79524C56.2773 9.19806 56.7694 9.39948 57.3863 9.39948C57.779 9.39948 58.1461 9.31024 58.4877 9.13177C58.8294 8.94821 59.1047 8.67796 59.3138 8.32102C59.5279 7.96409 59.6325 7.52302 59.6274 6.99781Z" fill="#2A2A33"/>
</svg>
