<svg width="20" height="21" viewBox="0 0 20 21" fill="none" xmlns="http://www.w3.org/2000/svg">
<path d="M14.1663 10.4997C14.1663 12.8008 12.3008 14.6663 9.99967 14.6663C7.69849 14.6663 5.83301 12.8008 5.83301 10.4997C5.83301 8.19849 7.69849 6.33301 9.99967 6.33301" stroke="#5C5C66" stroke-width="1.25" stroke-linecap="round" stroke-linejoin="round"/>
<path d="M11.667 2.33369C11.1285 2.22438 10.5711 2.16699 10.0003 2.16699C5.39795 2.16699 1.66699 5.89795 1.66699 10.5003C1.66699 15.1027 5.39795 18.8337 10.0003 18.8337C14.6027 18.8337 18.3337 15.1027 18.3337 10.5003C18.3337 9.92958 18.2762 9.37216 18.167 8.83366" stroke="#5C5C66" stroke-width="1.25" stroke-linecap="round" stroke-linejoin="round"/>
<path d="M13.3333 7.16673V4.66673L15.8223 2.17774C15.827 2.17303 15.8351 2.17547 15.8364 2.182L16.2489 4.24462C16.2496 4.24792 16.2522 4.2505 16.2554 4.25116L18.3181 4.66368C18.3246 4.66498 18.327 4.67303 18.3223 4.67774L15.8357 7.16429C15.8342 7.16586 15.8321 7.16673 15.8299 7.16673H13.3333ZM13.3333 7.16673L10 10.5001" stroke="#5C5C66" stroke-width="1.25" stroke-linecap="round" stroke-linejoin="round"/>
</svg>
