<svg width="322" height="236" viewBox="0 0 322 236" fill="none" xmlns="http://www.w3.org/2000/svg">
<g filter="url(#filter0_dddd_191_4648)">
<rect x="16" y="3" width="290" height="177" rx="12" fill="white"/>
<path d="M32.147 26L29.2734 15.8182H31.2571L33.0916 23.3004H33.1861L35.1449 15.8182H36.9496L38.9134 23.3054H39.0028L40.8374 15.8182H42.821L39.9474 26H38.1278L36.0895 18.8558H36.0099L33.9666 26H32.147ZM46.6218 26.1491C45.8562 26.1491 45.195 25.9901 44.6381 25.6719C44.0846 25.3504 43.6587 24.8963 43.3604 24.3097C43.0621 23.7197 42.913 23.0253 42.913 22.2266C42.913 21.4411 43.0621 20.7517 43.3604 20.1584C43.6621 19.5618 44.083 19.0978 44.6232 18.7663C45.1635 18.4316 45.7982 18.2642 46.5273 18.2642C46.998 18.2642 47.4421 18.3404 47.8597 18.4929C48.2807 18.642 48.6519 18.8741 48.9734 19.1889C49.2982 19.5038 49.5534 19.9048 49.739 20.392C49.9246 20.8759 50.0174 21.4527 50.0174 22.1222V22.674H43.7582V21.4609H48.2923C48.2889 21.1162 48.2144 20.8097 48.0685 20.5412C47.9227 20.2694 47.7189 20.0556 47.457 19.8999C47.1985 19.7441 46.8969 19.6662 46.5522 19.6662C46.1843 19.6662 45.8612 19.7557 45.5827 19.9347C45.3043 20.1103 45.0872 20.3423 44.9315 20.6307C44.779 20.9157 44.7011 21.2289 44.6978 21.5703V22.6293C44.6978 23.0734 44.779 23.4545 44.9414 23.7727C45.1038 24.0876 45.3308 24.3295 45.6225 24.4986C45.9142 24.6643 46.2556 24.7472 46.6467 24.7472C46.9085 24.7472 47.1455 24.7107 47.3576 24.6378C47.5697 24.5616 47.7537 24.4505 47.9094 24.3047C48.0652 24.1589 48.1829 23.9782 48.2624 23.7628L49.9428 23.9517C49.8368 24.3958 49.6346 24.7836 49.3363 25.1151C49.0413 25.4432 48.6635 25.6984 48.2028 25.8807C47.7421 26.0597 47.2151 26.1491 46.6218 26.1491ZM51.6195 26V15.8182H53.4192V19.6264H53.4938C53.5866 19.4408 53.7175 19.2436 53.8865 19.0348C54.0556 18.8227 54.2843 18.642 54.5726 18.4929C54.861 18.3404 55.2289 18.2642 55.6763 18.2642C56.2663 18.2642 56.7982 18.415 57.2722 18.7166C57.7495 19.0149 58.1273 19.4574 58.4057 20.044C58.6874 20.6274 58.8283 21.3433 58.8283 22.1918C58.8283 23.0303 58.6908 23.7429 58.4157 24.3295C58.1406 24.9162 57.766 25.3636 57.2921 25.6719C56.8181 25.9801 56.2812 26.1342 55.6813 26.1342C55.2438 26.1342 54.8809 26.0613 54.5925 25.9155C54.3042 25.7696 54.0721 25.594 53.8965 25.3885C53.7241 25.1797 53.5899 24.9825 53.4938 24.7969H53.3894V26H51.6195ZM53.3844 22.1818C53.3844 22.6757 53.454 23.1082 53.5932 23.4794C53.7357 23.8506 53.9396 24.1406 54.2047 24.3494C54.4732 24.5549 54.798 24.6577 55.1792 24.6577C55.5769 24.6577 55.91 24.5516 56.1784 24.3395C56.4469 24.1241 56.6491 23.8307 56.785 23.4595C56.9242 23.085 56.9938 22.6591 56.9938 22.1818C56.9938 21.7079 56.9258 21.2869 56.79 20.919C56.6541 20.5511 56.4519 20.2628 56.1834 20.054C55.915 19.8452 55.5802 19.7408 55.1792 19.7408C54.7947 19.7408 54.4682 19.8419 54.1998 20.044C53.9313 20.2462 53.7275 20.5296 53.5882 20.8942C53.4524 21.2588 53.3844 21.688 53.3844 22.1818ZM63.9925 26.1392C63.2766 26.1392 62.6403 26.0166 62.0835 25.7713C61.5299 25.526 61.0924 25.1847 60.771 24.7472C60.4495 24.3097 60.2788 23.8042 60.2589 23.2308H62.1282C62.1448 23.5059 62.2359 23.7462 62.4016 23.9517C62.5674 24.1539 62.7878 24.3113 63.0629 24.424C63.338 24.5367 63.6462 24.593 63.9876 24.593C64.3522 24.593 64.6753 24.5301 64.957 24.4041C65.2388 24.2749 65.4592 24.0959 65.6183 23.8672C65.7773 23.6385 65.8552 23.375 65.8519 23.0767C65.8552 22.7685 65.7757 22.4967 65.6133 22.2614C65.4509 22.026 65.2156 21.8421 64.9073 21.7095C64.6024 21.5769 64.2345 21.5107 63.8036 21.5107H62.9038V20.0888H63.8036C64.1583 20.0888 64.4682 20.0275 64.7333 19.9048C65.0018 19.7822 65.2122 19.6098 65.3647 19.3878C65.5172 19.1624 65.5917 18.9022 65.5884 18.6072C65.5917 18.3189 65.5271 18.0687 65.3945 17.8565C65.2653 17.6411 65.0813 17.4737 64.8427 17.3544C64.6074 17.2351 64.3306 17.1754 64.0124 17.1754C63.7009 17.1754 63.4125 17.2318 63.1474 17.3445C62.8822 17.4571 62.6684 17.6179 62.506 17.8267C62.3436 18.0322 62.2575 18.2775 62.2475 18.5625H60.4727C60.4859 17.9924 60.65 17.492 60.9648 17.0611C61.283 16.6269 61.7073 16.2888 62.2376 16.0469C62.7679 15.8016 63.3628 15.679 64.0224 15.679C64.7018 15.679 65.2918 15.8066 65.7923 16.0618C66.296 16.3137 66.6855 16.6534 66.9606 17.081C67.2357 17.5085 67.3732 17.9808 67.3732 18.4979C67.3765 19.0713 67.2075 19.5518 66.8661 19.9396C66.5281 20.3274 66.0839 20.581 65.5337 20.7003V20.7798C66.2496 20.8793 66.7982 21.1444 67.1793 21.5753C67.5638 22.0028 67.7544 22.5348 67.7511 23.1712C67.7511 23.7412 67.5887 24.2517 67.2638 24.7024C66.9424 25.1499 66.4982 25.5012 65.9315 25.7564C65.368 26.0116 64.7217 26.1392 63.9925 26.1392ZM73.0297 26V15.8182H79.6518V17.3643H74.8741V20.1286H79.3088V21.6747H74.8741V24.4538H79.6916V26H73.0297ZM86.0826 21.0185V22.5H81.4988V21.0185H86.0826ZM89.7752 15.8182V26H87.9755V15.8182H89.7752ZM95.0066 26.1491C94.2409 26.1491 93.5797 25.9901 93.0229 25.6719C92.4694 25.3504 92.0435 24.8963 91.7452 24.3097C91.4469 23.7197 91.2978 23.0253 91.2978 22.2266C91.2978 21.4411 91.4469 20.7517 91.7452 20.1584C92.0468 19.5618 92.4677 19.0978 93.008 18.7663C93.5482 18.4316 94.1829 18.2642 94.9121 18.2642C95.3828 18.2642 95.8269 18.3404 96.2445 18.4929C96.6654 18.642 97.0366 18.8741 97.3581 19.1889C97.6829 19.5038 97.9382 19.9048 98.1238 20.392C98.3094 20.8759 98.4022 21.4527 98.4022 22.1222V22.674H92.1429V21.4609H96.677C96.6737 21.1162 96.5991 20.8097 96.4533 20.5412C96.3075 20.2694 96.1036 20.0556 95.8418 19.8999C95.5833 19.7441 95.2817 19.6662 94.937 19.6662C94.5691 19.6662 94.2459 19.7557 93.9675 19.9347C93.6891 20.1103 93.472 20.3423 93.3162 20.6307C93.1638 20.9157 93.0859 21.2289 93.0826 21.5703V22.6293C93.0826 23.0734 93.1638 23.4545 93.3262 23.7727C93.4886 24.0876 93.7156 24.3295 94.0073 24.4986C94.2989 24.6643 94.6403 24.7472 95.0314 24.7472C95.2933 24.7472 95.5302 24.7107 95.7424 24.6378C95.9545 24.5616 96.1384 24.4505 96.2942 24.3047C96.45 24.1589 96.5676 23.9782 96.6472 23.7628L98.3276 23.9517C98.2215 24.3958 98.0194 24.7836 97.7211 25.1151C97.4261 25.4432 97.0482 25.6984 96.5875 25.8807C96.1268 26.0597 95.5998 26.1491 95.0066 26.1491ZM102.122 26.1541C101.638 26.1541 101.202 26.0679 100.815 25.8956C100.43 25.7199 100.125 25.4614 99.8999 25.12C99.6778 24.7786 99.5668 24.3577 99.5668 23.8572C99.5668 23.4264 99.6463 23.0701 99.8054 22.7884C99.9645 22.5066 100.182 22.2812 100.457 22.1122C100.732 21.9432 101.042 21.8156 101.386 21.7294C101.734 21.6399 102.094 21.5753 102.465 21.5355C102.913 21.4891 103.276 21.4477 103.554 21.4112C103.832 21.3714 104.035 21.3118 104.161 21.2322C104.29 21.1494 104.354 21.0218 104.354 20.8494V20.8196C104.354 20.4451 104.243 20.1551 104.021 19.9496C103.799 19.7441 103.479 19.6413 103.062 19.6413C102.621 19.6413 102.271 19.7375 102.013 19.9297C101.758 20.1219 101.585 20.349 101.496 20.6108L99.8153 20.3722C99.9479 19.9081 100.167 19.5204 100.472 19.2088C100.777 18.8939 101.149 18.6586 101.59 18.5028C102.031 18.3438 102.518 18.2642 103.052 18.2642C103.42 18.2642 103.786 18.3073 104.151 18.3935C104.515 18.4796 104.848 18.6222 105.15 18.821C105.451 19.0166 105.693 19.2834 105.876 19.6214C106.061 19.9595 106.154 20.3821 106.154 20.8892V26H104.424V24.951H104.364C104.255 25.1631 104.101 25.362 103.902 25.5476C103.706 25.7299 103.46 25.8774 103.161 25.9901C102.866 26.0994 102.52 26.1541 102.122 26.1541ZM102.589 24.8317C102.951 24.8317 103.264 24.7604 103.529 24.6179C103.794 24.4721 103.998 24.2798 104.141 24.0412C104.286 23.8026 104.359 23.5424 104.359 23.2607V22.3608C104.303 22.4072 104.207 22.4503 104.071 22.4901C103.938 22.5298 103.789 22.5646 103.624 22.5945C103.458 22.6243 103.294 22.6508 103.131 22.674C102.969 22.6972 102.828 22.7171 102.709 22.7337C102.44 22.7701 102.2 22.8298 101.988 22.9126C101.776 22.9955 101.608 23.1115 101.486 23.2607C101.363 23.4065 101.302 23.5954 101.302 23.8274C101.302 24.1589 101.423 24.4091 101.665 24.5781C101.907 24.7472 102.215 24.8317 102.589 24.8317ZM107.964 26V18.3636H109.709V19.6364H109.788C109.928 19.1955 110.166 18.8558 110.504 18.6172C110.846 18.3752 111.235 18.2543 111.673 18.2543C111.772 18.2543 111.883 18.2592 112.006 18.2692C112.132 18.2758 112.236 18.2874 112.319 18.304V19.9595C112.243 19.933 112.122 19.9098 111.956 19.8899C111.794 19.8667 111.636 19.8551 111.484 19.8551C111.156 19.8551 110.861 19.9264 110.599 20.0689C110.34 20.2081 110.136 20.402 109.987 20.6506C109.838 20.8991 109.763 21.1858 109.763 21.5107V26H107.964ZM115.314 21.5256V26H113.515V18.3636H115.235V19.6612H115.324C115.5 19.2337 115.78 18.8939 116.164 18.642C116.552 18.3902 117.031 18.2642 117.601 18.2642C118.128 18.2642 118.587 18.3769 118.978 18.6023C119.373 18.8277 119.678 19.1541 119.893 19.5817C120.112 20.0092 120.22 20.5279 120.216 21.1378V26H118.417V21.4162C118.417 20.9058 118.284 20.5064 118.019 20.218C117.757 19.9297 117.394 19.7855 116.93 19.7855C116.615 19.7855 116.335 19.8551 116.09 19.9943C115.848 20.1302 115.657 20.3274 115.518 20.5859C115.382 20.8445 115.314 21.1577 115.314 21.5256ZM122.046 26V18.3636H123.846V26H122.046ZM122.951 17.2798C122.666 17.2798 122.42 17.1854 122.215 16.9964C122.009 16.8042 121.907 16.5739 121.907 16.3054C121.907 16.0336 122.009 15.8033 122.215 15.6143C122.42 15.4221 122.666 15.326 122.951 15.326C123.239 15.326 123.484 15.4221 123.686 15.6143C123.892 15.8033 123.995 16.0336 123.995 16.3054C123.995 16.5739 123.892 16.8042 123.686 16.9964C123.484 17.1854 123.239 17.2798 122.951 17.2798ZM127.496 21.5256V26H125.696V18.3636H127.416V19.6612H127.506C127.682 19.2337 127.962 18.8939 128.346 18.642C128.734 18.3902 129.213 18.2642 129.783 18.2642C130.31 18.2642 130.769 18.3769 131.16 18.6023C131.554 18.8277 131.859 19.1541 132.075 19.5817C132.294 20.0092 132.401 20.5279 132.398 21.1378V26H130.598V21.4162C130.598 20.9058 130.466 20.5064 130.2 20.218C129.939 19.9297 129.576 19.7855 129.112 19.7855C128.797 19.7855 128.517 19.8551 128.271 19.9943C128.03 20.1302 127.839 20.3274 127.7 20.5859C127.564 20.8445 127.496 21.1577 127.496 21.5256ZM137.548 29.0227C136.902 29.0227 136.347 28.9349 135.883 28.7592C135.419 28.5869 135.046 28.3549 134.764 28.0632C134.483 27.7715 134.287 27.4484 134.178 27.0938L135.798 26.701C135.871 26.8501 135.977 26.9976 136.117 27.1435C136.256 27.2926 136.443 27.4152 136.678 27.5114C136.917 27.6108 137.217 27.6605 137.578 27.6605C138.089 27.6605 138.511 27.5362 138.846 27.2876C139.181 27.0424 139.348 26.638 139.348 26.0746V24.6278H139.259C139.166 24.8134 139.03 25.004 138.851 25.1996C138.675 25.3951 138.442 25.5592 138.15 25.6918C137.862 25.8243 137.499 25.8906 137.061 25.8906C136.475 25.8906 135.943 25.7531 135.465 25.478C134.991 25.1996 134.614 24.7853 134.332 24.2351C134.053 23.6816 133.914 22.9889 133.914 22.157C133.914 21.3184 134.053 20.6108 134.332 20.0341C134.614 19.4541 134.993 19.0149 135.47 18.7166C135.948 18.415 136.48 18.2642 137.066 18.2642C137.514 18.2642 137.882 18.3404 138.17 18.4929C138.462 18.642 138.694 18.8227 138.866 19.0348C139.038 19.2436 139.169 19.4408 139.259 19.6264H139.358V18.3636H141.133V26.1243C141.133 26.7772 140.977 27.3175 140.666 27.745C140.354 28.1726 139.928 28.4924 139.388 28.7045C138.848 28.9167 138.235 29.0227 137.548 29.0227ZM137.563 24.4787C137.945 24.4787 138.269 24.3859 138.538 24.2003C138.806 24.0147 139.01 23.7479 139.149 23.3999C139.289 23.0518 139.358 22.6342 139.358 22.147C139.358 21.6664 139.289 21.2455 139.149 20.8842C139.013 20.523 138.811 20.2429 138.543 20.044C138.278 19.8419 137.951 19.7408 137.563 19.7408C137.162 19.7408 136.828 19.8452 136.559 20.054C136.291 20.2628 136.088 20.5495 135.953 20.9141C135.817 21.2753 135.749 21.6863 135.749 22.147C135.749 22.6143 135.817 23.0237 135.953 23.375C136.092 23.723 136.296 23.9948 136.564 24.1903C136.836 24.3826 137.169 24.4787 137.563 24.4787ZM146.45 28.8636V18.3636H148.22V19.6264H148.324C148.417 19.4408 148.548 19.2436 148.717 19.0348C148.886 18.8227 149.115 18.642 149.403 18.4929C149.692 18.3404 150.059 18.2642 150.507 18.2642C151.097 18.2642 151.629 18.415 152.103 18.7166C152.58 19.0149 152.958 19.4574 153.236 20.044C153.518 20.6274 153.659 21.3433 153.659 22.1918C153.659 23.0303 153.521 23.7429 153.246 24.3295C152.971 24.9162 152.597 25.3636 152.123 25.6719C151.649 25.9801 151.112 26.1342 150.512 26.1342C150.074 26.1342 149.711 26.0613 149.423 25.9155C149.135 25.7696 148.903 25.594 148.727 25.3885C148.555 25.1797 148.421 24.9825 148.324 24.7969H148.25V28.8636H146.45ZM148.215 22.1818C148.215 22.6757 148.285 23.1082 148.424 23.4794C148.566 23.8506 148.77 24.1406 149.035 24.3494C149.304 24.5549 149.629 24.6577 150.01 24.6577C150.407 24.6577 150.741 24.5516 151.009 24.3395C151.278 24.1241 151.48 23.8307 151.616 23.4595C151.755 23.085 151.824 22.6591 151.824 22.1818C151.824 21.7079 151.756 21.2869 151.621 20.919C151.485 20.5511 151.282 20.2628 151.014 20.054C150.746 19.8452 150.411 19.7408 150.01 19.7408C149.625 19.7408 149.299 19.8419 149.03 20.044C148.762 20.2462 148.558 20.5296 148.419 20.8942C148.283 21.2588 148.215 21.688 148.215 22.1818ZM157 15.8182V26H155.2V15.8182H157ZM161.048 26.1541C160.564 26.1541 160.128 26.0679 159.74 25.8956C159.356 25.7199 159.051 25.4614 158.826 25.12C158.604 24.7786 158.493 24.3577 158.493 23.8572C158.493 23.4264 158.572 23.0701 158.731 22.7884C158.89 22.5066 159.107 22.2812 159.382 22.1122C159.658 21.9432 159.967 21.8156 160.312 21.7294C160.66 21.6399 161.02 21.5753 161.391 21.5355C161.838 21.4891 162.201 21.4477 162.48 21.4112C162.758 21.3714 162.96 21.3118 163.086 21.2322C163.216 21.1494 163.28 21.0218 163.28 20.8494V20.8196C163.28 20.4451 163.169 20.1551 162.947 19.9496C162.725 19.7441 162.405 19.6413 161.988 19.6413C161.547 19.6413 161.197 19.7375 160.939 19.9297C160.683 20.1219 160.511 20.349 160.422 20.6108L158.741 20.3722C158.874 19.9081 159.092 19.5204 159.397 19.2088C159.702 18.8939 160.075 18.6586 160.516 18.5028C160.957 18.3438 161.444 18.2642 161.978 18.2642C162.346 18.2642 162.712 18.3073 163.076 18.3935C163.441 18.4796 163.774 18.6222 164.076 18.821C164.377 19.0166 164.619 19.2834 164.801 19.6214C164.987 19.9595 165.08 20.3821 165.08 20.8892V26H163.35V24.951H163.29C163.181 25.1631 163.027 25.362 162.828 25.5476C162.632 25.7299 162.385 25.8774 162.087 25.9901C161.792 26.0994 161.446 26.1541 161.048 26.1541ZM161.515 24.8317C161.877 24.8317 162.19 24.7604 162.455 24.6179C162.72 24.4721 162.924 24.2798 163.066 24.0412C163.212 23.8026 163.285 23.5424 163.285 23.2607V22.3608C163.229 22.4072 163.133 22.4503 162.997 22.4901C162.864 22.5298 162.715 22.5646 162.549 22.5945C162.384 22.6243 162.22 22.6508 162.057 22.674C161.895 22.6972 161.754 22.7171 161.635 22.7337C161.366 22.7701 161.126 22.8298 160.914 22.9126C160.702 22.9955 160.534 23.1115 160.412 23.2607C160.289 23.4065 160.228 23.5954 160.228 23.8274C160.228 24.1589 160.349 24.4091 160.591 24.5781C160.833 24.7472 161.141 24.8317 161.515 24.8317ZM170.703 18.3636V19.7557H166.313V18.3636H170.703ZM167.397 16.5341H169.196V23.7031C169.196 23.9451 169.233 24.1307 169.306 24.2599C169.382 24.3859 169.481 24.4721 169.604 24.5185C169.727 24.5649 169.863 24.5881 170.012 24.5881C170.124 24.5881 170.227 24.5798 170.32 24.5632C170.416 24.5466 170.489 24.5317 170.539 24.5185L170.842 25.9254C170.746 25.9586 170.608 25.995 170.429 26.0348C170.254 26.0746 170.038 26.0978 169.783 26.1044C169.332 26.1177 168.926 26.0497 168.565 25.9006C168.204 25.7481 167.917 25.5128 167.705 25.1946C167.496 24.8764 167.393 24.4787 167.397 24.0014V16.5341ZM176.076 18.3636V19.7557H171.562V18.3636H176.076ZM172.69 26V17.6428C172.69 17.129 172.796 16.7015 173.008 16.3601C173.224 16.0187 173.512 15.7635 173.873 15.5945C174.235 15.4254 174.636 15.3409 175.077 15.3409C175.388 15.3409 175.665 15.3658 175.907 15.4155C176.149 15.4652 176.328 15.5099 176.444 15.5497L176.086 16.9418C176.01 16.9186 175.913 16.8954 175.797 16.8722C175.681 16.8456 175.552 16.8324 175.41 16.8324C175.075 16.8324 174.838 16.9136 174.699 17.076C174.563 17.2351 174.495 17.4638 174.495 17.7621V26H172.69ZM180.529 26.1491C179.783 26.1491 179.137 25.9851 178.59 25.657C178.043 25.3288 177.619 24.8698 177.317 24.2798C177.019 23.6899 176.87 23.0005 176.87 22.2116C176.87 21.4228 177.019 20.7318 177.317 20.1385C177.619 19.5452 178.043 19.0845 178.59 18.7564C179.137 18.4283 179.783 18.2642 180.529 18.2642C181.275 18.2642 181.921 18.4283 182.468 18.7564C183.015 19.0845 183.438 19.5452 183.736 20.1385C184.037 20.7318 184.188 21.4228 184.188 22.2116C184.188 23.0005 184.037 23.6899 183.736 24.2798C183.438 24.8698 183.015 25.3288 182.468 25.657C181.921 25.9851 181.275 26.1491 180.529 26.1491ZM180.539 24.7074C180.943 24.7074 181.281 24.5964 181.553 24.3743C181.825 24.1489 182.027 23.8473 182.16 23.4695C182.296 23.0916 182.364 22.6707 182.364 22.2067C182.364 21.7393 182.296 21.3168 182.16 20.9389C182.027 20.5578 181.825 20.2545 181.553 20.0291C181.281 19.8037 180.943 19.6911 180.539 19.6911C180.125 19.6911 179.78 19.8037 179.505 20.0291C179.233 20.2545 179.029 20.5578 178.893 20.9389C178.761 21.3168 178.695 21.7393 178.695 22.2067C178.695 22.6707 178.761 23.0916 178.893 23.4695C179.029 23.8473 179.233 24.1489 179.505 24.3743C179.78 24.5964 180.125 24.7074 180.539 24.7074ZM185.716 26V18.3636H187.461V19.6364H187.54C187.68 19.1955 187.918 18.8558 188.256 18.6172C188.598 18.3752 188.987 18.2543 189.425 18.2543C189.524 18.2543 189.635 18.2592 189.758 18.2692C189.884 18.2758 189.988 18.2874 190.071 18.304V19.9595C189.995 19.933 189.874 19.9098 189.708 19.8899C189.546 19.8667 189.388 19.8551 189.236 19.8551C188.907 19.8551 188.613 19.9264 188.351 20.0689C188.092 20.2081 187.888 20.402 187.739 20.6506C187.59 20.8991 187.515 21.1858 187.515 21.5107V26H185.716ZM191.267 26V18.3636H192.987V19.6612H193.076C193.235 19.2237 193.499 18.8823 193.867 18.6371C194.235 18.3885 194.674 18.2642 195.184 18.2642C195.701 18.2642 196.137 18.3902 196.492 18.642C196.85 18.8906 197.102 19.2304 197.247 19.6612H197.327C197.496 19.237 197.781 18.8989 198.182 18.647C198.586 18.3918 199.065 18.2642 199.619 18.2642C200.321 18.2642 200.895 18.4863 201.339 18.9304C201.783 19.3745 202.005 20.0225 202.005 20.8743V26H200.2V21.1527C200.2 20.6787 200.075 20.3324 199.823 20.1136C199.571 19.8916 199.262 19.7805 198.898 19.7805C198.464 19.7805 198.124 19.9164 197.879 20.1882C197.637 20.4567 197.516 20.8063 197.516 21.2372V26H195.751V21.0781C195.751 20.6837 195.632 20.3688 195.393 20.1335C195.158 19.8982 194.849 19.7805 194.468 19.7805C194.21 19.7805 193.974 19.8468 193.762 19.9794C193.55 20.1087 193.381 20.2926 193.255 20.5312C193.129 20.7666 193.066 21.0417 193.066 21.3565V26H191.267Z" fill="#2A2A33"/>
<rect x="29" y="37" width="51" height="9" rx="4.5" fill="#E6E6F0"/>
<rect x="29.5" y="62.5" width="69" height="23" rx="11.5" stroke="#E6E6F0"/>
<path d="M43.7841 69.2727H44.8409V75.0511C44.8409 75.6477 44.7003 76.1804 44.419 76.6491C44.1406 77.1151 43.7472 77.483 43.2386 77.7528C42.7301 78.0199 42.1335 78.1534 41.4489 78.1534C40.7642 78.1534 40.1676 78.0199 39.6591 77.7528C39.1506 77.483 38.7557 77.1151 38.4744 76.6491C38.196 76.1804 38.0568 75.6477 38.0568 75.0511V69.2727H39.1136V74.9659C39.1136 75.392 39.2074 75.7713 39.3949 76.1037C39.5824 76.4332 39.8494 76.6932 40.196 76.8835C40.5455 77.071 40.9631 77.1648 41.4489 77.1648C41.9347 77.1648 42.3523 77.071 42.7017 76.8835C43.0511 76.6932 43.3182 76.4332 43.5028 76.1037C43.6903 75.7713 43.7841 75.392 43.7841 74.9659V69.2727ZM48.0082 69.2727V78H46.9513V69.2727H48.0082ZM55.8374 78.1364C55.2919 78.1364 54.8104 77.9986 54.3928 77.723C53.9751 77.4446 53.6484 77.0526 53.4126 76.5469C53.1768 76.0384 53.0589 75.4375 53.0589 74.7443C53.0589 74.0568 53.1768 73.4602 53.4126 72.9545C53.6484 72.4489 53.9766 72.0582 54.397 71.7827C54.8175 71.5071 55.3033 71.3693 55.8544 71.3693C56.2805 71.3693 56.6172 71.4403 56.8643 71.5824C57.1143 71.7216 57.3047 71.8807 57.4354 72.0597C57.5689 72.2358 57.6726 72.3807 57.7464 72.4943H57.8317V69.2727H58.8374V78H57.8658V76.9943H57.7464C57.6726 77.1136 57.5675 77.2642 57.4311 77.446C57.2947 77.625 57.1001 77.7855 56.8473 77.9276C56.5945 78.0668 56.2578 78.1364 55.8374 78.1364ZM55.9737 77.233C56.3771 77.233 56.718 77.1278 56.9964 76.9176C57.2749 76.7045 57.4865 76.4105 57.6314 76.0355C57.7763 75.6577 57.8487 75.2216 57.8487 74.7273C57.8487 74.2386 57.7777 73.8111 57.6357 73.4446C57.4936 73.0753 57.2834 72.7884 57.005 72.5838C56.7266 72.3764 56.3828 72.2727 55.9737 72.2727C55.5476 72.2727 55.1925 72.3821 54.9084 72.6009C54.6271 72.8168 54.4155 73.1108 54.2734 73.483C54.1342 73.8523 54.0646 74.267 54.0646 74.7273C54.0646 75.1932 54.1357 75.6165 54.2777 75.9972C54.4226 76.375 54.6357 76.6761 54.9169 76.9006C55.201 77.1222 55.5533 77.233 55.9737 77.233ZM63.5632 78.1364C62.9325 78.1364 62.3885 77.9972 61.9311 77.7188C61.4766 77.4375 61.1257 77.0455 60.8786 76.5426C60.6342 76.0369 60.5121 75.4489 60.5121 74.7784C60.5121 74.108 60.6342 73.517 60.8786 73.0057C61.1257 72.4915 61.4695 72.0909 61.9098 71.804C62.353 71.5142 62.87 71.3693 63.4609 71.3693C63.8018 71.3693 64.1385 71.4261 64.4709 71.5398C64.8033 71.6534 65.1058 71.8381 65.3786 72.0938C65.6513 72.3466 65.8686 72.6818 66.0305 73.0994C66.1925 73.517 66.2734 74.0312 66.2734 74.642V75.0682H61.228V74.1989H65.2507C65.2507 73.8295 65.1768 73.5 65.0291 73.2102C64.8842 72.9205 64.6768 72.6918 64.407 72.5241C64.1399 72.3565 63.8246 72.2727 63.4609 72.2727C63.0604 72.2727 62.7138 72.3722 62.4212 72.571C62.1314 72.767 61.9084 73.0227 61.7521 73.3381C61.5959 73.6534 61.5178 73.9915 61.5178 74.3523V74.9318C61.5178 75.4261 61.603 75.8452 61.7734 76.1889C61.9467 76.5298 62.1868 76.7898 62.4936 76.9688C62.8004 77.1449 63.157 77.233 63.5632 77.233C63.8274 77.233 64.0661 77.196 64.2791 77.1222C64.495 77.0455 64.6811 76.9318 64.8374 76.7812C64.9936 76.6278 65.1143 76.4375 65.1996 76.2102L66.1712 76.483C66.0689 76.8125 65.897 77.1023 65.6555 77.3523C65.4141 77.5994 65.1158 77.7926 64.7607 77.9318C64.4055 78.0682 64.0064 78.1364 63.5632 78.1364ZM72.4396 72.9205L71.5362 73.1761C71.4794 73.0256 71.3956 72.8793 71.2848 72.7372C71.1768 72.5923 71.0291 72.473 70.8416 72.3793C70.6541 72.2855 70.4141 72.2386 70.1214 72.2386C69.7209 72.2386 69.3871 72.331 69.12 72.5156C68.8558 72.6974 68.7237 72.929 68.7237 73.2102C68.7237 73.4602 68.8146 73.6577 68.9964 73.8026C69.1783 73.9474 69.4624 74.0682 69.8487 74.1648L70.8203 74.4034C71.4055 74.5455 71.8416 74.7628 72.1286 75.0554C72.4155 75.3452 72.5589 75.7187 72.5589 76.1761C72.5589 76.5511 72.451 76.8864 72.2351 77.1818C72.022 77.4773 71.7237 77.7102 71.3402 77.8807C70.9567 78.0511 70.5107 78.1364 70.0021 78.1364C69.3345 78.1364 68.782 77.9915 68.3445 77.7017C67.907 77.4119 67.63 76.9886 67.5135 76.4318L68.468 76.1932C68.5589 76.5455 68.7308 76.8097 68.9837 76.9858C69.2393 77.1619 69.5732 77.25 69.9851 77.25C70.4538 77.25 70.826 77.1506 71.1016 76.9517C71.38 76.75 71.5192 76.5085 71.5192 76.2273C71.5192 76 71.4396 75.8097 71.2805 75.6562C71.1214 75.5 70.8771 75.3835 70.5476 75.3068L69.4567 75.0511C68.8572 74.9091 68.4169 74.6889 68.1357 74.3906C67.8572 74.0895 67.718 73.7131 67.718 73.2614C67.718 72.892 67.8217 72.5653 68.0291 72.2812C68.2393 71.9972 68.5249 71.7741 68.8857 71.6122C69.2493 71.4503 69.6612 71.3693 70.1214 71.3693C70.7692 71.3693 71.2777 71.5114 71.647 71.7955C72.0192 72.0795 72.2834 72.4545 72.4396 72.9205ZM74.0728 78V71.4545H75.0785V78H74.0728ZM74.5842 70.3636C74.3881 70.3636 74.2191 70.2969 74.0771 70.1634C73.9379 70.0298 73.8683 69.8693 73.8683 69.6818C73.8683 69.4943 73.9379 69.3338 74.0771 69.2003C74.2191 69.0668 74.3881 69 74.5842 69C74.7802 69 74.9478 69.0668 75.087 69.2003C75.229 69.3338 75.3001 69.4943 75.3001 69.6818C75.3001 69.8693 75.229 70.0298 75.087 70.1634C74.9478 70.2969 74.7802 70.3636 74.5842 70.3636ZM79.5625 80.5909C79.0767 80.5909 78.6591 80.5284 78.3097 80.4034C77.9602 80.2812 77.669 80.1193 77.4361 79.9176C77.206 79.7188 77.0227 79.5057 76.8864 79.2784L77.6875 78.7159C77.7784 78.8352 77.8935 78.9716 78.0327 79.125C78.1719 79.2812 78.3622 79.4162 78.6037 79.5298C78.848 79.6463 79.1676 79.7045 79.5625 79.7045C80.0909 79.7045 80.527 79.5767 80.8707 79.321C81.2145 79.0653 81.3864 78.6648 81.3864 78.1193V76.7898H81.3011C81.2273 76.9091 81.1222 77.0568 80.9858 77.233C80.8523 77.4062 80.6591 77.5611 80.4062 77.6974C80.1562 77.831 79.8182 77.8977 79.392 77.8977C78.8636 77.8977 78.3892 77.7727 77.9688 77.5227C77.5511 77.2727 77.2202 76.9091 76.9759 76.4318C76.7344 75.9545 76.6136 75.375 76.6136 74.6932C76.6136 74.0227 76.7315 73.4389 76.9673 72.9418C77.2031 72.4418 77.5313 72.0554 77.9517 71.7827C78.3722 71.5071 78.858 71.3693 79.4091 71.3693C79.8352 71.3693 80.1733 71.4403 80.4233 71.5824C80.6761 71.7216 80.8693 71.8807 81.0028 72.0597C81.1392 72.2358 81.2443 72.3807 81.3182 72.4943H81.4205V71.4545H82.392V78.1875C82.392 78.75 82.2642 79.2074 82.0085 79.5597C81.7557 79.9148 81.4148 80.1747 80.9858 80.3395C80.5597 80.5071 80.0852 80.5909 79.5625 80.5909ZM79.5284 76.9943C79.9318 76.9943 80.2727 76.902 80.5511 76.7173C80.8295 76.5327 81.0412 76.267 81.1861 75.9205C81.331 75.5739 81.4034 75.1591 81.4034 74.6761C81.4034 74.2045 81.3324 73.7884 81.1903 73.4276C81.0483 73.0668 80.8381 72.7841 80.5597 72.5795C80.2813 72.375 79.9375 72.2727 79.5284 72.2727C79.1023 72.2727 78.7472 72.3807 78.4631 72.5966C78.1818 72.8125 77.9702 73.1023 77.8281 73.4659C77.6889 73.8295 77.6193 74.233 77.6193 74.6761C77.6193 75.1307 77.6903 75.5327 77.8324 75.8821C77.9773 76.2287 78.1903 76.5014 78.4716 76.7003C78.7557 76.8963 79.108 76.9943 79.5284 76.9943ZM85.2386 74.0625V78H84.233V71.4545H85.2045V72.4773H85.2898C85.4432 72.1449 85.6761 71.8778 85.9886 71.6761C86.3011 71.4716 86.7045 71.3693 87.1989 71.3693C87.642 71.3693 88.0298 71.4602 88.3622 71.642C88.6946 71.821 88.9531 72.0938 89.1378 72.4602C89.3224 72.8239 89.4148 73.2841 89.4148 73.8409V78H88.4091V73.9091C88.4091 73.3949 88.2756 72.9943 88.0085 72.7074C87.7415 72.4176 87.375 72.2727 86.9091 72.2727C86.5881 72.2727 86.3011 72.3423 86.0483 72.4815C85.7983 72.6207 85.6009 72.8239 85.456 73.0909C85.3111 73.358 85.2386 73.6818 85.2386 74.0625Z" fill="#40404D"/>
<rect x="107.5" y="62.5" width="156" height="23" rx="11.5" stroke="#E6E6F0"/>
<path d="M116.057 78V69.2727H121.29V70.2102H117.114V73.1591H120.898V74.0966H117.114V78H116.057ZM122.893 78V71.4545H123.865V72.4432H123.933C124.052 72.1193 124.268 71.8565 124.581 71.6548C124.893 71.4531 125.245 71.3523 125.637 71.3523C125.711 71.3523 125.804 71.3537 125.914 71.3565C126.025 71.3594 126.109 71.3636 126.166 71.3693V72.392C126.132 72.3835 126.054 72.3707 125.931 72.3537C125.812 72.3338 125.686 72.3239 125.552 72.3239C125.234 72.3239 124.95 72.3906 124.7 72.5241C124.453 72.6548 124.257 72.8366 124.112 73.0696C123.97 73.2997 123.899 73.5625 123.899 73.858V78H122.893ZM129.818 78.1364C129.227 78.1364 128.708 77.9957 128.262 77.7145C127.819 77.4332 127.473 77.0398 127.223 76.5341C126.975 76.0284 126.852 75.4375 126.852 74.7614C126.852 74.0795 126.975 73.4844 127.223 72.9759C127.473 72.4673 127.819 72.0724 128.262 71.7912C128.708 71.5099 129.227 71.3693 129.818 71.3693C130.409 71.3693 130.926 71.5099 131.369 71.7912C131.815 72.0724 132.162 72.4673 132.409 72.9759C132.659 73.4844 132.784 74.0795 132.784 74.7614C132.784 75.4375 132.659 76.0284 132.409 76.5341C132.162 77.0398 131.815 77.4332 131.369 77.7145C130.926 77.9957 130.409 78.1364 129.818 78.1364ZM129.818 77.233C130.267 77.233 130.636 77.1179 130.926 76.8878C131.216 76.6577 131.43 76.3551 131.569 75.9801C131.708 75.6051 131.778 75.1989 131.778 74.7614C131.778 74.3239 131.708 73.9162 131.569 73.5384C131.43 73.1605 131.216 72.8551 130.926 72.6222C130.636 72.3892 130.267 72.2727 129.818 72.2727C129.369 72.2727 129 72.3892 128.71 72.6222C128.42 72.8551 128.206 73.1605 128.066 73.5384C127.927 73.9162 127.858 74.3239 127.858 74.7614C127.858 75.1989 127.927 75.6051 128.066 75.9801C128.206 76.3551 128.42 76.6577 128.71 76.8878C129 77.1179 129.369 77.233 129.818 77.233ZM135.325 74.0625V78H134.319V71.4545H135.29V72.4773H135.376C135.529 72.1449 135.762 71.8778 136.075 71.6761C136.387 71.4716 136.79 71.3693 137.285 71.3693C137.728 71.3693 138.116 71.4602 138.448 71.642C138.781 71.821 139.039 72.0938 139.224 72.4602C139.408 72.8239 139.501 73.2841 139.501 73.8409V78H138.495V73.9091C138.495 73.3949 138.362 72.9943 138.094 72.7074C137.827 72.4176 137.461 72.2727 136.995 72.2727C136.674 72.2727 136.387 72.3423 136.134 72.4815C135.884 72.6207 135.687 72.8239 135.542 73.0909C135.397 73.358 135.325 73.6818 135.325 74.0625ZM144.185 71.4545V72.3068H140.793V71.4545H144.185ZM141.782 69.8864H142.787V76.125C142.787 76.4091 142.828 76.6222 142.911 76.7642C142.996 76.9034 143.104 76.9972 143.235 77.0455C143.368 77.0909 143.509 77.1136 143.657 77.1136C143.767 77.1136 143.858 77.108 143.929 77.0966C144 77.0824 144.057 77.071 144.1 77.0625L144.304 77.9659C144.236 77.9915 144.141 78.017 144.019 78.0426C143.897 78.071 143.742 78.0852 143.554 78.0852C143.27 78.0852 142.992 78.0241 142.719 77.902C142.449 77.7798 142.225 77.5938 142.046 77.3438C141.87 77.0938 141.782 76.7784 141.782 76.3977V69.8864ZM149.213 73.7898V74.7273H145.395V73.7898H149.213ZM153.727 78.1364C153.097 78.1364 152.553 77.9972 152.095 77.7188C151.641 77.4375 151.29 77.0455 151.043 76.5426C150.798 76.0369 150.676 75.4489 150.676 74.7784C150.676 74.108 150.798 73.517 151.043 73.0057C151.29 72.4915 151.634 72.0909 152.074 71.804C152.517 71.5142 153.034 71.3693 153.625 71.3693C153.966 71.3693 154.303 71.4261 154.635 71.5398C154.967 71.6534 155.27 71.8381 155.543 72.0938C155.815 72.3466 156.033 72.6818 156.195 73.0994C156.357 73.517 156.438 74.0312 156.438 74.642V75.0682H151.392V74.1989H155.415C155.415 73.8295 155.341 73.5 155.193 73.2102C155.048 72.9205 154.841 72.6918 154.571 72.5241C154.304 72.3565 153.989 72.2727 153.625 72.2727C153.224 72.2727 152.878 72.3722 152.585 72.571C152.295 72.767 152.072 73.0227 151.916 73.3381C151.76 73.6534 151.682 73.9915 151.682 74.3523V74.9318C151.682 75.4261 151.767 75.8452 151.938 76.1889C152.111 76.5298 152.351 76.7898 152.658 76.9688C152.964 77.1449 153.321 77.233 153.727 77.233C153.991 77.233 154.23 77.196 154.443 77.1222C154.659 77.0455 154.845 76.9318 155.001 76.7812C155.158 76.6278 155.278 76.4375 155.364 76.2102L156.335 76.483C156.233 76.8125 156.061 77.1023 155.82 77.3523C155.578 77.5994 155.28 77.7926 154.925 77.9318C154.57 78.0682 154.17 78.1364 153.727 78.1364ZM158.973 74.0625V78H157.967V71.4545H158.939V72.4773H159.024C159.178 72.1449 159.411 71.8778 159.723 71.6761C160.036 71.4716 160.439 71.3693 160.933 71.3693C161.376 71.3693 161.764 71.4602 162.097 71.642C162.429 71.821 162.688 72.0938 162.872 72.4602C163.057 72.8239 163.149 73.2841 163.149 73.8409V78H162.143V73.9091C162.143 73.3949 162.01 72.9943 161.743 72.7074C161.476 72.4176 161.109 72.2727 160.643 72.2727C160.322 72.2727 160.036 72.3423 159.783 72.4815C159.533 72.6207 159.335 72.8239 159.19 73.0909C159.045 73.358 158.973 73.6818 158.973 74.0625ZM167.458 78.1364C166.913 78.1364 166.431 77.9986 166.014 77.723C165.596 77.4446 165.27 77.0526 165.034 76.5469C164.798 76.0384 164.68 75.4375 164.68 74.7443C164.68 74.0568 164.798 73.4602 165.034 72.9545C165.27 72.4489 165.598 72.0582 166.018 71.7827C166.439 71.5071 166.924 71.3693 167.475 71.3693C167.902 71.3693 168.238 71.4403 168.485 71.5824C168.735 71.7216 168.926 71.8807 169.056 72.0597C169.19 72.2358 169.294 72.3807 169.368 72.4943H169.453V69.2727H170.458V78H169.487V76.9943H169.368C169.294 77.1136 169.189 77.2642 169.052 77.446C168.916 77.625 168.721 77.7855 168.468 77.9276C168.216 78.0668 167.879 78.1364 167.458 78.1364ZM167.595 77.233C167.998 77.233 168.339 77.1278 168.618 76.9176C168.896 76.7045 169.108 76.4105 169.252 76.0355C169.397 75.6577 169.47 75.2216 169.47 74.7273C169.47 74.2386 169.399 73.8111 169.257 73.4446C169.115 73.0753 168.904 72.7884 168.626 72.5838C168.348 72.3764 168.004 72.2727 167.595 72.2727C167.169 72.2727 166.814 72.3821 166.529 72.6009C166.248 72.8168 166.037 73.1108 165.895 73.483C165.755 73.8523 165.686 74.267 165.686 74.7273C165.686 75.1932 165.757 75.6165 165.899 75.9972C166.044 76.375 166.257 76.6761 166.538 76.9006C166.822 77.1222 167.174 77.233 167.595 77.233ZM178.287 78.1364C177.741 78.1364 177.26 77.9986 176.842 77.723C176.424 77.4446 176.098 77.0526 175.862 76.5469C175.626 76.0384 175.508 75.4375 175.508 74.7443C175.508 74.0568 175.626 73.4602 175.862 72.9545C176.098 72.4489 176.426 72.0582 176.846 71.7827C177.267 71.5071 177.752 71.3693 178.304 71.3693C178.73 71.3693 179.066 71.4403 179.314 71.5824C179.564 71.7216 179.754 71.8807 179.885 72.0597C180.018 72.2358 180.122 72.3807 180.196 72.4943H180.281V69.2727H181.287V78H180.315V76.9943H180.196C180.122 77.1136 180.017 77.2642 179.88 77.446C179.744 77.625 179.549 77.7855 179.297 77.9276C179.044 78.0668 178.707 78.1364 178.287 78.1364ZM178.423 77.233C178.826 77.233 179.167 77.1278 179.446 76.9176C179.724 76.7045 179.936 76.4105 180.081 76.0355C180.225 75.6577 180.298 75.2216 180.298 74.7273C180.298 74.2386 180.227 73.8111 180.085 73.4446C179.943 73.0753 179.733 72.7884 179.454 72.5838C179.176 72.3764 178.832 72.2727 178.423 72.2727C177.997 72.2727 177.642 72.3821 177.358 72.6009C177.076 72.8168 176.865 73.1108 176.723 73.483C176.583 73.8523 176.514 74.267 176.514 74.7273C176.514 75.1932 176.585 75.6165 176.727 75.9972C176.872 76.375 177.085 76.6761 177.366 76.9006C177.65 77.1222 178.002 77.233 178.423 77.233ZM186.012 78.1364C185.382 78.1364 184.838 77.9972 184.38 77.7188C183.926 77.4375 183.575 77.0455 183.328 76.5426C183.083 76.0369 182.961 75.4489 182.961 74.7784C182.961 74.108 183.083 73.517 183.328 73.0057C183.575 72.4915 183.919 72.0909 184.359 71.804C184.802 71.5142 185.319 71.3693 185.91 71.3693C186.251 71.3693 186.588 71.4261 186.92 71.5398C187.252 71.6534 187.555 71.8381 187.828 72.0938C188.1 72.3466 188.318 72.6818 188.48 73.0994C188.642 73.517 188.723 74.0312 188.723 74.642V75.0682H183.677V74.1989H187.7C187.7 73.8295 187.626 73.5 187.478 73.2102C187.333 72.9205 187.126 72.6918 186.856 72.5241C186.589 72.3565 186.274 72.2727 185.91 72.2727C185.51 72.2727 185.163 72.3722 184.87 72.571C184.581 72.767 184.358 73.0227 184.201 73.3381C184.045 73.6534 183.967 73.9915 183.967 74.3523V74.9318C183.967 75.4261 184.052 75.8452 184.223 76.1889C184.396 76.5298 184.636 76.7898 184.943 76.9688C185.25 77.1449 185.606 77.233 186.012 77.233C186.277 77.233 186.515 77.196 186.728 77.1222C186.944 77.0455 187.13 76.9318 187.287 76.7812C187.443 76.6278 187.564 76.4375 187.649 76.2102L188.62 76.483C188.518 76.8125 188.346 77.1023 188.105 77.3523C187.863 77.5994 187.565 77.7926 187.21 77.9318C186.855 78.0682 186.456 78.1364 186.012 78.1364ZM195.406 71.4545L192.985 78H191.962L189.542 71.4545H190.633L192.44 76.6705H192.508L194.315 71.4545H195.406ZM199.243 78.1364C198.612 78.1364 198.068 77.9972 197.611 77.7188C197.156 77.4375 196.805 77.0455 196.558 76.5426C196.314 76.0369 196.192 75.4489 196.192 74.7784C196.192 74.108 196.314 73.517 196.558 73.0057C196.805 72.4915 197.149 72.0909 197.589 71.804C198.033 71.5142 198.55 71.3693 199.141 71.3693C199.482 71.3693 199.818 71.4261 200.151 71.5398C200.483 71.6534 200.786 71.8381 201.058 72.0938C201.331 72.3466 201.548 72.6818 201.71 73.0994C201.872 73.517 201.953 74.0312 201.953 74.642V75.0682H196.908V74.1989H200.93C200.93 73.8295 200.857 73.5 200.709 73.2102C200.564 72.9205 200.357 72.6918 200.087 72.5241C199.82 72.3565 199.504 72.2727 199.141 72.2727C198.74 72.2727 198.393 72.3722 198.101 72.571C197.811 72.767 197.588 73.0227 197.432 73.3381C197.276 73.6534 197.197 73.9915 197.197 74.3523V74.9318C197.197 75.4261 197.283 75.8452 197.453 76.1889C197.626 76.5298 197.866 76.7898 198.173 76.9688C198.48 77.1449 198.837 77.233 199.243 77.233C199.507 77.233 199.746 77.196 199.959 77.1222C200.175 77.0455 200.361 76.9318 200.517 76.7812C200.673 76.6278 200.794 76.4375 200.879 76.2102L201.851 76.483C201.749 76.8125 201.577 77.1023 201.335 77.3523C201.094 77.5994 200.795 77.7926 200.44 77.9318C200.085 78.0682 199.686 78.1364 199.243 78.1364ZM204.489 69.2727V78H203.483V69.2727H204.489ZM208.99 78.1364C208.399 78.1364 207.88 77.9957 207.434 77.7145C206.991 77.4332 206.645 77.0398 206.395 76.5341C206.147 76.0284 206.024 75.4375 206.024 74.7614C206.024 74.0795 206.147 73.4844 206.395 72.9759C206.645 72.4673 206.991 72.0724 207.434 71.7912C207.88 71.5099 208.399 71.3693 208.99 71.3693C209.581 71.3693 210.098 71.5099 210.541 71.7912C210.987 72.0724 211.333 72.4673 211.581 72.9759C211.831 73.4844 211.956 74.0795 211.956 74.7614C211.956 75.4375 211.831 76.0284 211.581 76.5341C211.333 77.0398 210.987 77.4332 210.541 77.7145C210.098 77.9957 209.581 78.1364 208.99 78.1364ZM208.99 77.233C209.439 77.233 209.808 77.1179 210.098 76.8878C210.387 76.6577 210.602 76.3551 210.741 75.9801C210.88 75.6051 210.95 75.1989 210.95 74.7614C210.95 74.3239 210.88 73.9162 210.741 73.5384C210.602 73.1605 210.387 72.8551 210.098 72.6222C209.808 72.3892 209.439 72.2727 208.99 72.2727C208.541 72.2727 208.172 72.3892 207.882 72.6222C207.592 72.8551 207.377 73.1605 207.238 73.5384C207.099 73.9162 207.029 74.3239 207.029 74.7614C207.029 75.1989 207.099 75.6051 207.238 75.9801C207.377 76.3551 207.592 76.6577 207.882 76.8878C208.172 77.1179 208.541 77.233 208.99 77.233ZM213.491 80.4545V71.4545H214.462V72.4943H214.582C214.656 72.3807 214.758 72.2358 214.888 72.0597C215.022 71.8807 215.212 71.7216 215.46 71.5824C215.71 71.4403 216.048 71.3693 216.474 71.3693C217.025 71.3693 217.511 71.5071 217.931 71.7827C218.352 72.0582 218.68 72.4489 218.915 72.9545C219.151 73.4602 219.269 74.0568 219.269 74.7443C219.269 75.4375 219.151 76.0384 218.915 76.5469C218.68 77.0526 218.353 77.4446 217.935 77.723C217.518 77.9986 217.036 78.1364 216.491 78.1364C216.07 78.1364 215.734 78.0668 215.481 77.9276C215.228 77.7855 215.033 77.625 214.897 77.446C214.761 77.2642 214.656 77.1136 214.582 76.9943H214.496V80.4545H213.491ZM214.479 74.7273C214.479 75.2216 214.552 75.6577 214.697 76.0355C214.842 76.4105 215.053 76.7045 215.332 76.9176C215.61 77.1278 215.951 77.233 216.354 77.233C216.775 77.233 217.126 77.1222 217.407 76.9006C217.691 76.6761 217.904 76.375 218.046 75.9972C218.191 75.6165 218.263 75.1932 218.263 74.7273C218.263 74.267 218.192 73.8523 218.05 73.483C217.911 73.1108 217.7 72.8168 217.415 72.6009C217.134 72.3821 216.781 72.2727 216.354 72.2727C215.945 72.2727 215.602 72.3764 215.323 72.5838C215.045 72.7884 214.835 73.0753 214.692 73.4446C214.55 73.8111 214.479 74.2386 214.479 74.7273ZM223.548 78.1364C222.917 78.1364 222.373 77.9972 221.915 77.7188C221.461 77.4375 221.11 77.0455 220.863 76.5426C220.619 76.0369 220.496 75.4489 220.496 74.7784C220.496 74.108 220.619 73.517 220.863 73.0057C221.11 72.4915 221.454 72.0909 221.894 71.804C222.337 71.5142 222.854 71.3693 223.445 71.3693C223.786 71.3693 224.123 71.4261 224.455 71.5398C224.788 71.6534 225.09 71.8381 225.363 72.0938C225.636 72.3466 225.853 72.6818 226.015 73.0994C226.177 73.517 226.258 74.0312 226.258 74.642V75.0682H221.212V74.1989H225.235C225.235 73.8295 225.161 73.5 225.013 73.2102C224.869 72.9205 224.661 72.6918 224.391 72.5241C224.124 72.3565 223.809 72.2727 223.445 72.2727C223.045 72.2727 222.698 72.3722 222.406 72.571C222.116 72.767 221.893 73.0227 221.737 73.3381C221.58 73.6534 221.502 73.9915 221.502 74.3523V74.9318C221.502 75.4261 221.587 75.8452 221.758 76.1889C221.931 76.5298 222.171 76.7898 222.478 76.9688C222.785 77.1449 223.141 77.233 223.548 77.233C223.812 77.233 224.05 77.196 224.263 77.1222C224.479 77.0455 224.665 76.9318 224.822 76.7812C224.978 76.6278 225.099 76.4375 225.184 76.2102L226.156 76.483C226.053 76.8125 225.881 77.1023 225.64 77.3523C225.398 77.5994 225.1 77.7926 224.745 77.9318C224.39 78.0682 223.991 78.1364 223.548 78.1364ZM227.788 78V71.4545H228.759V72.4773H228.844C228.981 72.1278 229.201 71.8565 229.505 71.6634C229.809 71.4673 230.174 71.3693 230.6 71.3693C231.032 71.3693 231.391 71.4673 231.678 71.6634C231.968 71.8565 232.194 72.1278 232.356 72.4773H232.424C232.592 72.1392 232.843 71.8707 233.178 71.6719C233.513 71.4702 233.915 71.3693 234.384 71.3693C234.969 71.3693 235.448 71.5526 235.82 71.919C236.192 72.2827 236.379 72.8494 236.379 73.6193V78H235.373V73.6193C235.373 73.1364 235.241 72.7912 234.977 72.5838C234.712 72.3764 234.401 72.2727 234.043 72.2727C233.583 72.2727 233.227 72.4119 232.974 72.6903C232.721 72.9659 232.594 73.3153 232.594 73.7386V78H231.572V73.517C231.572 73.1449 231.451 72.8452 231.21 72.6179C230.968 72.3878 230.657 72.2727 230.276 72.2727C230.015 72.2727 229.771 72.3423 229.543 72.4815C229.319 72.6207 229.137 72.8139 228.998 73.0611C228.862 73.3054 228.793 73.5881 228.793 73.9091V78H227.788ZM240.962 78.1364C240.331 78.1364 239.787 77.9972 239.33 77.7188C238.875 77.4375 238.524 77.0455 238.277 76.5426C238.033 76.0369 237.911 75.4489 237.911 74.7784C237.911 74.108 238.033 73.517 238.277 73.0057C238.524 72.4915 238.868 72.0909 239.308 71.804C239.751 71.5142 240.268 71.3693 240.859 71.3693C241.2 71.3693 241.537 71.4261 241.869 71.5398C242.202 71.6534 242.504 71.8381 242.777 72.0938C243.05 72.3466 243.267 72.6818 243.429 73.0994C243.591 73.517 243.672 74.0312 243.672 74.642V75.0682H238.626V74.1989H242.649C242.649 73.8295 242.575 73.5 242.428 73.2102C242.283 72.9205 242.075 72.6918 241.805 72.5241C241.538 72.3565 241.223 72.2727 240.859 72.2727C240.459 72.2727 240.112 72.3722 239.82 72.571C239.53 72.767 239.307 73.0227 239.151 73.3381C238.994 73.6534 238.916 73.9915 238.916 74.3523V74.9318C238.916 75.4261 239.001 75.8452 239.172 76.1889C239.345 76.5298 239.585 76.7898 239.892 76.9688C240.199 77.1449 240.555 77.233 240.962 77.233C241.226 77.233 241.464 77.196 241.678 77.1222C241.893 77.0455 242.08 76.9318 242.236 76.7812C242.392 76.6278 242.513 76.4375 242.598 76.2102L243.57 76.483C243.467 76.8125 243.295 77.1023 243.054 77.3523C242.813 77.5994 242.514 77.7926 242.159 77.9318C241.804 78.0682 241.405 78.1364 240.962 78.1364ZM246.207 74.0625V78H245.202V71.4545H246.173V72.4773H246.259C246.412 72.1449 246.645 71.8778 246.957 71.6761C247.27 71.4716 247.673 71.3693 248.168 71.3693C248.611 71.3693 248.999 71.4602 249.331 71.642C249.663 71.821 249.922 72.0938 250.107 72.4602C250.291 72.8239 250.384 73.2841 250.384 73.8409V78H249.378V73.9091C249.378 73.3949 249.244 72.9943 248.977 72.7074C248.71 72.4176 248.344 72.2727 247.878 72.2727C247.557 72.2727 247.27 72.3423 247.017 72.4815C246.767 72.6207 246.57 72.8239 246.425 73.0909C246.28 73.358 246.207 73.6818 246.207 74.0625ZM255.068 71.4545V72.3068H251.676V71.4545H255.068ZM252.664 69.8864H253.67V76.125C253.67 76.4091 253.711 76.6222 253.794 76.7642C253.879 76.9034 253.987 76.9972 254.118 77.0455C254.251 77.0909 254.392 77.1136 254.539 77.1136C254.65 77.1136 254.741 77.108 254.812 77.0966C254.883 77.0824 254.94 77.071 254.983 77.0625L255.187 77.9659C255.119 77.9915 255.024 78.017 254.902 78.0426C254.779 78.071 254.625 78.0852 254.437 78.0852C254.153 78.0852 253.875 78.0241 253.602 77.902C253.332 77.7798 253.108 77.5938 252.929 77.3438C252.752 77.0938 252.664 76.7784 252.664 76.3977V69.8864Z" fill="#40404D"/>
<rect x="29.5" y="94.5" width="159" height="23" rx="11.5" stroke="#E6E6F0"/>
<path d="M38.0568 110V101.273H41.108C41.7159 101.273 42.2173 101.378 42.6122 101.588C43.0071 101.795 43.3011 102.075 43.4943 102.428C43.6875 102.777 43.7841 103.165 43.7841 103.591C43.7841 103.966 43.7173 104.276 43.5838 104.52C43.4531 104.764 43.2798 104.957 43.0639 105.099C42.8509 105.241 42.6193 105.347 42.3693 105.415V105.5C42.6364 105.517 42.9048 105.611 43.1747 105.781C43.4446 105.952 43.6705 106.196 43.8523 106.514C44.0341 106.832 44.125 107.222 44.125 107.682C44.125 108.119 44.0256 108.513 43.8267 108.862C43.6278 109.212 43.3139 109.489 42.8849 109.693C42.456 109.898 41.8977 110 41.2102 110H38.0568ZM39.1136 109.062H41.2102C41.9006 109.062 42.3906 108.929 42.6804 108.662C42.973 108.392 43.1193 108.065 43.1193 107.682C43.1193 107.386 43.044 107.114 42.8935 106.864C42.7429 106.611 42.5284 106.409 42.25 106.259C41.9716 106.105 41.642 106.028 41.2614 106.028H39.1136V109.062ZM39.1136 105.108H41.0739C41.392 105.108 41.679 105.045 41.9347 104.92C42.1932 104.795 42.3977 104.619 42.5483 104.392C42.7017 104.165 42.7784 103.898 42.7784 103.591C42.7784 103.207 42.6449 102.882 42.3778 102.615C42.1108 102.345 41.6875 102.21 41.108 102.21H39.1136V105.108ZM46.7308 101.273V110H45.7251V101.273H46.7308ZM51.2319 110.136C50.641 110.136 50.1225 109.996 49.6765 109.714C49.2333 109.433 48.8867 109.04 48.6367 108.534C48.3896 108.028 48.266 107.437 48.266 106.761C48.266 106.08 48.3896 105.484 48.6367 104.976C48.8867 104.467 49.2333 104.072 49.6765 103.791C50.1225 103.51 50.641 103.369 51.2319 103.369C51.8228 103.369 52.3398 103.51 52.783 103.791C53.229 104.072 53.5756 104.467 53.8228 104.976C54.0728 105.484 54.1978 106.08 54.1978 106.761C54.1978 107.437 54.0728 108.028 53.8228 108.534C53.5756 109.04 53.229 109.433 52.783 109.714C52.3398 109.996 51.8228 110.136 51.2319 110.136ZM51.2319 109.233C51.6808 109.233 52.0501 109.118 52.3398 108.888C52.6296 108.658 52.8441 108.355 52.9833 107.98C53.1225 107.605 53.1921 107.199 53.1921 106.761C53.1921 106.324 53.1225 105.916 52.9833 105.538C52.8441 105.161 52.6296 104.855 52.3398 104.622C52.0501 104.389 51.6808 104.273 51.2319 104.273C50.783 104.273 50.4137 104.389 50.1239 104.622C49.8342 104.855 49.6197 105.161 49.4805 105.538C49.3413 105.916 49.2717 106.324 49.2717 106.761C49.2717 107.199 49.3413 107.605 49.4805 107.98C49.6197 108.355 49.8342 108.658 50.1239 108.888C50.4137 109.118 50.783 109.233 51.2319 109.233ZM58.392 110.136C57.7784 110.136 57.25 109.991 56.8068 109.702C56.3636 109.412 56.0227 109.013 55.7841 108.504C55.5455 107.996 55.4261 107.415 55.4261 106.761C55.4261 106.097 55.5483 105.51 55.7926 105.001C56.0398 104.49 56.3835 104.091 56.8239 103.804C57.267 103.514 57.7841 103.369 58.375 103.369C58.8352 103.369 59.25 103.455 59.6193 103.625C59.9886 103.795 60.2912 104.034 60.527 104.341C60.7628 104.648 60.9091 105.006 60.9659 105.415H59.9602C59.8835 105.116 59.7131 104.852 59.4489 104.622C59.1875 104.389 58.8352 104.273 58.392 104.273C58 104.273 57.6563 104.375 57.3608 104.58C57.0682 104.781 56.8395 105.067 56.6747 105.436C56.5128 105.803 56.4318 106.233 56.4318 106.727C56.4318 107.233 56.5114 107.673 56.6705 108.048C56.8324 108.423 57.0597 108.714 57.3523 108.922C57.6477 109.129 57.9943 109.233 58.392 109.233C58.6534 109.233 58.8906 109.188 59.1037 109.097C59.3168 109.006 59.4972 108.875 59.6449 108.705C59.7926 108.534 59.8977 108.33 59.9602 108.091H60.9659C60.9091 108.477 60.7685 108.825 60.544 109.135C60.3224 109.442 60.0284 109.686 59.6619 109.868C59.2983 110.047 58.875 110.136 58.392 110.136ZM63.3736 107.614L63.3565 106.369H63.5611L66.4247 103.455H67.669L64.6179 106.54H64.5327L63.3736 107.614ZM62.4361 110V101.273H63.4418V110H62.4361ZM66.5952 110L64.0384 106.761L64.7543 106.062L67.8736 110H66.5952ZM72.1626 105.79V106.727H68.3445V105.79H72.1626ZM76.5913 110.136C75.9776 110.136 75.4492 109.991 75.006 109.702C74.5629 109.412 74.2219 109.013 73.9833 108.504C73.7447 107.996 73.6254 107.415 73.6254 106.761C73.6254 106.097 73.7475 105.51 73.9918 105.001C74.239 104.49 74.5827 104.091 75.0231 103.804C75.4663 103.514 75.9833 103.369 76.5742 103.369C77.0344 103.369 77.4492 103.455 77.8185 103.625C78.1879 103.795 78.4904 104.034 78.7262 104.341C78.962 104.648 79.1083 105.006 79.1651 105.415H78.1594C78.0827 105.116 77.9123 104.852 77.6481 104.622C77.3867 104.389 77.0344 104.273 76.5913 104.273C76.1992 104.273 75.8555 104.375 75.56 104.58C75.2674 104.781 75.0387 105.067 74.8739 105.436C74.712 105.803 74.631 106.233 74.631 106.727C74.631 107.233 74.7106 107.673 74.8697 108.048C75.0316 108.423 75.2589 108.714 75.5515 108.922C75.8469 109.129 76.1935 109.233 76.5913 109.233C76.8526 109.233 77.0898 109.188 77.3029 109.097C77.516 109.006 77.6964 108.875 77.8441 108.705C77.9918 108.534 78.0969 108.33 78.1594 108.091H79.1651C79.1083 108.477 78.9677 108.825 78.7433 109.135C78.5217 109.442 78.2276 109.686 77.8612 109.868C77.4975 110.047 77.0742 110.136 76.5913 110.136ZM81.641 106.062V110H80.6353V101.273H81.641V104.477H81.7262C81.8796 104.139 82.1097 103.871 82.4165 103.672C82.7262 103.47 83.1381 103.369 83.6523 103.369C84.0984 103.369 84.489 103.459 84.8242 103.638C85.1594 103.814 85.4194 104.085 85.604 104.452C85.7915 104.815 85.8853 105.278 85.8853 105.841V110H84.8796V105.909C84.8796 105.389 84.7447 104.987 84.4748 104.703C84.2077 104.416 83.837 104.273 83.3626 104.273C83.033 104.273 82.7376 104.342 82.4762 104.482C82.2177 104.621 82.0131 104.824 81.8626 105.091C81.7148 105.358 81.641 105.682 81.641 106.062ZM89.6513 110.153C89.2365 110.153 88.8601 110.075 88.522 109.919C88.1839 109.76 87.9155 109.531 87.7166 109.233C87.5178 108.932 87.4183 108.568 87.4183 108.142C87.4183 107.767 87.4922 107.463 87.6399 107.23C87.7876 106.994 87.9851 106.81 88.2322 106.676C88.4794 106.543 88.7521 106.443 89.0504 106.378C89.3516 106.31 89.6541 106.256 89.9581 106.216C90.3558 106.165 90.6783 106.126 90.9254 106.101C91.1754 106.072 91.3572 106.026 91.4709 105.96C91.5874 105.895 91.6456 105.781 91.6456 105.619V105.585C91.6456 105.165 91.5305 104.838 91.3004 104.605C91.0732 104.372 90.728 104.256 90.2649 104.256C89.7848 104.256 89.4084 104.361 89.1357 104.571C88.8629 104.781 88.6712 105.006 88.5604 105.244L87.6058 104.903C87.7763 104.506 88.0036 104.196 88.2876 103.974C88.5746 103.75 88.8871 103.594 89.2251 103.506C89.5661 103.415 89.9013 103.369 90.2308 103.369C90.4411 103.369 90.6825 103.395 90.9553 103.446C91.2308 103.494 91.4964 103.595 91.7521 103.749C92.0107 103.902 92.2251 104.134 92.3956 104.443C92.5661 104.753 92.6513 105.168 92.6513 105.688V110H91.6456V109.114H91.5945C91.5263 109.256 91.4126 109.408 91.2536 109.57C91.0945 109.732 90.8828 109.869 90.6186 109.983C90.3544 110.097 90.032 110.153 89.6513 110.153ZM89.8047 109.25C90.2024 109.25 90.5376 109.172 90.8104 109.016C91.0859 108.859 91.2933 108.658 91.4325 108.411C91.5746 108.163 91.6456 107.903 91.6456 107.631V106.71C91.603 106.761 91.5092 106.808 91.3643 106.851C91.2223 106.891 91.0575 106.926 90.87 106.957C90.6854 106.986 90.505 107.011 90.3288 107.034C90.1555 107.054 90.0149 107.071 89.907 107.085C89.6456 107.119 89.4013 107.175 89.174 107.251C88.9496 107.325 88.7678 107.437 88.6286 107.588C88.4922 107.736 88.424 107.937 88.424 108.193C88.424 108.543 88.5533 108.807 88.8118 108.986C89.0732 109.162 89.4041 109.25 89.8047 109.25ZM94.4869 110V103.455H95.4925V110H94.4869ZM94.9982 102.364C94.8022 102.364 94.6332 102.297 94.4911 102.163C94.3519 102.03 94.2823 101.869 94.2823 101.682C94.2823 101.494 94.3519 101.334 94.4911 101.2C94.6332 101.067 94.8022 101 94.9982 101C95.1942 101 95.3619 101.067 95.5011 101.2C95.6431 101.334 95.7141 101.494 95.7141 101.682C95.7141 101.869 95.6431 102.03 95.5011 102.163C95.3619 102.297 95.1942 102.364 94.9982 102.364ZM98.3402 106.062V110H97.3345V103.455H98.3061V104.477H98.3913C98.5447 104.145 98.7777 103.878 99.0902 103.676C99.4027 103.472 99.8061 103.369 100.3 103.369C100.744 103.369 101.131 103.46 101.464 103.642C101.796 103.821 102.055 104.094 102.239 104.46C102.424 104.824 102.516 105.284 102.516 105.841V110H101.511V105.909C101.511 105.395 101.377 104.994 101.11 104.707C100.843 104.418 100.477 104.273 100.011 104.273C99.6896 104.273 99.4027 104.342 99.1499 104.482C98.8999 104.621 98.7024 104.824 98.5575 105.091C98.4126 105.358 98.3402 105.682 98.3402 106.062ZM110.201 110.136C109.655 110.136 109.174 109.999 108.756 109.723C108.338 109.445 108.012 109.053 107.776 108.547C107.54 108.038 107.422 107.438 107.422 106.744C107.422 106.057 107.54 105.46 107.776 104.955C108.012 104.449 108.34 104.058 108.76 103.783C109.181 103.507 109.667 103.369 110.218 103.369C110.644 103.369 110.98 103.44 111.228 103.582C111.478 103.722 111.668 103.881 111.799 104.06C111.932 104.236 112.036 104.381 112.11 104.494H112.195V101.273H113.201V110H112.229V108.994H112.11C112.036 109.114 111.931 109.264 111.794 109.446C111.658 109.625 111.463 109.786 111.211 109.928C110.958 110.067 110.621 110.136 110.201 110.136ZM110.337 109.233C110.74 109.233 111.081 109.128 111.36 108.918C111.638 108.705 111.85 108.411 111.995 108.036C112.14 107.658 112.212 107.222 112.212 106.727C112.212 106.239 112.141 105.811 111.999 105.445C111.857 105.075 111.647 104.788 111.368 104.584C111.09 104.376 110.746 104.273 110.337 104.273C109.911 104.273 109.556 104.382 109.272 104.601C108.99 104.817 108.779 105.111 108.637 105.483C108.498 105.852 108.428 106.267 108.428 106.727C108.428 107.193 108.499 107.616 108.641 107.997C108.786 108.375 108.999 108.676 109.28 108.901C109.564 109.122 109.917 109.233 110.337 109.233ZM117.926 110.136C117.296 110.136 116.752 109.997 116.294 109.719C115.84 109.438 115.489 109.045 115.242 108.543C114.998 108.037 114.875 107.449 114.875 106.778C114.875 106.108 114.998 105.517 115.242 105.006C115.489 104.491 115.833 104.091 116.273 103.804C116.716 103.514 117.233 103.369 117.824 103.369C118.165 103.369 118.502 103.426 118.834 103.54C119.167 103.653 119.469 103.838 119.742 104.094C120.015 104.347 120.232 104.682 120.394 105.099C120.556 105.517 120.637 106.031 120.637 106.642V107.068H115.591V106.199H119.614C119.614 105.83 119.54 105.5 119.392 105.21C119.248 104.92 119.04 104.692 118.77 104.524C118.503 104.357 118.188 104.273 117.824 104.273C117.424 104.273 117.077 104.372 116.784 104.571C116.495 104.767 116.272 105.023 116.115 105.338C115.959 105.653 115.881 105.991 115.881 106.352V106.932C115.881 107.426 115.966 107.845 116.137 108.189C116.31 108.53 116.55 108.79 116.857 108.969C117.164 109.145 117.52 109.233 117.926 109.233C118.191 109.233 118.429 109.196 118.642 109.122C118.858 109.045 119.044 108.932 119.201 108.781C119.357 108.628 119.478 108.437 119.563 108.21L120.534 108.483C120.432 108.812 120.26 109.102 120.019 109.352C119.777 109.599 119.479 109.793 119.124 109.932C118.769 110.068 118.37 110.136 117.926 110.136ZM127.32 103.455L124.899 110H123.876L121.456 103.455H122.547L124.354 108.67H124.422L126.229 103.455H127.32ZM131.157 110.136C130.526 110.136 129.982 109.997 129.525 109.719C129.07 109.438 128.719 109.045 128.472 108.543C128.228 108.037 128.106 107.449 128.106 106.778C128.106 106.108 128.228 105.517 128.472 105.006C128.719 104.491 129.063 104.091 129.504 103.804C129.947 103.514 130.464 103.369 131.055 103.369C131.396 103.369 131.732 103.426 132.065 103.54C132.397 103.653 132.7 103.838 132.972 104.094C133.245 104.347 133.462 104.682 133.624 105.099C133.786 105.517 133.867 106.031 133.867 106.642V107.068H128.822V106.199H132.844C132.844 105.83 132.771 105.5 132.623 105.21C132.478 104.92 132.271 104.692 132.001 104.524C131.734 104.357 131.418 104.273 131.055 104.273C130.654 104.273 130.308 104.372 130.015 104.571C129.725 104.767 129.502 105.023 129.346 105.338C129.19 105.653 129.112 105.991 129.112 106.352V106.932C129.112 107.426 129.197 107.845 129.367 108.189C129.54 108.53 129.781 108.79 130.087 108.969C130.394 109.145 130.751 109.233 131.157 109.233C131.421 109.233 131.66 109.196 131.873 109.122C132.089 109.045 132.275 108.932 132.431 108.781C132.587 108.628 132.708 108.437 132.793 108.21L133.765 108.483C133.663 108.812 133.491 109.102 133.249 109.352C133.008 109.599 132.71 109.793 132.354 109.932C131.999 110.068 131.6 110.136 131.157 110.136ZM136.403 101.273V110H135.397V101.273H136.403ZM140.904 110.136C140.313 110.136 139.794 109.996 139.348 109.714C138.905 109.433 138.559 109.04 138.309 108.534C138.061 108.028 137.938 107.437 137.938 106.761C137.938 106.08 138.061 105.484 138.309 104.976C138.559 104.467 138.905 104.072 139.348 103.791C139.794 103.51 140.313 103.369 140.904 103.369C141.495 103.369 142.012 103.51 142.455 103.791C142.901 104.072 143.248 104.467 143.495 104.976C143.745 105.484 143.87 106.08 143.87 106.761C143.87 107.437 143.745 108.028 143.495 108.534C143.248 109.04 142.901 109.433 142.455 109.714C142.012 109.996 141.495 110.136 140.904 110.136ZM140.904 109.233C141.353 109.233 141.722 109.118 142.012 108.888C142.301 108.658 142.516 108.355 142.655 107.98C142.794 107.605 142.864 107.199 142.864 106.761C142.864 106.324 142.794 105.916 142.655 105.538C142.516 105.161 142.301 104.855 142.012 104.622C141.722 104.389 141.353 104.273 140.904 104.273C140.455 104.273 140.086 104.389 139.796 104.622C139.506 104.855 139.292 105.161 139.152 105.538C139.013 105.916 138.944 106.324 138.944 106.761C138.944 107.199 139.013 107.605 139.152 107.98C139.292 108.355 139.506 108.658 139.796 108.888C140.086 109.118 140.455 109.233 140.904 109.233ZM145.405 112.455V103.455H146.376V104.494H146.496C146.57 104.381 146.672 104.236 146.803 104.06C146.936 103.881 147.126 103.722 147.374 103.582C147.624 103.44 147.962 103.369 148.388 103.369C148.939 103.369 149.425 103.507 149.845 103.783C150.266 104.058 150.594 104.449 150.83 104.955C151.065 105.46 151.183 106.057 151.183 106.744C151.183 107.438 151.065 108.038 150.83 108.547C150.594 109.053 150.267 109.445 149.849 109.723C149.432 109.999 148.95 110.136 148.405 110.136C147.984 110.136 147.648 110.067 147.395 109.928C147.142 109.786 146.947 109.625 146.811 109.446C146.675 109.264 146.57 109.114 146.496 108.994H146.411V112.455H145.405ZM146.393 106.727C146.393 107.222 146.466 107.658 146.611 108.036C146.756 108.411 146.967 108.705 147.246 108.918C147.524 109.128 147.865 109.233 148.268 109.233C148.689 109.233 149.04 109.122 149.321 108.901C149.605 108.676 149.818 108.375 149.96 107.997C150.105 107.616 150.178 107.193 150.178 106.727C150.178 106.267 150.107 105.852 149.964 105.483C149.825 105.111 149.614 104.817 149.33 104.601C149.048 104.382 148.695 104.273 148.268 104.273C147.859 104.273 147.516 104.376 147.237 104.584C146.959 104.788 146.749 105.075 146.607 105.445C146.464 105.811 146.393 106.239 146.393 106.727ZM152.717 110V103.455H153.689V104.477H153.774C153.911 104.128 154.131 103.857 154.435 103.663C154.739 103.467 155.104 103.369 155.53 103.369C155.962 103.369 156.321 103.467 156.608 103.663C156.898 103.857 157.124 104.128 157.286 104.477H157.354C157.521 104.139 157.773 103.871 158.108 103.672C158.443 103.47 158.845 103.369 159.314 103.369C159.899 103.369 160.378 103.553 160.75 103.919C161.122 104.283 161.308 104.849 161.308 105.619V110H160.303V105.619C160.303 105.136 160.17 104.791 159.906 104.584C159.642 104.376 159.331 104.273 158.973 104.273C158.513 104.273 158.156 104.412 157.903 104.69C157.651 104.966 157.524 105.315 157.524 105.739V110H156.501V105.517C156.501 105.145 156.381 104.845 156.139 104.618C155.898 104.388 155.587 104.273 155.206 104.273C154.945 104.273 154.7 104.342 154.473 104.482C154.249 104.621 154.067 104.814 153.928 105.061C153.791 105.305 153.723 105.588 153.723 105.909V110H152.717ZM165.891 110.136C165.261 110.136 164.717 109.997 164.259 109.719C163.805 109.438 163.454 109.045 163.207 108.543C162.962 108.037 162.84 107.449 162.84 106.778C162.84 106.108 162.962 105.517 163.207 105.006C163.454 104.491 163.798 104.091 164.238 103.804C164.681 103.514 165.198 103.369 165.789 103.369C166.13 103.369 166.467 103.426 166.799 103.54C167.131 103.653 167.434 103.838 167.707 104.094C167.979 104.347 168.197 104.682 168.359 105.099C168.521 105.517 168.602 106.031 168.602 106.642V107.068H163.556V106.199H167.579C167.579 105.83 167.505 105.5 167.357 105.21C167.212 104.92 167.005 104.692 166.735 104.524C166.468 104.357 166.153 104.273 165.789 104.273C165.388 104.273 165.042 104.372 164.749 104.571C164.46 104.767 164.237 105.023 164.08 105.338C163.924 105.653 163.846 105.991 163.846 106.352V106.932C163.846 107.426 163.931 107.845 164.102 108.189C164.275 108.53 164.515 108.79 164.822 108.969C165.129 109.145 165.485 109.233 165.891 109.233C166.156 109.233 166.394 109.196 166.607 109.122C166.823 109.045 167.009 108.932 167.165 108.781C167.322 108.628 167.442 108.437 167.528 108.21L168.499 108.483C168.397 108.812 168.225 109.102 167.984 109.352C167.742 109.599 167.444 109.793 167.089 109.932C166.734 110.068 166.335 110.136 165.891 110.136ZM171.137 106.062V110H170.131V103.455H171.103V104.477H171.188C171.342 104.145 171.575 103.878 171.887 103.676C172.2 103.472 172.603 103.369 173.097 103.369C173.54 103.369 173.928 103.46 174.261 103.642C174.593 103.821 174.852 104.094 175.036 104.46C175.221 104.824 175.313 105.284 175.313 105.841V110H174.308V105.909C174.308 105.395 174.174 104.994 173.907 104.707C173.64 104.418 173.273 104.273 172.808 104.273C172.487 104.273 172.2 104.342 171.947 104.482C171.697 104.621 171.499 104.824 171.354 105.091C171.21 105.358 171.137 105.682 171.137 106.062ZM179.998 103.455V104.307H176.605V103.455H179.998ZM177.594 101.886H178.6V108.125C178.6 108.409 178.641 108.622 178.723 108.764C178.809 108.903 178.917 108.997 179.047 109.045C179.181 109.091 179.321 109.114 179.469 109.114C179.58 109.114 179.671 109.108 179.742 109.097C179.813 109.082 179.87 109.071 179.912 109.062L180.117 109.966C180.049 109.991 179.953 110.017 179.831 110.043C179.709 110.071 179.554 110.085 179.367 110.085C179.083 110.085 178.804 110.024 178.532 109.902C178.262 109.78 178.037 109.594 177.858 109.344C177.682 109.094 177.594 108.778 177.594 108.398V101.886Z" fill="#40404D"/>
<rect x="197" y="94" width="32" height="24" rx="12" fill="#E6E6F0"/>
<path d="M208.477 108.466V102.841H209.432V108.466H208.477ZM206.142 106.131V105.176H211.767V106.131H206.142ZM213.609 108.21V107.341L217.444 101.273H218.075V102.619H217.649L214.751 107.205V107.273H219.916V108.21H213.609ZM217.717 110V107.946V107.541V101.273H218.723V110H217.717Z" fill="#40404D"/>
<rect x="28.6" y="141.6" width="264.8" height="28.8" rx="14.4" fill="white"/>
<rect x="28.6" y="141.6" width="264.8" height="28.8" rx="14.4" stroke="#D6D6E0" stroke-width="0.8"/>
<path d="M127.841 151.273L130.27 158.381H130.368L132.797 151.273H134.22L131.079 160H129.558L126.417 151.273H127.841ZM135.378 160V153.455H136.652V160H135.378ZM136.021 152.445C135.8 152.445 135.61 152.371 135.45 152.223C135.294 152.072 135.216 151.893 135.216 151.686C135.216 151.476 135.294 151.297 135.45 151.149C135.61 150.999 135.8 150.923 136.021 150.923C136.243 150.923 136.432 150.999 136.588 151.149C136.747 151.297 136.827 151.476 136.827 151.686C136.827 151.893 136.747 152.072 136.588 152.223C136.432 152.371 136.243 152.445 136.021 152.445ZM141.187 160.132C140.542 160.132 139.987 159.994 139.521 159.719C139.058 159.44 138.7 159.05 138.447 158.547C138.197 158.041 138.072 157.449 138.072 156.77C138.072 156.099 138.197 155.509 138.447 154.997C138.7 154.486 139.052 154.087 139.504 153.8C139.959 153.513 140.49 153.369 141.098 153.369C141.467 153.369 141.825 153.43 142.172 153.553C142.518 153.675 142.829 153.866 143.105 154.128C143.381 154.389 143.598 154.729 143.757 155.146C143.916 155.561 143.996 156.065 143.996 156.659V157.111H138.792V156.156H142.747C142.747 155.821 142.679 155.524 142.542 155.266C142.406 155.004 142.214 154.798 141.967 154.648C141.723 154.497 141.436 154.422 141.106 154.422C140.748 154.422 140.436 154.51 140.169 154.686C139.905 154.859 139.7 155.087 139.555 155.368C139.413 155.646 139.342 155.949 139.342 156.276V157.021C139.342 157.459 139.419 157.831 139.572 158.138C139.729 158.445 139.946 158.679 140.224 158.841C140.503 159 140.828 159.08 141.2 159.08C141.442 159.08 141.662 159.045 141.861 158.977C142.059 158.906 142.231 158.801 142.376 158.662C142.521 158.523 142.632 158.351 142.709 158.146L143.915 158.364C143.818 158.719 143.645 159.03 143.395 159.297C143.148 159.561 142.836 159.767 142.461 159.915C142.089 160.06 141.665 160.132 141.187 160.132ZM146.817 160L144.89 153.455H146.207L147.49 158.261H147.554L148.841 153.455H150.157L151.436 158.24H151.5L152.774 153.455H154.091L152.169 160H150.869L149.54 155.274H149.442L148.112 160H146.817ZM160.926 160.128C160.398 160.128 159.926 159.993 159.511 159.723C159.099 159.45 158.775 159.062 158.54 158.56C158.307 158.054 158.19 157.447 158.19 156.74C158.19 156.033 158.308 155.428 158.544 154.925C158.782 154.422 159.109 154.037 159.524 153.77C159.939 153.503 160.409 153.369 160.934 153.369C161.341 153.369 161.667 153.438 161.915 153.574C162.165 153.707 162.358 153.864 162.494 154.043C162.633 154.222 162.741 154.379 162.818 154.516H162.895V151.273H164.169V160H162.925V158.982H162.818C162.741 159.121 162.631 159.28 162.486 159.459C162.344 159.638 162.148 159.794 161.898 159.928C161.648 160.061 161.324 160.128 160.926 160.128ZM161.207 159.041C161.574 159.041 161.883 158.945 162.136 158.751C162.392 158.555 162.585 158.284 162.716 157.938C162.849 157.591 162.916 157.187 162.916 156.727C162.916 156.273 162.851 155.875 162.72 155.534C162.589 155.193 162.398 154.928 162.145 154.737C161.892 154.547 161.579 154.452 161.207 154.452C160.824 154.452 160.504 154.551 160.248 154.75C159.993 154.949 159.8 155.22 159.669 155.564C159.541 155.908 159.477 156.295 159.477 156.727C159.477 157.165 159.542 157.558 159.673 157.908C159.804 158.257 159.997 158.534 160.253 158.739C160.511 158.94 160.829 159.041 161.207 159.041ZM168.808 160.132C168.164 160.132 167.608 159.994 167.142 159.719C166.679 159.44 166.321 159.05 166.068 158.547C165.818 158.041 165.693 157.449 165.693 156.77C165.693 156.099 165.818 155.509 166.068 154.997C166.321 154.486 166.673 154.087 167.125 153.8C167.58 153.513 168.111 153.369 168.719 153.369C169.088 153.369 169.446 153.43 169.793 153.553C170.139 153.675 170.45 153.866 170.726 154.128C171.002 154.389 171.219 154.729 171.378 155.146C171.537 155.561 171.617 156.065 171.617 156.659V157.111H166.414V156.156H170.368C170.368 155.821 170.3 155.524 170.164 155.266C170.027 155.004 169.835 154.798 169.588 154.648C169.344 154.497 169.057 154.422 168.727 154.422C168.369 154.422 168.057 154.51 167.79 154.686C167.526 154.859 167.321 155.087 167.176 155.368C167.034 155.646 166.963 155.949 166.963 156.276V157.021C166.963 157.459 167.04 157.831 167.193 158.138C167.35 158.445 167.567 158.679 167.845 158.841C168.124 159 168.449 159.08 168.821 159.08C169.063 159.08 169.283 159.045 169.482 158.977C169.681 158.906 169.852 158.801 169.997 158.662C170.142 158.523 170.253 158.351 170.33 158.146L171.536 158.364C171.439 158.719 171.266 159.03 171.016 159.297C170.769 159.561 170.458 159.767 170.083 159.915C169.71 160.06 169.286 160.132 168.808 160.132ZM176.086 153.455V154.477H172.51V153.455H176.086ZM173.469 151.886H174.743V158.078C174.743 158.325 174.78 158.511 174.854 158.636C174.928 158.759 175.023 158.842 175.14 158.888C175.259 158.93 175.388 158.952 175.528 158.952C175.63 158.952 175.719 158.945 175.796 158.93C175.873 158.916 175.932 158.905 175.975 158.896L176.205 159.949C176.131 159.977 176.026 160.006 175.89 160.034C175.753 160.065 175.583 160.082 175.378 160.085C175.043 160.091 174.731 160.031 174.441 159.906C174.151 159.781 173.917 159.588 173.738 159.327C173.559 159.065 173.469 158.737 173.469 158.342V151.886ZM179.4 160.145C178.985 160.145 178.61 160.068 178.275 159.915C177.94 159.759 177.674 159.533 177.478 159.237C177.285 158.942 177.188 158.58 177.188 158.151C177.188 157.781 177.259 157.477 177.401 157.239C177.544 157 177.735 156.811 177.977 156.672C178.218 156.533 178.488 156.428 178.786 156.357C179.085 156.286 179.389 156.232 179.698 156.195C180.09 156.149 180.409 156.112 180.653 156.084C180.897 156.053 181.075 156.003 181.186 155.935C181.296 155.866 181.352 155.756 181.352 155.602V155.572C181.352 155.2 181.247 154.912 181.036 154.707C180.829 154.503 180.519 154.401 180.107 154.401C179.678 154.401 179.34 154.496 179.093 154.686C178.849 154.874 178.68 155.082 178.586 155.312L177.389 155.04C177.531 154.642 177.738 154.321 178.011 154.077C178.286 153.83 178.603 153.651 178.961 153.54C179.319 153.426 179.695 153.369 180.09 153.369C180.352 153.369 180.629 153.401 180.921 153.463C181.217 153.523 181.492 153.634 181.748 153.795C182.007 153.957 182.218 154.189 182.383 154.49C182.548 154.788 182.63 155.176 182.63 155.653V160H181.386V159.105H181.335C181.252 159.27 181.129 159.432 180.964 159.591C180.799 159.75 180.588 159.882 180.329 159.987C180.07 160.092 179.761 160.145 179.4 160.145ZM179.677 159.122C180.029 159.122 180.33 159.053 180.58 158.913C180.833 158.774 181.025 158.592 181.156 158.368C181.289 158.141 181.356 157.898 181.356 157.639V156.795C181.311 156.841 181.222 156.884 181.092 156.923C180.964 156.96 180.818 156.993 180.653 157.021C180.488 157.047 180.328 157.071 180.171 157.094C180.015 157.114 179.884 157.131 179.779 157.145C179.532 157.176 179.306 157.229 179.102 157.303C178.9 157.376 178.738 157.483 178.616 157.622C178.497 157.759 178.437 157.94 178.437 158.168C178.437 158.483 178.553 158.722 178.786 158.884C179.019 159.043 179.316 159.122 179.677 159.122ZM184.327 160V153.455H185.601V160H184.327ZM184.971 152.445C184.749 152.445 184.559 152.371 184.4 152.223C184.243 152.072 184.165 151.893 184.165 151.686C184.165 151.476 184.243 151.297 184.4 151.149C184.559 150.999 184.749 150.923 184.971 150.923C185.192 150.923 185.381 150.999 185.537 151.149C185.697 151.297 185.776 151.476 185.776 151.686C185.776 151.893 185.697 152.072 185.537 152.223C185.381 152.371 185.192 152.445 184.971 152.445ZM188.59 151.273V160H187.316V151.273H188.59ZM195.209 155.053L194.054 155.257C194.006 155.109 193.929 154.969 193.824 154.835C193.721 154.702 193.582 154.592 193.406 154.507C193.23 154.422 193.01 154.379 192.746 154.379C192.385 154.379 192.084 154.46 191.842 154.622C191.601 154.781 191.48 154.987 191.48 155.24C191.48 155.459 191.561 155.635 191.723 155.768C191.885 155.902 192.146 156.011 192.507 156.097L193.547 156.335C194.149 156.474 194.598 156.689 194.893 156.979C195.189 157.268 195.336 157.645 195.336 158.108C195.336 158.5 195.223 158.849 194.996 159.156C194.771 159.46 194.457 159.699 194.054 159.872C193.653 160.045 193.189 160.132 192.66 160.132C191.927 160.132 191.329 159.976 190.866 159.663C190.403 159.348 190.119 158.901 190.014 158.321L191.246 158.134C191.322 158.455 191.48 158.697 191.719 158.862C191.957 159.024 192.268 159.105 192.652 159.105C193.069 159.105 193.403 159.018 193.653 158.845C193.903 158.669 194.028 158.455 194.028 158.202C194.028 157.997 193.952 157.825 193.798 157.686C193.648 157.547 193.416 157.442 193.104 157.371L191.996 157.128C191.385 156.989 190.933 156.767 190.64 156.463C190.351 156.159 190.206 155.774 190.206 155.308C190.206 154.922 190.314 154.584 190.53 154.294C190.746 154.004 191.044 153.778 191.425 153.616C191.805 153.452 192.241 153.369 192.733 153.369C193.44 153.369 193.997 153.523 194.403 153.83C194.809 154.134 195.078 154.541 195.209 155.053Z" fill="#2A2A33"/>
</g>
<defs>
<filter id="filter0_dddd_191_4648" x="0" y="0" width="322" height="236" filterUnits="userSpaceOnUse" color-interpolation-filters="sRGB">
<feFlood flood-opacity="0" result="BackgroundImageFix"/>
<feColorMatrix in="SourceAlpha" type="matrix" values="0 0 0 0 0 0 0 0 0 0 0 0 0 0 0 0 0 0 127 0" result="hardAlpha"/>
<feOffset dy="3"/>
<feGaussianBlur stdDeviation="3"/>
<feColorMatrix type="matrix" values="0 0 0 0 0.494118 0 0 0 0 0.486275 0 0 0 0 0.486275 0 0 0 0.1 0"/>
<feBlend mode="normal" in2="BackgroundImageFix" result="effect1_dropShadow_191_4648"/>
<feColorMatrix in="SourceAlpha" type="matrix" values="0 0 0 0 0 0 0 0 0 0 0 0 0 0 0 0 0 0 127 0" result="hardAlpha"/>
<feOffset dy="10"/>
<feGaussianBlur stdDeviation="5"/>
<feColorMatrix type="matrix" values="0 0 0 0 0.494118 0 0 0 0 0.486275 0 0 0 0 0.486275 0 0 0 0.09 0"/>
<feBlend mode="normal" in2="effect1_dropShadow_191_4648" result="effect2_dropShadow_191_4648"/>
<feColorMatrix in="SourceAlpha" type="matrix" values="0 0 0 0 0 0 0 0 0 0 0 0 0 0 0 0 0 0 127 0" result="hardAlpha"/>
<feOffset dy="23"/>
<feGaussianBlur stdDeviation="7"/>
<feColorMatrix type="matrix" values="0 0 0 0 0.494118 0 0 0 0 0.486275 0 0 0 0 0.486275 0 0 0 0.05 0"/>
<feBlend mode="normal" in2="effect2_dropShadow_191_4648" result="effect3_dropShadow_191_4648"/>
<feColorMatrix in="SourceAlpha" type="matrix" values="0 0 0 0 0 0 0 0 0 0 0 0 0 0 0 0 0 0 127 0" result="hardAlpha"/>
<feOffset dy="40"/>
<feGaussianBlur stdDeviation="8"/>
<feColorMatrix type="matrix" values="0 0 0 0 0.494118 0 0 0 0 0.486275 0 0 0 0 0.486275 0 0 0 0.01 0"/>
<feBlend mode="normal" in2="effect3_dropShadow_191_4648" result="effect4_dropShadow_191_4648"/>
<feBlend mode="normal" in="SourceGraphic" in2="effect4_dropShadow_191_4648" result="shape"/>
</filter>
</defs>
</svg>
