<svg width="12" height="20" viewBox="0 0 12 20" fill="none" xmlns="http://www.w3.org/2000/svg">
<path d="M11.0306 13.9695C11.1003 14.0391 11.1556 14.1218 11.1933 14.2129C11.2311 14.3039 11.2505 14.4015 11.2505 14.5001C11.2505 14.5987 11.2311 14.6963 11.1933 14.7873C11.1556 14.8784 11.1003 14.9611 11.0306 15.0307L6.53055 19.5307C6.4609 19.6005 6.37818 19.6558 6.28713 19.6935C6.19609 19.7313 6.09849 19.7507 5.99993 19.7507C5.90137 19.7507 5.80377 19.7313 5.71272 19.6935C5.62168 19.6558 5.53896 19.6005 5.4693 19.5307L0.969303 15.0307C0.828573 14.89 0.749512 14.6991 0.749512 14.5001C0.749512 14.3011 0.828573 14.1102 0.969303 13.9695C1.11003 13.8287 1.30091 13.7497 1.49993 13.7497C1.69895 13.7497 1.88982 13.8287 2.03055 13.9695L5.99993 17.9398L9.9693 13.9695C10.039 13.8997 10.1217 13.8444 10.2127 13.8067C10.3038 13.7689 10.4014 13.7495 10.4999 13.7495C10.5985 13.7495 10.6961 13.7689 10.7871 13.8067C10.8782 13.8444 10.9609 13.8997 11.0306 13.9695ZM2.03055 6.03073L5.99993 2.06041L9.9693 6.03073C10.11 6.17146 10.3009 6.25052 10.4999 6.25052C10.699 6.25052 10.8898 6.17146 11.0306 6.03073C11.1713 5.89 11.2503 5.69912 11.2503 5.5001C11.2503 5.30108 11.1713 5.11021 11.0306 4.96948L6.53055 0.469477C6.4609 0.399744 6.37818 0.344425 6.28713 0.306682C6.19609 0.268939 6.09849 0.249512 5.99993 0.249512C5.90137 0.249512 5.80377 0.268939 5.71272 0.306682C5.62168 0.344425 5.53896 0.399744 5.4693 0.469477L0.969303 4.96948C0.828573 5.11021 0.749512 5.30108 0.749512 5.5001C0.749512 5.69912 0.828574 5.89 0.969304 6.03073C1.11003 6.17146 1.30091 6.25052 1.49993 6.25052C1.69895 6.25052 1.88982 6.17146 2.03055 6.03073Z" fill="#73737F"/>
</svg>
