<svg xmlns="http://www.w3.org/2000/svg" width="33" height="32" viewBox="0 0 33 32" fill="none">
  <path d="M2.16602 5.33329C2.16602 3.30825 3.80764 1.66663 5.83268 1.66663C7.85772 1.66663 9.49935 3.30825 9.49935 5.33329C9.49935 7.35833 7.85772 8.99996 5.83268 8.99996C3.80764 8.99996 2.16602 7.35833 2.16602 5.33329Z" fill="#4B5563"/>
  <path d="M23.5 5.33329C23.5 3.30825 25.1416 1.66663 27.1667 1.66663C29.1917 1.66663 30.8333 3.30825 30.8333 5.33329C30.8333 7.35833 29.1917 8.99996 27.1667 8.99996C25.1416 8.99996 23.5 7.35833 23.5 5.33329Z" fill="#4B5563"/>
  <path d="M23.5 26.6667C23.5 24.6416 25.1416 23 27.1667 23C29.1917 23 30.8333 24.6416 30.8333 26.6667C30.8333 28.6917 29.1917 30.3333 27.1667 30.3333C25.1416 30.3333 23.5 28.6917 23.5 26.6667Z" fill="#4B5563"/>
  <path d="M2.16602 26.6667C2.16602 24.6416 3.80764 23 5.83268 23C7.85772 23 9.49935 24.6416 9.49935 26.6667C9.49935 28.6917 7.85772 30.3333 5.83268 30.3333C3.80764 30.3333 2.16602 28.6917 2.16602 26.6667Z" fill="#4B5563"/>
  <path fill-rule="evenodd" clip-rule="evenodd" d="M7.16667 5.33333C7.16667 4.59696 7.76363 4 8.5 4H24.5C25.2364 4 25.8333 4.59696 25.8333 5.33333C25.8333 6.06971 25.2364 6.66667 24.5 6.66667H8.5C7.76363 6.66667 7.16667 6.06971 7.16667 5.33333ZM5.83333 6.66667C6.56971 6.66667 7.16667 7.26363 7.16667 8V24C7.16667 24.7364 6.56971 25.3333 5.83333 25.3333C5.09696 25.3333 4.5 24.7364 4.5 24V8C4.5 7.26363 5.09696 6.66667 5.83333 6.66667ZM27.1667 6.66667C27.9031 6.66667 28.5 7.26363 28.5 8V24C28.5 24.7364 27.9031 25.3333 27.1667 25.3333C26.4303 25.3333 25.8333 24.7364 25.8333 24V8C25.8333 7.26363 26.4303 6.66667 27.1667 6.66667ZM7.16667 26.6667C7.16667 25.9303 7.76363 25.3333 8.5 25.3333H24.5C25.2364 25.3333 25.8333 25.9303 25.8333 26.6667C25.8333 27.4031 25.2364 28 24.5 28H8.5C7.76363 28 7.16667 27.4031 7.16667 26.6667Z" fill="#4B5563"/>
  <path d="M14.4015 10.3396C15.1328 9.98032 15.7712 9.66663 16.5 9.66663C17.2288 9.66663 17.8672 9.98032 18.5985 10.3396L20.2571 11.1514C21.1171 11.5723 21.8527 11.9322 22.3657 12.2726C22.85 12.5938 23.5 13.1271 23.5 14C23.5 14.8729 22.85 15.4061 22.3657 15.7273C21.8527 16.0677 21.1171 16.4277 20.2569 16.8485L18.5985 17.6602C17.8672 18.0196 17.2288 18.3333 16.5 18.3333C15.7712 18.3333 15.1328 18.0196 14.4015 17.6602L12.743 16.8485C11.8829 16.4277 11.1473 16.0677 10.6342 15.7273C10.15 15.4061 9.5 14.8729 9.5 14C9.5 13.1271 10.15 12.5938 10.6342 12.2726C11.1473 11.9322 11.8829 11.5723 12.743 11.1514L14.4015 10.3396Z" fill="#4B5563"/>
  <path d="M10.7727 17C11.3751 17 11.8798 17.3897 12.0118 17.9132C12.3623 18.1297 13.0456 18.4681 13.9553 18.8828L15.3409 19.5141C16.2773 19.9409 16.3924 19.9629 16.5 19.9629C16.6076 19.9629 16.7227 19.9409 17.6591 19.5141L19.0447 18.8828C19.9544 18.4681 20.6377 18.1297 20.9883 17.9132C21.1203 17.3897 21.6249 17 22.2273 17C22.9301 17 23.5 17.5307 23.5 18.1852C23.5 19.1253 22.7456 19.6768 22.2751 19.9676C21.7675 20.2811 21.0489 20.6085 20.2416 20.9763L20.1636 21.0119L18.778 21.6433L18.6265 21.7127C17.9484 22.0236 17.2729 22.3333 16.5 22.3333C15.7271 22.3333 15.0516 22.0236 14.3735 21.7127L14.222 21.6433L12.8365 21.0119L12.7584 20.9763C11.9511 20.6085 11.2325 20.2811 10.725 19.9676C10.2544 19.6768 9.5 19.1253 9.5 18.1852C9.5 17.5307 10.0698 17 10.7727 17Z" fill="#4B5563"/>
</svg>