<svg xmlns="http://www.w3.org/2000/svg" width="32" height="33" viewBox="0 0 32 33" fill="none">
  <path d="M16.2099 2.50001C16.9524 2.49993 17.6315 2.49986 18.1969 2.57377C18.8271 2.65613 19.4453 2.8431 20.0032 3.30342C20.546 3.7513 20.8664 4.32249 21.11 4.92198C21.3392 5.48619 21.5467 6.19858 21.786 7.02082L22 7.72617L19.4667 8.50001L19.2615 7.82602C18.9988 6.92361 18.8285 6.34446 18.6569 5.92219C18.4939 5.52098 18.3833 5.40402 18.3193 5.35114C18.2703 5.31069 18.182 5.24727 17.8543 5.20445C17.2428 5.12451 16.6156 5.15299 16.0004 5.15299C15.3852 5.15299 14.7572 5.12451 14.1457 5.20445C13.818 5.24727 13.7297 5.31069 13.6807 5.35114C13.6167 5.40402 13.5061 5.52098 13.3431 5.92219C13.1715 6.34446 13.0012 6.92361 12.7385 7.82602L12.5333 8.50001L10 7.72617L10.214 7.02082C10.4534 6.19858 10.6608 5.48619 10.89 4.92198C11.1337 4.32249 11.454 3.7513 11.9968 3.30342C12.5547 2.8431 13.1729 2.65613 13.8031 2.57377C14.3685 2.49986 15.0476 2.49993 15.7901 2.50001H16.2099Z" fill="#EA580C"/>
  <path d="M12.4915 20.6361C12.5659 20.6583 12.6032 20.6693 12.634 20.6887C12.6647 20.708 12.6931 20.7389 12.7497 20.8009C13.5543 21.6819 14.7123 22.2344 15.9993 22.2344C17.2863 22.2344 18.4441 21.6819 19.2488 20.8011C19.3053 20.7391 19.3337 20.7081 19.3644 20.6888C19.3952 20.6695 19.4325 20.6584 19.5069 20.6363C19.8752 20.5268 20.276 20.4032 20.7064 20.2704L26.2851 18.55C26.9101 18.3572 27.5291 18.1092 28.1136 17.7825C28.2184 17.7239 28.2708 17.6945 28.3052 17.686C28.4427 17.6516 28.5709 17.7192 28.6201 17.8521C28.6324 17.8853 28.6373 17.9408 28.6475 18.0517C28.876 20.5816 29.0569 22.5848 28.9829 24.1588C28.9068 25.7772 28.5571 27.1092 27.584 28.1815C26.6099 29.2548 25.3204 29.7273 23.7225 29.9505C22.1701 30.1675 20.1701 30.1675 17.6469 30.1675H14.3528C11.8296 30.1675 9.82959 30.1675 8.27719 29.9505C6.67935 29.7273 5.38984 29.2548 4.4158 28.1815C3.44272 27.1092 3.09296 25.7772 3.01683 24.1588C2.94277 22.5848 3.12376 20.5816 3.35233 18.0517C3.36231 17.9412 3.36731 17.886 3.37951 17.8529C3.42861 17.7197 3.55716 17.6519 3.69481 17.6865C3.72903 17.6951 3.78124 17.7243 3.88564 17.7827C4.47005 18.1093 5.08884 18.3573 5.71377 18.55L11.2926 20.2704C11.7226 20.4031 12.1233 20.5267 12.4915 20.6361Z" fill="#EA580C"/>
  <path d="M5.20218 7.61924C5.69793 7.49944 6.2845 7.49969 7.09982 7.50004H24.8978C25.7131 7.49969 26.2996 7.49944 26.7954 7.61924C28.1899 7.9562 29.3396 8.99676 29.6158 10.4008C29.7128 10.8949 29.648 11.4563 29.5694 12.1365L29.5536 12.2739L29.553 12.2801C29.4295 13.3585 29.0712 14.2952 28.3859 15.0556C27.71 15.8053 26.7914 16.2997 25.6951 16.6379L20.7608 18.1595C20.59 18.2121 20.5046 18.2385 20.4503 18.198C20.396 18.1576 20.397 18.064 20.3987 17.8768C20.3988 17.8624 20.399 17.848 20.399 17.8336V16.9447V16.9317C20.4003 16.5213 20.4015 16.106 20.2944 15.7065C20.0108 14.6483 19.1843 13.8216 18.126 13.538C17.7264 13.431 17.3111 13.4322 16.9007 13.4335L16.8879 13.4335H15.11L15.0972 13.4335C14.6867 13.4322 14.2715 13.431 13.8719 13.538C12.8136 13.8216 11.987 14.6483 11.7034 15.7065C11.5964 16.106 11.5977 16.5213 11.5989 16.9317L11.599 16.9447V17.8336C11.599 17.848 11.599 17.8625 11.5992 17.8769C11.601 18.0641 11.6019 18.1577 11.5476 18.1981C11.4933 18.2387 11.4079 18.2123 11.2371 18.1596L6.3025 16.6379C5.20619 16.2997 4.28747 15.8053 3.61165 15.0556C2.92637 14.2952 2.56809 13.3585 2.44469 12.2801L2.42815 12.1366C2.34957 11.4563 2.28471 10.8949 2.38186 10.4008C2.65793 8.99676 3.8077 7.9562 5.20218 7.61924Z" fill="#EA580C"/>
  <path d="M13.333 16.9444C13.333 16.531 13.333 16.3244 13.3785 16.1549C13.5017 15.6948 13.8611 15.3353 14.3213 15.2121C14.4907 15.1666 14.6974 15.1666 15.1107 15.1666H16.8886C17.3019 15.1666 17.5086 15.1666 17.6781 15.2121C18.1382 15.3353 18.4977 15.6948 18.6209 16.1549C18.6663 16.3244 18.6663 16.531 18.6663 16.9444V17.8333C18.6663 19.3061 17.4725 20.5 15.9997 20.5C14.5269 20.5 13.333 19.3061 13.333 17.8333V16.9444Z" fill="#EA580C"/>
</svg>