<svg width="57" height="56" viewBox="0 0 57 56" fill="none" xmlns="http://www.w3.org/2000/svg">
<rect x="0.5" width="56" height="56" rx="28" fill="#F2E9FE"/>
<path d="M43.1997 20.6477H39.2952C38.4537 20.6477 38.0329 20.6477 37.6361 20.5275C37.2393 20.4074 36.8892 20.174 36.1889 19.7071C35.1386 19.0069 33.9404 18.2081 33.3451 18.0279C32.75 17.8477 32.1187 17.8477 30.8563 17.8477C29.1396 17.8477 28.0331 17.8477 27.2613 18.1674C26.4894 18.4871 25.8825 19.094 24.6686 20.308L23.6003 21.3763C23.3267 21.6498 23.1899 21.7866 23.1054 21.9217C22.7924 22.4223 22.8271 23.0655 23.1922 23.5296C23.2906 23.6548 23.4414 23.776 23.7428 24.0186C24.8569 24.9152 26.463 24.8257 27.4718 23.8108L29.1997 22.0727H30.5997L38.9997 30.5227C39.7729 31.3005 39.7729 32.5615 38.9997 33.3393C38.2265 34.1172 36.9729 34.1172 36.1997 33.3393L35.4997 32.6351M35.4997 32.6351L31.2997 28.4102M35.4997 32.6351C36.2729 33.413 36.2729 34.6741 35.4997 35.4518C34.7265 36.2296 33.4729 36.2296 32.6997 35.4518L31.2997 34.0435M31.2997 34.0435C32.0729 34.8212 32.0729 36.0823 31.2997 36.8602C30.5265 37.6379 29.2729 37.6379 28.4997 36.8602L26.3997 34.7476M31.2997 34.0435L28.4997 31.2435M26.3997 34.7476L25.6997 34.0435M26.3997 34.7476C27.1729 35.5254 27.1729 36.7865 26.3997 37.5644C25.6265 38.3421 24.3729 38.3421 23.5997 37.5644L19.6466 33.5289C18.8343 32.6997 18.4282 32.2851 17.9078 32.0663C17.3874 31.8476 16.807 31.8476 15.6462 31.8476H15.1997" stroke="#8E3FDE" stroke-width="2" stroke-linecap="round" stroke-linejoin="round"/>
<path d="M43.1997 31.8477H39.6997" stroke="#8E3FDE" stroke-width="2" stroke-linecap="round"/>
<path d="M24.2997 20.6484H15.1997" stroke="#8E3FDE" stroke-width="2" stroke-linecap="round"/>
</svg>
