<svg width="20" height="20" viewBox="0 0 20 20" fill="none" xmlns="http://www.w3.org/2000/svg">
<path d="M5.83398 10V17.5M14.1673 10V17.5" stroke="#6B7280" stroke-width="1.5" stroke-linecap="round" stroke-linejoin="round"/>
<path d="M2.5 10H17.5" stroke="#6B7280" stroke-width="1.5" stroke-linecap="round" stroke-linejoin="round"/>
<path d="M2.08398 11.4583C2.08398 8.41383 2.08398 6.8916 3.01148 5.9458C3.93898 5 5.43176 5 8.41732 5H11.584C14.5696 5 16.0623 5 16.9898 5.9458C17.9173 6.8916 17.9173 8.41383 17.9173 11.4583C17.9173 14.5028 17.9173 16.0251 16.9898 16.9708C16.0623 17.9167 14.5696 17.9167 11.584 17.9167H8.41732C5.43176 17.9167 3.93898 17.9167 3.01148 16.9708C2.08398 16.0251 2.08398 14.5028 2.08398 11.4583Z" stroke="#6B7280" stroke-width="1.5" stroke-linecap="round"/>
<path d="M13.75 4.9987L13.6672 4.74115C13.2547 3.45777 13.0484 2.81609 12.5574 2.44906C12.0663 2.08203 11.4142 2.08203 10.1097 2.08203H9.89033C8.58583 2.08203 7.93363 2.08203 7.44259 2.44906C6.95155 2.81609 6.7453 3.45777 6.33278 4.74115L6.25 4.9987" stroke="#6B7280" stroke-width="1.5"/>
</svg>
