<svg width="20" height="20" viewBox="0 0 20 20" fill="none" xmlns="http://www.w3.org/2000/svg">
<path d="M12.0827 7.5013C12.0827 8.65189 11.1499 9.58464 9.99935 9.58464C8.84877 9.58464 7.91602 8.65189 7.91602 7.5013C7.91602 6.35071 8.84877 5.41797 9.99935 5.41797C11.1499 5.41797 12.0827 6.35071 12.0827 7.5013Z" stroke="#6B7280" stroke-width="1.25"/>
<path d="M11.0472 14.5793C10.7661 14.85 10.3904 15.0013 9.99952 15.0013C9.60852 15.0013 9.23285 14.85 8.95177 14.5793C6.37793 12.0853 2.92867 9.29922 4.61077 5.25441C5.52027 3.0674 7.70347 1.66797 9.99952 1.66797C12.2955 1.66797 14.4787 3.06741 15.3882 5.25441C17.0682 9.29414 13.6273 12.0939 11.0472 14.5793Z" stroke="#6B7280" stroke-width="1.25"/>
<path d="M15 16.668C15 17.5885 12.7614 18.3346 10 18.3346C7.23857 18.3346 5 17.5885 5 16.668" stroke="#6B7280" stroke-width="1.25" stroke-linecap="round"/>
</svg>
