<svg width="57" height="56" viewBox="0 0 57 56" fill="none" xmlns="http://www.w3.org/2000/svg">
<rect x="0.5" width="56" height="56" rx="28" fill="#F2E9FE"/>
<path d="M29.1999 25.1992H22.1999C19.5751 25.1992 18.2627 25.1992 17.3427 25.8677C17.0455 26.0836 16.7842 26.3448 16.5683 26.6419C15.8999 27.562 15.8999 28.8744 15.8999 31.4992C15.8999 34.1241 15.8999 35.4364 16.5683 36.3565C16.7842 36.6536 17.0455 36.9148 17.3427 37.1307C18.2627 37.7992 19.5751 37.7992 22.1999 37.7992H37.5999C40.2248 37.7992 41.5371 37.7992 42.4572 37.1307C42.7543 36.9148 43.0155 36.6536 43.2314 36.3565C43.8999 35.4364 43.8999 34.1241 43.8999 31.4992C43.8999 28.8744 43.8999 27.562 43.2314 26.6419C43.0155 26.3448 42.7543 26.0836 42.4572 25.8677C41.824 25.4075 41.0048 25.2642 39.6999 25.2195" stroke="#8E3FDE" stroke-width="2"/>
<path d="M20.8003 30.0977H20.8129" stroke="#8E3FDE" stroke-width="2" stroke-linecap="round" stroke-linejoin="round"/>
<path d="M34.7999 30.1008C37.5061 30.1008 39.6999 27.907 39.6999 25.2008C39.6999 22.4946 37.5061 20.3008 34.7999 20.3008C32.0937 20.3008 29.8999 22.4946 29.8999 25.2008C29.8999 27.907 32.0937 30.1008 34.7999 30.1008Z" stroke="#8E3FDE" stroke-width="2"/>
<path d="M22.2001 37.8008L20.1001 42.0008" stroke="#8E3FDE" stroke-width="2" stroke-linecap="round"/>
<path d="M37.6001 37.8008L39.7001 42.0008" stroke="#8E3FDE" stroke-width="2" stroke-linecap="round"/>
<path d="M30.6002 18.2L29.2002 16.8M40.4002 16.8L39.0002 18.2M34.8002 16.8V14" stroke="#8E3FDE" stroke-width="2" stroke-linecap="round"/>
</svg>
