<svg width="34" height="34" viewBox="0 0 34 34" fill="none" xmlns="http://www.w3.org/2000/svg">
<path d="M16.1999 14.1992H9.1999C6.57508 14.1992 5.26268 14.1992 4.34266 14.8677C4.04552 15.0836 3.78423 15.3448 3.56835 15.6419C2.8999 16.562 2.8999 17.8744 2.8999 20.4992C2.8999 23.1241 2.8999 24.4364 3.56835 25.3565C3.78423 25.6536 4.04552 25.9148 4.34266 26.1307C5.26268 26.7992 6.57508 26.7992 9.1999 26.7992H24.5999C27.2248 26.7992 28.5371 26.7992 29.4572 26.1307C29.7543 25.9148 30.0155 25.6536 30.2314 25.3565C30.8999 24.4364 30.8999 23.1241 30.8999 20.4992C30.8999 17.8744 30.8999 16.562 30.2314 15.6419C30.0155 15.3448 29.7543 15.0836 29.4572 14.8677C28.824 14.4075 28.0048 14.2642 26.6999 14.2195" stroke="#8E3FDE" stroke-width="2"/>
<path d="M7.80029 19.0977H7.81286" stroke="#8E3FDE" stroke-width="2" stroke-linecap="round" stroke-linejoin="round"/>
<path d="M21.7999 19.1008C24.5061 19.1008 26.6999 16.907 26.6999 14.2008C26.6999 11.4946 24.5061 9.30078 21.7999 9.30078C19.0937 9.30078 16.8999 11.4946 16.8999 14.2008C16.8999 16.907 19.0937 19.1008 21.7999 19.1008Z" stroke="#8E3FDE" stroke-width="2"/>
<path d="M9.2001 26.8008L7.1001 31.0008" stroke="#8E3FDE" stroke-width="2" stroke-linecap="round"/>
<path d="M24.6001 26.8008L26.7001 31.0008" stroke="#8E3FDE" stroke-width="2" stroke-linecap="round"/>
<path d="M17.6002 7.2L16.2002 5.8M27.4002 5.8L26.0002 7.2M21.8002 5.8V3" stroke="#8E3FDE" stroke-width="2" stroke-linecap="round"/>
</svg>
