<svg width="32" height="32" viewBox="0 0 32 32" fill="none" xmlns="http://www.w3.org/2000/svg">
<rect width="32" height="32" rx="16" fill="#8E3FDE"/>
<path d="M21.625 12.5625C21.625 13.598 20.7856 14.4375 19.75 14.4375C18.7144 14.4375 17.875 13.598 17.875 12.5625C17.875 11.527 18.7144 10.6875 19.75 10.6875C20.7856 10.6875 21.625 11.527 21.625 12.5625Z" stroke="white" stroke-width="1.5"/>
<path d="M14.125 16C14.125 17.0356 13.2855 17.875 12.25 17.875C11.2145 17.875 10.375 17.0356 10.375 16C10.375 14.9644 11.2145 14.125 12.25 14.125C13.2855 14.125 14.125 14.9644 14.125 16Z" stroke="white" stroke-width="1.5"/>
<path d="M21.625 19.4375C21.625 20.4731 20.7856 21.3125 19.75 21.3125C18.7144 21.3125 17.875 20.4731 17.875 19.4375C17.875 18.4019 18.7144 17.5625 19.75 17.5625C20.7856 17.5625 21.625 18.4019 21.625 19.4375Z" stroke="white" stroke-width="1.5"/>
<path d="M13.9551 15.2184L18.0176 13.3438M13.9551 16.7812L18.0176 18.6559" stroke="white" stroke-width="1.5"/>
</svg>
