<svg width="20" height="20" viewBox="0 0 20 20" fill="none" xmlns="http://www.w3.org/2000/svg">
<path d="M1.66699 5.83464H4.05452C4.66011 5.83464 5.24089 5.53489 5.66912 5.00134C6.28068 4.23934 7.18528 3.97327 8.00578 4.31404L9.16699 4.79632M1.66699 13.307H3.01756C3.9838 13.307 4.46692 13.307 4.92376 13.4357C4.94597 13.442 4.96811 13.4485 4.99018 13.4551C5.44415 13.5931 5.84613 13.8521 6.65008 14.3702C8.22355 15.3843 9.01033 15.8914 9.86758 15.8296C9.90799 15.8267 9.94833 15.8228 9.98858 15.8181C10.8417 15.7161 11.5102 15.0697 12.8475 13.777L14.167 12.5013" stroke="#141B34" stroke-width="1.2" stroke-linecap="round"/>
<path d="M18.3333 6.0295H16.236C15.3478 6.0295 14.7208 5.54687 14.0836 4.90345C13.6709 4.4867 13.1443 4.24107 12.5907 4.20725C11.9717 4.16943 11.2544 4.11618 10.6533 4.28131C9.98425 4.4651 9.5425 4.9685 9.07517 5.4946L7.86924 6.85223C7.37692 7.40648 7.37692 8.3051 7.86924 8.85939C8.29417 9.33772 8.95992 9.41197 9.45992 9.03664C9.81975 8.76664 10.2286 8.33052 10.6526 8.19318C11.1298 8.0386 11.4258 8.38589 11.6962 8.75122L13.6297 11.3633C14.3473 12.3326 14.706 12.8174 15.1965 13.076C15.687 13.3346 16.2474 13.3346 17.3683 13.3346H18.3333" stroke="#141B34" stroke-width="1.2" stroke-linecap="round"/>
</svg>
