<svg width="175" height="40" viewBox="0 0 175 40" fill="none" xmlns="http://www.w3.org/2000/svg">
<rect y="4" width="32" height="32" rx="16" fill="#8333D0"/>
<path d="M21.2148 22.7187C21.2148 21.5895 21.0362 20.6023 20.6789 19.7571C20.3161 18.9119 19.7829 18.2561 19.0791 17.7895C18.3753 17.3297 17.5144 17.0998 16.4966 17.0998L9.22852 17.0998C9.22852 18.6906 10.5141 19.9803 12.1 19.9803L16.3261 19.9802C16.8296 19.9802 17.2627 20.0411 17.6254 20.1628C17.9827 20.2845 18.2751 20.4637 18.5025 20.7004C18.7299 20.9438 18.8977 21.2345 19.006 21.5726C19.1088 21.9107 19.1603 22.2961 19.1603 22.7288C19.1603 23.1413 19.1088 23.5098 19.006 23.8343C18.8977 24.1656 18.7299 24.4462 18.5025 24.6761C18.2751 24.906 17.9827 25.0818 17.6254 25.2035C17.2627 25.332 16.8296 25.3962 16.3261 25.3962H12.1163C10.5304 25.3962 9.24476 26.6858 9.24476 28.2766L16.4966 28.2766C17.5036 28.2766 18.359 28.0434 19.0628 27.5768C19.7666 27.1103 20.3026 26.4578 20.6707 25.6194C21.0335 24.7877 21.2148 23.8208 21.2148 22.7187Z" fill="#BC78FF"/>
<path d="M11.0478 17.2316C11.0478 16.1057 11.2225 15.1215 11.572 14.2788C11.9268 13.4361 12.4484 12.7822 13.1369 12.3171C13.8253 11.8587 14.6673 11.6295 15.6628 11.6295L22.772 11.6295C22.772 13.2155 21.5145 14.5013 19.9633 14.5013L15.8296 14.5013C15.3371 14.5013 14.9135 14.562 14.5587 14.6833C14.2092 14.8047 13.9232 14.9833 13.7008 15.2192C13.4784 15.4619 13.3143 15.7518 13.2083 16.0889C13.1077 16.426 13.0574 16.8102 13.0574 17.2417C13.0574 17.6529 13.1077 18.0203 13.2083 18.3439C13.3143 18.6742 13.4784 18.954 13.7008 19.1832C13.9232 19.4124 14.2092 19.5877 14.5587 19.709C14.9135 19.8371 15.3371 19.9011 15.8296 19.9011L18.8302 20.1391C20.3814 20.1391 21.1549 21.1869 21.1549 22.773H15.6628C14.6778 22.773 13.8412 22.5404 13.1527 22.0752C12.4643 21.6101 11.9401 20.9595 11.58 20.1236C11.2252 19.2944 11.0478 18.3304 11.0478 17.2316Z" fill="url(#paint0_linear_1351_27872)"/>
<path d="M47.4166 29.6658C46.4496 29.6658 45.5465 29.5502 44.7072 29.319C43.868 29.0879 43.1199 28.7678 42.4631 28.3589C41.8063 27.9321 41.2589 27.4609 40.821 26.9453C40.4014 26.4297 40.1277 25.8873 40 25.3184L43.6673 24.2515C43.9044 24.8561 44.3241 25.3806 44.9262 25.8251C45.5283 26.2519 46.2854 26.4741 47.1977 26.4919C48.1647 26.5097 48.9492 26.3052 49.5513 25.8785C50.1716 25.4517 50.4818 24.9005 50.4818 24.2248C50.4818 23.6381 50.2355 23.1491 49.7429 22.7579C49.2685 22.349 48.6117 22.0378 47.7724 21.8244L45.2819 21.1843C44.3514 20.9532 43.5304 20.6064 42.8189 20.1441C42.1073 19.664 41.5508 19.0773 41.1494 18.3838C40.748 17.6904 40.5474 16.8813 40.5474 15.9567C40.5474 14.1964 41.1403 12.8273 42.3262 11.8494C43.5304 10.8536 45.2272 10.3558 47.4166 10.3558C48.639 10.3558 49.7064 10.5336 50.6186 10.8892C51.5491 11.227 52.3245 11.716 52.9449 12.3561C53.5652 12.9962 54.0396 13.7519 54.368 14.6232L50.7281 15.7167C50.5092 15.1122 50.1078 14.5965 49.5239 14.1698C48.9401 13.743 48.2012 13.5297 47.3072 13.5297C46.3949 13.5297 45.6742 13.7341 45.1451 14.1431C44.6342 14.5521 44.3788 15.1299 44.3788 15.8767C44.3788 16.4635 44.5795 16.9258 44.9809 17.2636C45.4005 17.6015 45.9661 17.8593 46.6777 18.0371L49.1955 18.6505C50.8376 19.0417 52.1147 19.7441 53.027 20.7576C53.9392 21.7711 54.3954 22.9002 54.3954 24.1448C54.3954 25.2472 54.1217 26.2163 53.5743 27.052C53.027 27.8699 52.2333 28.51 51.1934 28.9723C50.1534 29.4346 48.8945 29.6658 47.4166 29.6658Z" fill="#111827"/>
<path d="M59.0047 35C58.512 35 57.9647 34.9022 57.3626 34.7066C56.7788 34.5288 56.2588 34.3155 55.8027 34.0665L57.1437 31.2127C57.4538 31.3727 57.7366 31.4972 57.9921 31.5861C58.2657 31.6928 58.5029 31.7461 58.7036 31.7461C59.0868 31.7461 59.4243 31.6395 59.7162 31.4261C60.0081 31.2305 60.2453 30.9371 60.4278 30.5459L62.0425 26.8386L66.3939 16.0101H70.3622L64.1498 30.4926C63.7666 31.3816 63.3652 32.164 62.9456 32.8397C62.526 33.5331 62.006 34.0665 61.3857 34.4399C60.7836 34.8133 59.9899 35 59.0047 35ZM61.0846 29.3457L54.8174 16.0101H58.7857L63.3561 26.8386L64.5329 29.3457H61.0846Z" fill="#111827"/>
<path d="M71.2153 29.3457V16.0101H74.6089L74.8279 18.4638V29.3457H71.2153ZM80.274 29.3457V22.5179H83.8865V29.3457H80.274ZM80.274 22.5179C80.274 21.6111 80.1645 20.9087 79.9456 20.4108C79.7449 19.913 79.453 19.5574 79.0698 19.344C78.6867 19.1128 78.2397 18.9973 77.7288 18.9973C76.7983 18.9795 76.0776 19.2551 75.5668 19.8241C75.0742 20.3931 74.8279 21.2377 74.8279 22.3578H73.6237C73.6237 20.9354 73.8335 19.7352 74.2531 18.7572C74.691 17.7615 75.2931 17.0058 76.0594 16.4902C76.8439 15.9567 77.7562 15.69 78.7962 15.69C79.8726 15.69 80.794 15.9034 81.5603 16.3301C82.3266 16.7569 82.9104 17.4237 83.3118 18.3305C83.7132 19.2195 83.9048 20.3753 83.8865 21.7977V22.5179H80.274Z" fill="#111827"/>
<path d="M92.5445 29.6658C91.1214 29.6658 89.8534 29.3724 88.7404 28.7856C87.6275 28.1811 86.7608 27.3543 86.1405 26.3052C85.5202 25.2383 85.21 24.0292 85.21 22.6779C85.21 21.3088 85.5202 20.0997 86.1405 19.0506C86.7608 18.0015 87.6184 17.1836 88.7131 16.5969C89.8078 15.9923 91.0667 15.69 92.4898 15.69C93.8582 15.69 95.108 16.019 96.2392 16.6769C97.3703 17.3348 98.1914 18.286 98.7022 19.5307L95.3087 20.7042C95.0532 20.1886 94.6518 19.7796 94.1045 19.4773C93.5754 19.1573 92.9824 18.9973 92.3256 18.9973C91.6505 18.9973 91.0576 19.1573 90.5467 19.4773C90.0358 19.7796 89.6344 20.2064 89.3425 20.7576C89.0506 21.3088 88.9046 21.9489 88.9046 22.6779C88.9046 23.4069 89.0506 24.047 89.3425 24.5982C89.6344 25.1317 90.045 25.5584 90.5741 25.8785C91.1032 26.1985 91.7053 26.3585 92.3803 26.3585C93.0371 26.3585 93.6301 26.1896 94.1592 25.8518C94.7066 25.5139 95.108 25.0694 95.3634 24.5182L98.7843 25.6918C98.2552 26.9542 97.4251 27.9321 96.2939 28.6256C95.1809 29.319 93.9312 29.6658 92.5445 29.6658Z" fill="#111827"/>
<path d="M108.793 29.3457L108.574 26.892V19.5307C108.574 17.5863 110.191 16.0101 112.187 16.0101V29.3457H108.793ZM99.5154 22.8379V16.0101C101.511 16.0101 103.128 17.5863 103.128 19.5307V22.8379H99.5154ZM103.128 22.8379C103.128 23.727 103.228 24.4293 103.429 24.945C103.648 25.4428 103.949 25.8073 104.332 26.0385C104.733 26.2519 105.18 26.3585 105.673 26.3585C106.622 26.3763 107.343 26.1007 107.835 25.5317C108.328 24.945 108.574 24.1004 108.574 22.998H109.806C109.806 24.4204 109.587 25.6295 109.149 26.6252C108.711 27.6032 108.109 28.3589 107.343 28.8923C106.576 29.408 105.673 29.6658 104.633 29.6658C103.538 29.6658 102.608 29.4524 101.842 29.0257C101.075 28.5989 100.492 27.941 100.09 27.052C99.707 26.1452 99.5154 24.9805 99.5154 23.5581V22.8379H103.128Z" fill="#111827"/>
<defs>
<linearGradient id="paint0_linear_1351_27872" x1="26.6677" y1="11.2586" x2="17.5929" y2="19.5487" gradientUnits="userSpaceOnUse">
<stop stop-color="white"/>
<stop offset="0.286429" stop-color="white"/>
</linearGradient>
</defs>
</svg>
