<svg width="32" height="32" viewBox="0 0 32 32" fill="none" xmlns="http://www.w3.org/2000/svg">
<rect width="32" height="32" rx="16" stroke="#E8D8FC"/>
<rect x="0.5" y="0.5" width="31" height="31" rx="15.5" fill="#3B82F6"/>
<rect x="0.5" y="0.5" width="31" height="31" rx="15.5" stroke="#D1D5DB"/>
<path d="M16.906 20.168C15.9167 20.168 15.0347 19.9533 14.26 19.524C13.4947 19.0853 12.8927 18.488 12.454 17.732C12.0153 16.9667 11.796 16.094 11.796 15.114C11.796 14.1153 12.0153 13.238 12.454 12.482C12.8927 11.7167 13.4947 11.1193 14.26 10.69C15.0347 10.2513 15.9167 10.032 16.906 10.032C17.4753 10.032 18.0073 10.1207 18.502 10.298C19.006 10.4753 19.4587 10.718 19.86 11.026C20.2613 11.3247 20.588 11.6747 20.84 12.076L19.524 12.916C19.3467 12.6453 19.118 12.4027 18.838 12.188C18.558 11.9733 18.25 11.81 17.914 11.698C17.5873 11.5767 17.2513 11.516 16.906 11.516C16.234 11.516 15.6367 11.67 15.114 11.978C14.6007 12.286 14.1947 12.7107 13.896 13.252C13.5973 13.784 13.448 14.4047 13.448 15.114C13.448 15.8047 13.5927 16.4207 13.882 16.962C14.1807 17.5033 14.5913 17.928 15.114 18.236C15.646 18.544 16.2573 18.698 16.948 18.698C17.4893 18.698 17.9747 18.586 18.404 18.362C18.8333 18.138 19.1693 17.8253 19.412 17.424C19.664 17.0227 19.79 16.5607 19.79 16.038L21.344 15.842C21.344 16.7287 21.1527 17.4987 20.77 18.152C20.3967 18.796 19.874 19.2953 19.202 19.65C18.5393 19.9953 17.774 20.168 16.906 20.168ZM17.438 16.164V14.848H21.344V15.94L20.476 16.164H17.438Z" fill="#F9FAFB"/>
<rect x="22.5" y="22.5" width="9" height="9" rx="4.5" fill="#22C55E"/>
<rect x="22.5" y="22.5" width="9" height="9" rx="4.5" stroke="white"/>
</svg>
