<svg width="20" height="20" viewBox="0 0 20 20" fill="none" xmlns="http://www.w3.org/2000/svg">
<path d="M9.58268 8.33331H5.41602C3.85362 8.33331 3.07243 8.33331 2.5248 8.73123C2.34793 8.85973 2.1924 9.01523 2.0639 9.19206C1.66602 9.73973 1.66602 10.5209 1.66602 12.0833C1.66602 13.6457 1.66602 14.4269 2.0639 14.9746C2.1924 15.1514 2.34793 15.3069 2.5248 15.4354C3.07243 15.8333 3.85362 15.8333 5.41602 15.8333H14.5827C16.1451 15.8333 16.9263 15.8333 17.4739 15.4354C17.6508 15.3069 17.8063 15.1514 17.9348 14.9746C18.3327 14.4269 18.3327 13.6457 18.3327 12.0833C18.3327 10.5209 18.3327 9.73973 17.9348 9.19206C17.8063 9.01523 17.6508 8.85973 17.4739 8.73123C17.097 8.45731 16.6094 8.37198 15.8327 8.3454" stroke="#374151" stroke-width="1.2"/>
<path d="M4.58398 11.25H4.59147" stroke="#374151" stroke-width="1.2" stroke-linecap="round" stroke-linejoin="round"/>
<path d="M12.9167 11.25C14.5275 11.25 15.8333 9.94418 15.8333 8.33335C15.8333 6.72252 14.5275 5.41669 12.9167 5.41669C11.3058 5.41669 10 6.72252 10 8.33335C10 9.94418 11.3058 11.25 12.9167 11.25Z" stroke="#374151" stroke-width="1.2"/>
<path d="M5.41602 15.8333L4.16602 18.3333" stroke="#374151" stroke-width="1.2" stroke-linecap="round"/>
<path d="M14.584 15.8333L15.834 18.3333" stroke="#374151" stroke-width="1.2" stroke-linecap="round"/>
<path d="M10.4173 4.16669L9.58398 3.33335M16.2507 3.33335L15.4173 4.16669M12.9173 3.33335V1.66669" stroke="#374151" stroke-width="1.2" stroke-linecap="round"/>
</svg>
