<svg xmlns="http://www.w3.org/2000/svg" width="32" height="32" viewBox="0 0 32 32" fill="none">
  <path fill-rule="evenodd" clip-rule="evenodd" d="M16.0003 1.66663C8.08425 1.66663 1.66699 8.08388 1.66699 16C1.66699 23.9161 8.08425 30.3333 16.0003 30.3333C23.9165 30.3333 30.3337 23.9161 30.3337 16C30.3337 8.08388 23.9165 1.66663 16.0003 1.66663ZM15.9891 8.33329C13.5947 8.33329 11.6511 10.2721 11.6511 12.6666C11.6511 15.0612 13.5947 17 15.9891 17C18.3837 17 20.3273 15.0612 20.3273 12.6666C20.3273 10.2721 18.3837 8.33329 15.9891 8.33329ZM22.7215 21.9736C19.165 18.1336 12.7666 18.3316 9.28542 21.9674L9.03541 22.2174C8.84171 22.4112 8.73595 22.6758 8.74283 22.9497C8.74971 23.2236 8.86862 23.4826 9.07179 23.6664C10.9039 25.323 13.3354 26.3333 16.0005 26.3333C18.6655 26.3333 21.097 25.323 22.9291 23.6664C23.1323 23.4826 23.2513 23.2236 23.2581 22.9497C23.265 22.6758 23.1593 22.4112 22.9655 22.2174L22.7215 21.9736Z" fill="#16A34A"/>
</svg>