<svg xmlns="http://www.w3.org/2000/svg" width="30" height="28" viewBox="0 0 30 28" fill="none">
  <path fill-rule="evenodd" clip-rule="evenodd" d="M15 0.333374C13.9831 0.333374 13.0648 0.635401 12.07 1.14389C11.1077 1.63573 9.99972 2.36127 8.61254 3.2696L3.38954 6.68951C2.82076 7.061 2.32273 7.38629 1.92172 7.75853C2.50033 7.78428 3.06977 7.97732 3.55494 8.33076L9.11992 12.3847C9.49985 12.6615 9.80085 12.8799 10.0779 13.0646C10.3119 13.2207 10.5067 13.4215 10.6538 13.6518C11.9846 12.8898 13.408 12.3334 15.0005 12.3334C16.5924 12.3334 18.0155 12.8894 19.346 13.6511C19.4931 13.4212 19.6876 13.2206 19.9213 13.0647C20.1984 12.8799 20.4995 12.6615 20.8795 12.3847L26.4444 8.33076C26.9297 7.97723 27.4993 7.78417 28.0781 7.75851C27.6771 7.38628 27.1791 7.061 26.6104 6.68951L21.3873 3.26961C20.0001 2.36129 18.8921 1.63573 17.9299 1.14389C16.9351 0.635401 16.0168 0.333374 15 0.333374ZM1.35668 9.8534C1.02506 10.0123 0.807384 10.3403 0.78985 10.7075L0.756211 11.4118C0.667184 13.435 0.644397 15.419 0.687957 17.4226L0.691197 17.5722C0.712957 18.5759 0.732637 19.4843 0.779571 20.3072L8.96862 14.7283C8.65074 14.5164 8.31534 14.2726 7.94248 14.001L2.37752 9.94697C2.08032 9.73048 1.68828 9.69454 1.35668 9.8534ZM28.6431 9.8534C28.9747 10.0123 29.1924 10.3403 29.2099 10.7075L29.2436 11.4118C29.3325 13.435 29.3553 15.419 29.3117 17.4226L29.3085 17.5722C29.2868 18.5759 29.2671 19.4844 29.2201 20.3074L21.0309 14.7284C21.3489 14.5164 21.6844 14.2726 22.0573 14.001L27.6223 9.94697C27.9195 9.73048 28.3115 9.69454 28.6431 9.8534ZM14.9997 14.3334C16.54 14.3334 17.974 15.0662 19.6787 16.2275L28.3907 22.1626C28.7504 22.4076 28.9103 22.8572 28.7861 23.2743C28.5103 24.2014 28.0709 24.9854 27.3761 25.6751C26.4331 26.6115 25.3179 27.0643 23.9469 27.3003C22.6365 27.5259 21.0009 27.5663 18.9669 27.6166L18.8901 27.6184C16.2889 27.6828 13.7105 27.6828 11.1093 27.6184L11.0325 27.6166C8.99849 27.5663 7.363 27.5259 6.05249 27.3003C4.6816 27.0643 3.56645 26.6115 2.6233 25.6751C1.92854 24.9854 1.48925 24.2014 1.21334 23.2743C1.08918 22.8572 1.24908 22.4076 1.60877 22.1626L10.3207 16.2275C12.0255 15.0662 13.4593 14.3334 14.9997 14.3334Z" fill="#2563EB"/>
</svg>