<svg xmlns="http://www.w3.org/2000/svg" width="21" height="21" viewBox="0 0 21 21" fill="none">
  <path d="M20.5 10.5C20.5 4.97715 16.0228 0.5 10.5 0.5C4.97715 0.5 0.5 4.97715 0.5 10.5C0.5 16.0228 4.97715 20.5 10.5 20.5C16.0228 20.5 20.5 16.0228 20.5 10.5Z" fill="#1778F2"/>
  <path d="M11.2974 16.1444V10.7916H13.0942L13.3637 8.70543H11.2974V7.37352C11.2974 6.76958 11.4652 6.35798 12.3313 6.35798H13.436V4.49269C12.9013 4.43612 12.3639 4.40872 11.8263 4.41061C10.2335 4.41061 9.14315 5.38274 9.14315 7.16813V8.70543H7.3418V10.7916H9.14315V16.1444H11.2974Z" fill="#FDFDFD"/>
</svg>