 <svg xmlns="http://www.w3.org/2000/svg" width="20" height="21" viewBox="0 0 20 21" fill="none">
  <path d="M10.0001 2.37219C8.02133 2.37227 6.10716 3.07645 4.60008 4.35873C3.09299 5.64101 2.09135 7.41771 1.77438 9.37093C1.45741 11.3241 1.84579 13.3264 2.87002 15.0195C3.89425 16.7126 5.48751 17.9859 7.3647 18.6118C7.78137 18.6847 7.93762 18.4347 7.93762 18.2159C7.93762 18.018 7.9272 17.3618 7.9272 16.6639C5.83344 17.0493 5.29177 16.1535 5.1251 15.6847C4.94017 15.2288 4.647 14.8248 4.27094 14.5076C3.97927 14.3514 3.5626 13.9659 4.26051 13.9555C4.527 13.9845 4.78259 14.0772 5.00563 14.2259C5.22867 14.3746 5.41257 14.5748 5.54177 14.8097C5.65575 15.0144 5.809 15.1947 5.99276 15.3401C6.17652 15.4855 6.38717 15.5932 6.61263 15.6571C6.8381 15.721 7.07395 15.7397 7.30667 15.7123C7.53939 15.6848 7.76441 15.6117 7.96884 15.4972C8.00491 15.0735 8.19372 14.6774 8.5001 14.3826C6.64594 14.1743 4.70844 13.4555 4.70844 10.2681C4.69673 9.43984 5.00234 8.63853 5.5626 8.02847C5.30784 7.30865 5.33765 6.5187 5.64594 5.82013C5.64594 5.82013 6.34383 5.60138 7.9376 6.6743C9.30118 6.29928 10.7407 6.29928 12.1043 6.6743C13.698 5.59097 14.3959 5.82013 14.3959 5.82013C14.7043 6.51869 14.7341 7.30866 14.4793 8.02847C15.0412 8.63749 15.3471 9.43949 15.3334 10.2681C15.3334 13.4659 13.3855 14.1743 11.5314 14.3826C11.7302 14.5842 11.8834 14.8262 11.9805 15.0922C12.0775 15.3582 12.1162 15.642 12.0939 15.9243C12.0939 17.0389 12.0834 17.9347 12.0834 18.216C12.0834 18.4347 12.2397 18.6951 12.6563 18.6118C14.5302 17.9809 16.1189 16.7045 17.1388 15.0106C18.1587 13.3166 18.5433 11.3154 18.2242 9.36406C17.905 7.41273 16.9027 5.63834 15.3963 4.35762C13.8899 3.0769 11.9774 2.37322 10.0001 2.37219Z" fill="black"/>
</svg>
