<svg xmlns="http://www.w3.org/2000/svg" width="32" height="32" viewBox="0 0 32 32" fill="none">
  <path fill-rule="evenodd" clip-rule="evenodd" d="M15.9998 1.66663C13.4033 1.66663 11.3577 2.80372 9.60857 3.79707C7.82237 4.81163 6.31708 5.66663 4.64672 5.66663C4.17032 5.66663 3.76005 6.00271 3.66629 6.4698C2.29289 13.3109 3.11986 18.7662 5.43809 22.7909C7.75954 26.821 11.5143 29.3064 15.771 30.3068C15.9214 30.3421 16.0781 30.3421 16.2285 30.3068C20.4853 29.3064 24.24 26.821 26.5614 22.7909C28.8797 18.7662 29.7066 13.3109 28.3333 6.4698C28.2394 6.00271 27.8292 5.66663 27.3528 5.66663C25.6825 5.66663 24.1772 4.81163 22.391 3.79707C20.642 2.80372 18.5964 1.66663 15.9998 1.66663ZM19.6666 12V13.2014C19.9554 13.2896 20.2336 13.4209 20.4929 13.62C20.7009 13.7796 20.8872 13.9657 21.0468 14.1737C21.4092 14.6461 21.547 15.1806 21.6088 15.7281C21.6668 16.2428 21.6668 16.9853 21.6666 17.7209C21.6668 18.4564 21.6668 19.0905 21.6088 19.6052C21.547 20.1526 21.4092 20.6872 21.0468 21.1596C20.8872 21.3676 20.7009 21.5537 20.4929 21.7133C20.0205 22.0758 19.486 22.2136 18.9385 22.2753C18.4238 22.3333 17.7897 22.3333 17.0542 22.3333H14.9457C14.2102 22.3333 13.5761 22.3333 13.0615 22.2753C12.514 22.2136 11.9795 22.0758 11.507 21.7133C11.2991 21.5537 11.1129 21.3676 10.9533 21.1596C10.5908 20.6872 10.453 20.1526 10.3913 19.6052C10.3333 19.0905 10.3333 18.4564 10.3333 17.7209C10.3333 16.9853 10.3333 16.2428 10.3913 15.7281C10.453 15.1806 10.5908 14.6461 10.9533 14.1737C11.1129 13.9657 11.2991 13.7796 11.507 13.62C11.7665 13.4209 12.0446 13.2896 12.3333 13.2014V12C12.3333 9.97492 13.9749 8.33329 16 8.33329C18.025 8.33329 19.6666 9.97492 19.6666 12ZM16 10.3333C15.0796 10.3333 14.3333 11.0795 14.3333 12V13.0013H17.6666V12C17.6666 11.0795 16.9205 10.3333 16 10.3333Z" fill="#2563EB"/>
</svg>