<svg xmlns="http://www.w3.org/2000/svg" width="56" height="56" viewBox="0 0 56 56" fill="none">
  <rect width="56" height="56" rx="28" fill="#8333D0"/>
  <path d="M37.1257 32.7577C37.1257 30.7816 36.8131 29.0541 36.1878 27.575C35.553 26.0959 34.6198 24.9481 33.3881 24.1317C32.1565 23.3271 30.65 22.9247 28.8689 22.9247L16.1497 22.9247C16.1497 25.7087 18.3995 27.9655 21.1748 27.9655L28.5704 27.9655C29.4515 27.9655 30.2095 28.0719 30.8443 28.2849C31.4696 28.4979 31.9812 28.8115 32.3791 29.2256C32.777 29.6516 33.0707 30.1604 33.2602 30.752C33.4402 31.3437 33.5302 32.0181 33.5302 32.7754C33.5302 33.4972 33.4402 34.1421 33.2602 34.7101C33.0707 35.2899 32.777 35.7809 32.3791 36.1832C31.9812 36.5855 31.4696 36.8932 30.8443 37.1062C30.2095 37.331 29.4515 37.4434 28.5704 37.4434H21.2032C18.4279 37.4434 16.1781 39.7002 16.1781 42.4841L28.8689 42.4841C30.6311 42.4841 32.128 42.0759 33.3597 41.2595C34.5913 40.443 35.5293 39.3011 36.1735 37.8339C36.8083 36.3785 37.1257 34.6864 37.1257 32.7577Z" fill="#BC78FF"/>
  <path d="M19.3334 23.1552C19.3334 21.1851 19.6392 19.4626 20.2508 17.988C20.8717 16.5133 21.7845 15.3689 22.9893 14.5549C24.194 13.7527 25.6674 13.3516 27.4097 13.3516L39.8507 13.3516C39.8507 16.1272 37.6501 18.3773 34.9355 18.3773L27.7016 18.3773C26.8397 18.3773 26.0984 18.4835 25.4775 18.6958C24.8658 18.9082 24.3654 19.2208 23.9762 19.6337C23.587 20.0584 23.2997 20.5657 23.1144 21.1556C22.9383 21.7454 22.8502 22.4179 22.8502 23.1729C22.8502 23.8926 22.9383 24.5355 23.1144 25.1018C23.2997 25.6799 23.587 26.1695 23.9762 26.5706C24.3654 26.9717 24.8658 27.2784 25.4775 27.4908C26.0984 27.715 26.8397 27.827 27.7016 27.827L32.9527 28.2434C35.6673 28.2434 37.0208 30.0771 37.0208 32.8527H27.4097C25.686 32.8527 24.2218 32.4457 23.0171 31.6317C21.8123 30.8177 20.8949 29.6792 20.2647 28.2163C19.6438 26.7653 19.3334 25.0782 19.3334 23.1552Z" fill="url(#paint0_linear_365_56)"/>
  <defs>
    <linearGradient id="paint0_linear_365_56" x1="46.6683" y1="12.7025" x2="30.7874" y2="27.2103" gradientUnits="userSpaceOnUse">
      <stop stop-color="white"/>
      <stop offset="0.286429" stop-color="white"/>
    </linearGradient>
  </defs>
</svg>