<svg xmlns="http://www.w3.org/2000/svg" width="21" height="20" viewBox="0 0 21 20" fill="none">
  <path d="M2.1665 5L7.92735 8.26414C10.0512 9.4675 10.9485 9.4675 13.0723 8.26414L18.8332 5" stroke="white" stroke-width="1.5" stroke-linejoin="round"/>
  <path d="M2.17965 11.2296C2.23412 13.7843 2.26136 15.0615 3.20397 16.0078C4.14657 16.954 5.45845 16.9869 8.0822 17.0528C9.69925 17.0935 11.3004 17.0935 12.9175 17.0528C15.5413 16.9869 16.8531 16.954 17.7958 16.0078C18.7383 15.0615 18.7656 13.7843 18.82 11.2296C18.8376 10.4082 18.8376 9.59171 18.82 8.77029C18.7656 6.21568 18.7383 4.93837 17.7958 3.99218C16.8531 3.04599 15.5413 3.01303 12.9175 2.9471C11.3004 2.90647 9.69925 2.90647 8.08219 2.94709C5.45845 3.01301 4.14657 3.04597 3.20396 3.99217C2.26135 4.93836 2.23412 6.21567 2.17964 8.77029C2.16212 9.59171 2.16213 10.4082 2.17965 11.2296Z" stroke="white" stroke-width="1.5" stroke-linejoin="round"/>
</svg>