<svg width="20" height="20" viewBox="0 0 20 20" fill="none" xmlns="http://www.w3.org/2000/svg">
<path d="M1.66602 5.83335H4.05354C4.65913 5.83335 5.23992 5.53361 5.66814 5.00006C6.27971 4.23806 7.18431 3.97199 8.00481 4.31276L9.16602 4.79504M1.66602 13.3057H3.01658C3.98282 13.3057 4.46594 13.3057 4.92278 13.4344C4.94499 13.4407 4.96713 13.4472 4.9892 13.4539C5.44317 13.5918 5.84515 13.8508 6.64911 14.3689C8.22257 15.383 9.00935 15.8901 9.8666 15.8284C9.90702 15.8254 9.94735 15.8215 9.9876 15.8168C10.8407 15.7148 11.5093 15.0684 12.8465 13.7757L14.166 12.5" stroke="white" stroke-width="1.2" stroke-linecap="round"/>
<path d="M18.3333 6.02822H16.236C15.3478 6.02822 14.7208 5.54559 14.0836 4.90217C13.6709 4.48541 13.1443 4.23979 12.5907 4.20596C11.9717 4.16815 11.2544 4.1149 10.6533 4.28003C9.98425 4.46382 9.5425 4.96721 9.07517 5.49332L7.86924 6.85095C7.37692 7.4052 7.37692 8.30381 7.86924 8.85811C8.29417 9.33644 8.95992 9.41069 9.45992 9.03536C9.81975 8.76536 10.2286 8.32924 10.6526 8.1919C11.1298 8.03732 11.4258 8.38461 11.6962 8.74994L13.6297 11.362C14.3473 12.3314 14.706 12.8161 15.1965 13.0747C15.687 13.3334 16.2474 13.3334 17.3683 13.3334H18.3333" stroke="white" stroke-width="1.2" stroke-linecap="round"/>
</svg>
