<svg width="26" height="26" viewBox="0 0 26 26" fill="none" xmlns="http://www.w3.org/2000/svg">
<circle cx="12.584" cy="9.58337" r="6.25" fill="#B6B61D"/>
<g filter="url(#filter0_d_1351_27957)">
<path fill-rule="evenodd" clip-rule="evenodd" d="M12.9993 1.04163C8.0518 1.04163 4.04102 5.05241 4.04102 9.99996C4.04102 14.9475 8.0518 18.9583 12.9993 18.9583C17.9469 18.9583 21.9577 14.9475 21.9577 9.99996C21.9577 5.05241 17.9469 1.04163 12.9993 1.04163ZM14.48 5.50853C14.48 5.05044 14.2328 4.64192 13.8334 4.46322C13.4108 4.27408 12.9088 4.38997 12.6039 4.80083L9.27141 9.29229C9.00562 9.65054 8.99075 10.0909 9.12064 10.4316C9.24955 10.7699 9.58025 11.1325 10.0946 11.1325H11.5183V14.4915C11.5183 14.9495 11.7656 15.358 12.1648 15.5368C12.5874 15.7259 13.0896 15.61 13.3944 15.1991L16.7269 10.7077C16.9927 10.3495 17.0076 9.90913 16.8777 9.56829C16.7488 9.23013 16.4181 8.86746 15.9038 8.86746H14.48V5.50853Z" fill="#E9EA17"/>
</g>
<defs>
<filter id="filter0_d_1351_27957" x="0.0410156" y="0.041626" width="25.916" height="25.9166" filterUnits="userSpaceOnUse" color-interpolation-filters="sRGB">
<feFlood flood-opacity="0" result="BackgroundImageFix"/>
<feColorMatrix in="SourceAlpha" type="matrix" values="0 0 0 0 0 0 0 0 0 0 0 0 0 0 0 0 0 0 127 0" result="hardAlpha"/>
<feOffset dy="3"/>
<feGaussianBlur stdDeviation="2"/>
<feComposite in2="hardAlpha" operator="out"/>
<feColorMatrix type="matrix" values="0 0 0 0 0 0 0 0 0 0 0 0 0 0 0 0 0 0 0.25 0"/>
<feBlend mode="normal" in2="BackgroundImageFix" result="effect1_dropShadow_1351_27957"/>
<feBlend mode="normal" in="SourceGraphic" in2="effect1_dropShadow_1351_27957" result="shape"/>
</filter>
</defs>
</svg>
