<svg width="20" height="21" viewBox="0 0 20 21" fill="none" xmlns="http://www.w3.org/2000/svg">
<g clip-path="url(#clip0_1821_29555)">
<path d="M20 10.5C20 4.97715 15.5228 0.5 10 0.5C4.47715 0.5 0 4.97715 0 10.5C0 16.0228 4.47715 20.5 10 20.5C15.5228 20.5 20 16.0228 20 10.5Z" fill="#1778F2"/>
<path d="M10.7974 16.144V10.7912H12.5942L12.8637 8.70507H10.7974V7.37315C10.7974 6.76922 10.9652 6.35761 11.8313 6.35761H12.936V4.49233C12.4013 4.43576 11.8639 4.40835 11.3263 4.41025C9.73351 4.41025 8.64315 5.38238 8.64315 7.16777V8.70507H6.8418V10.7912H8.64315V16.144H10.7974Z" fill="#FDFDFD"/>
</g>
<defs>
<clipPath id="clip0_1821_29555">
<rect width="20" height="20" fill="white" transform="translate(0 0.5)"/>
</clipPath>
</defs>
</svg>
