<svg width="20" height="21" viewBox="0 0 20 21" fill="none" xmlns="http://www.w3.org/2000/svg">
<path d="M5.83398 18V15.5" stroke="#141B34" stroke-width="1.5" stroke-linecap="round" stroke-linejoin="round"/>
<path d="M14.166 18V13" stroke="#141B34" stroke-width="1.5" stroke-linecap="round" stroke-linejoin="round"/>
<path d="M14.166 5.5V3" stroke="#141B34" stroke-width="1.5" stroke-linecap="round" stroke-linejoin="round"/>
<path d="M5.83398 8V3" stroke="#141B34" stroke-width="1.5" stroke-linecap="round" stroke-linejoin="round"/>
<path d="M5.83398 15.5C5.05742 15.5 4.66913 15.5 4.36284 15.3732C3.95447 15.204 3.63001 14.8795 3.46085 14.4712C3.33398 14.1648 3.33398 13.7766 3.33398 13C3.33398 12.2234 3.33398 11.8352 3.46085 11.5288C3.63001 11.1205 3.95447 10.796 4.36284 10.6268C4.66913 10.5 5.05742 10.5 5.83398 10.5C6.61055 10.5 6.99883 10.5 7.30513 10.6268C7.7135 10.796 8.03796 11.1205 8.20712 11.5288C8.33398 11.8352 8.33398 12.2234 8.33398 13C8.33398 13.7766 8.33398 14.1648 8.20712 14.4712C8.03796 14.8795 7.7135 15.204 7.30513 15.3732C6.99883 15.5 6.61055 15.5 5.83398 15.5Z" stroke="#141B34" stroke-width="1.5"/>
<path d="M14.166 10.5C13.3894 10.5 13.0012 10.5 12.6948 10.3732C12.2865 10.204 11.962 9.8795 11.7928 9.47117C11.666 9.16483 11.666 8.77657 11.666 8C11.666 7.22343 11.666 6.83515 11.7928 6.52886C11.962 6.12048 12.2865 5.79602 12.6948 5.62687C13.0012 5.5 13.3894 5.5 14.166 5.5C14.9426 5.5 15.3308 5.5 15.6372 5.62687C16.0455 5.79602 16.37 6.12048 16.5392 6.52886C16.666 6.83515 16.666 7.22343 16.666 8C16.666 8.77657 16.666 9.16483 16.5392 9.47117C16.37 9.8795 16.0455 10.204 15.6372 10.3732C15.3308 10.5 14.9426 10.5 14.166 10.5Z" stroke="#141B34" stroke-width="1.5"/>
</svg>
