<svg width="20" height="21" viewBox="0 0 20 21" fill="none" xmlns="http://www.w3.org/2000/svg">
<path d="M10.0003 2.37109C8.02158 2.37118 6.1074 3.07536 4.60032 4.35763C3.09324 5.63991 2.0916 7.41661 1.77463 9.36983C1.45765 11.323 1.84603 13.3253 2.87026 15.0184C3.8945 16.7115 5.48775 17.9848 7.36495 18.6107C7.78161 18.6836 7.93786 18.4336 7.93786 18.2148C7.93786 18.0169 7.92744 17.3607 7.92744 16.6628C5.83368 17.0482 5.29201 16.1524 5.12535 15.6836C4.94041 15.2277 4.64724 14.8237 4.27118 14.5065C3.97951 14.3503 3.56285 13.9648 4.26076 13.9544C4.52725 13.9834 4.78284 14.0761 5.00587 14.2248C5.22891 14.3735 5.41282 14.5737 5.54201 14.8086C5.65599 15.0133 5.80925 15.1936 5.99301 15.339C6.17676 15.4844 6.38741 15.5921 6.61287 15.656C6.83834 15.7199 7.07419 15.7386 7.30691 15.7112C7.53964 15.6837 7.76466 15.6106 7.96908 15.4961C8.00516 15.0724 8.19396 14.6763 8.50035 14.3815C6.64618 14.1732 4.70868 13.4544 4.70868 10.267C4.69697 9.43874 5.00259 8.63743 5.56285 8.02737C5.30808 7.30755 5.33789 6.51761 5.64618 5.81904C5.64618 5.81904 6.34407 5.60028 7.93785 6.6732C9.30142 6.29818 10.7409 6.29818 12.1045 6.6732C13.6982 5.58987 14.3962 5.81904 14.3962 5.81904C14.7045 6.5176 14.7343 7.30756 14.4795 8.02737C15.0415 8.63639 15.3473 9.4384 15.3337 10.267C15.3337 13.4648 13.3857 14.1732 11.5316 14.3815C11.7305 14.5831 11.8836 14.8251 11.9807 15.0911C12.0778 15.3571 12.1164 15.6409 12.0941 15.9232C12.0941 17.0378 12.0837 17.9336 12.0837 18.2149C12.0837 18.4336 12.2399 18.694 12.6566 18.6107C14.5305 17.9798 16.1192 16.7034 17.139 15.0095C18.1589 13.3155 18.5436 11.3143 18.2244 9.36296C17.9052 7.41163 16.903 5.63724 15.3966 4.35652C13.8901 3.0758 11.9776 2.37212 10.0003 2.37109Z" fill="black"/>
</svg>
