<svg width="28" height="27" viewBox="0 0 28 27" fill="none" xmlns="http://www.w3.org/2000/svg">
<g filter="url(#filter0_d_1351_19032)">
<path d="M14.0013 18.8337C18.6037 18.8337 22.3346 15.1027 22.3346 10.5003C22.3346 5.89795 18.6037 2.16699 14.0013 2.16699C9.39893 2.16699 5.66797 5.89795 5.66797 10.5003C5.66797 15.1027 9.39893 18.8337 14.0013 18.8337Z" fill="white"/>
<path d="M14.0013 19.3337C18.8798 19.3337 22.8346 15.3788 22.8346 10.5003C22.8346 5.62181 18.8798 1.66699 14.0013 1.66699C9.12279 1.66699 5.16797 5.62181 5.16797 10.5003C5.16797 15.3788 9.12279 19.3337 14.0013 19.3337Z" stroke="#D1D5DB" stroke-linecap="round" stroke-linejoin="round"/>
</g>
<path d="M14 7.16699V13.8337" stroke="#374151" stroke-width="1.5" stroke-linecap="round" stroke-linejoin="round"/>
<path d="M10.668 10.5H17.3346" stroke="#374151" stroke-width="1.5" stroke-linecap="round" stroke-linejoin="round"/>
<defs>
<filter id="filter0_d_1351_19032" x="0.667969" y="0.166992" width="26.666" height="26.6667" filterUnits="userSpaceOnUse" color-interpolation-filters="sRGB">
<feFlood flood-opacity="0" result="BackgroundImageFix"/>
<feColorMatrix in="SourceAlpha" type="matrix" values="0 0 0 0 0 0 0 0 0 0 0 0 0 0 0 0 0 0 127 0" result="hardAlpha"/>
<feOffset dy="3"/>
<feGaussianBlur stdDeviation="2"/>
<feComposite in2="hardAlpha" operator="out"/>
<feColorMatrix type="matrix" values="0 0 0 0 0 0 0 0 0 0 0 0 0 0 0 0 0 0 0.25 0"/>
<feBlend mode="normal" in2="BackgroundImageFix" result="effect1_dropShadow_1351_19032"/>
<feBlend mode="normal" in="SourceGraphic" in2="effect1_dropShadow_1351_19032" result="shape"/>
</filter>
</defs>
</svg>
