<svg width="20" height="20" viewBox="0 0 20 20" fill="none" xmlns="http://www.w3.org/2000/svg">
<path d="M10.8327 18.3333H5.49174C4.20392 18.3333 3.17961 17.7066 2.2599 16.8304C0.377154 15.0367 3.46835 13.6033 4.64732 12.9013C6.27483 11.9322 8.15993 11.5336 9.99935 11.7054" stroke="#374151" stroke-width="1.2" stroke-linecap="round" stroke-linejoin="round"/>
<path d="M12.916 5.41663C12.916 7.48769 11.2371 9.16663 9.16602 9.16663C7.09495 9.16663 5.41602 7.48769 5.41602 5.41663C5.41602 3.34556 7.09495 1.66663 9.16602 1.66663C11.2371 1.66663 12.916 3.34556 12.916 5.41663Z" stroke="#374151" stroke-width="1.2"/>
<path d="M16.9993 17L18.3327 18.3333M17.666 14.6666C17.666 13.0098 16.3228 11.6666 14.666 11.6666C13.0092 11.6666 11.666 13.0098 11.666 14.6666C11.666 16.3235 13.0092 17.6666 14.666 17.6666C16.3228 17.6666 17.666 16.3235 17.666 14.6666Z" stroke="#374151" stroke-width="1.2" stroke-linecap="round" stroke-linejoin="round"/>
</svg>
